<svg width="136" height="41" viewBox="0 0 136 41" fill="none" xmlns="http://www.w3.org/2000/svg">
<g clip-path="url(#clip0_9294_5492)">
<path d="M124.434 0.699349H10.7726C10.3583 0.699349 9.94892 0.699349 9.5357 0.701349C9.18981 0.703349 8.84667 0.709159 8.49745 0.714049C7.73878 0.721951 6.9819 0.781025 6.23338 0.890759C5.48591 1.00288 4.76186 1.21426 4.08571 1.51776C3.41039 1.82382 2.79333 2.22152 2.25691 2.69642C1.71768 3.16999 1.26819 3.71737 0.925726 4.31751C0.582314 4.91646 0.344192 5.55829 0.219582 6.22083C0.0937882 6.88253 0.0260972 7.55187 0.0171169 8.22283C0.0066321 8.52943 0.00552487 8.83705 0 9.14369V32.2579C0.00552487 32.5684 0.0066321 32.8692 0.0171169 33.1798C0.0261 33.8508 0.093791 34.5201 0.219582 35.1817C0.343848 35.8447 0.581984 36.4869 0.925726 37.086C1.26804 37.6842 1.71759 38.2294 2.25691 38.7003C2.79129 39.1774 3.40875 39.5753 4.08571 39.879C4.76186 40.1834 5.48583 40.396 6.23338 40.5098C6.98203 40.6187 7.73883 40.6778 8.49745 40.6866C8.84667 40.6935 9.18981 40.6973 9.5357 40.6973C9.94891 40.6993 10.3583 40.6993 10.7726 40.6993H124.434C124.84 40.6993 125.252 40.6993 125.658 40.6973C126.003 40.6973 126.356 40.6935 126.7 40.6866C127.457 40.6783 128.212 40.6192 128.96 40.5098C129.709 40.3952 130.436 40.1826 131.115 39.879C131.792 39.5752 132.409 39.1772 132.943 38.7003C133.481 38.2276 133.931 37.6828 134.278 37.086C134.619 36.4864 134.855 35.8443 134.977 35.1817C135.103 34.52 135.173 33.8508 135.187 33.1798C135.191 32.8692 135.191 32.5684 135.191 32.2579C135.2 31.8946 135.2 31.5333 135.2 31.1641V10.2355C135.2 9.86927 135.2 9.50599 135.191 9.14369C135.191 8.83705 135.191 8.52943 135.187 8.22279C135.173 7.55177 135.103 6.88258 134.977 6.22079C134.854 5.55863 134.618 4.91685 134.278 4.31747C133.58 3.11454 132.474 2.13537 131.115 1.51767C130.436 1.21492 129.709 1.00359 128.96 0.890669C128.213 0.780452 127.457 0.721357 126.7 0.713909C126.356 0.709029 126.003 0.703169 125.658 0.701219C125.252 0.699219 124.84 0.699219 124.434 0.699219V0.699349Z" fill="#A6A6A6"/>
<path d="M9.53924 39.8242C9.195 39.8242 8.85908 39.8203 8.51755 39.8135C7.81003 39.8054 7.10416 39.7508 6.40574 39.6504C5.75449 39.5512 5.12361 39.3665 4.5339 39.1025C3.9496 38.8407 3.41667 38.4975 2.95553 38.0859C2.48772 37.6792 2.09824 37.2075 1.80253 36.6894C1.50356 36.168 1.29666 35.6091 1.18903 35.0322C1.0728 34.4123 1.00991 33.7855 1.00092 33.1572C0.993753 32.9463 0.984375 32.2441 0.984375 32.2441V9.14356C0.984375 9.14356 0.994363 8.45215 1.00097 8.24902C1.00959 7.6217 1.07211 6.99587 1.18799 6.37695C1.29582 5.79847 1.50288 5.23797 1.80201 4.71485C2.09663 4.19716 2.48395 3.72508 2.94895 3.3169C3.41342 2.90484 3.94806 2.55982 4.53335 2.29443C5.1217 2.03131 5.75139 1.84795 6.40132 1.75049C7.10204 1.64905 7.81035 1.59421 8.52033 1.58643L9.53979 1.57422H125.651L126.682 1.58692C127.386 1.59432 128.088 1.64867 128.782 1.74951C129.439 1.84819 130.075 2.03283 130.67 2.29736C131.842 2.8322 132.797 3.67838 133.398 4.71729C133.693 5.2368 133.897 5.79273 134.003 6.36621C134.12 6.99021 134.186 7.62096 134.199 8.25342C134.203 8.53662 134.203 8.84082 134.203 9.14356C134.212 9.51856 134.212 9.87549 134.212 10.2353V31.164C134.212 31.5273 134.212 31.8818 134.203 32.2392C134.203 32.5644 134.203 32.8623 134.198 33.1689C134.185 33.7901 134.121 34.4096 134.005 35.0224C133.9 35.6035 133.694 36.1667 133.395 36.6924C133.097 37.2048 132.71 37.6725 132.248 38.0781C131.786 38.4919 131.252 38.8372 130.667 39.1006C130.073 39.3666 129.438 39.552 128.782 39.6504C128.084 39.7514 127.378 39.8059 126.67 39.8135C126.339 39.8203 125.993 39.8242 125.656 39.8242L124.432 39.8262L9.53924 39.8242Z" fill="#333333"/>
<path d="M27.9841 21.0015C27.9962 20.1668 28.2467 19.3485 28.7122 18.6225C29.1777 17.8966 29.8432 17.2866 30.6466 16.8494C30.1362 16.2043 29.4629 15.6733 28.6801 15.2988C27.8973 14.9242 27.0267 14.7164 26.1372 14.6918C24.24 14.5155 22.4007 15.6966 21.4339 15.6966C20.4484 15.6966 18.9598 14.7093 17.3569 14.7385C16.3201 14.7681 15.3096 15.035 14.424 15.513C13.5383 15.9911 12.8077 16.664 12.3033 17.4663C10.1182 20.8147 11.748 25.7358 13.8412 28.4424C14.8884 29.7677 16.1123 31.2482 17.7138 31.1957C19.281 31.1382 19.8663 30.3112 21.7579 30.3112C23.632 30.3112 24.1812 31.1957 25.8151 31.1623C27.4968 31.1382 28.5563 29.8311 29.5668 28.4932C30.3192 27.5488 30.8982 26.5051 31.2823 25.4007C30.3053 25.0349 29.4716 24.4228 28.8851 23.6405C28.2986 22.8582 27.9852 21.9404 27.9841 21.0015Z" fill="white"/>
<path d="M24.8946 12.9105C25.8115 11.9363 26.2632 10.6842 26.1538 9.41992C24.753 9.55014 23.4591 10.1427 22.5298 11.0795C22.0755 11.5372 21.7275 12.0696 21.5058 12.6464C21.284 13.2232 21.1929 13.833 21.2376 14.4409C21.9383 14.4473 22.6314 14.3129 23.2649 14.0478C23.8983 13.7827 24.4556 13.3939 24.8946 12.9105Z" fill="white"/>
<path d="M47.7958 27.8389H42.4479L41.1636 31.1953H38.8984L43.9639 18.7773H46.3174L51.3828 31.1953H49.079L47.7958 27.8389ZM43.0018 26.2901H47.2409L45.1512 20.8428H45.0927L43.0018 26.2901Z" fill="white"/>
<path d="M62.3231 26.6687C62.3231 29.4821 60.6217 31.2898 58.0542 31.2898C57.4038 31.3199 56.757 31.1873 56.1878 30.9071C55.6186 30.627 55.15 30.2106 54.8358 29.7058H54.7872V34.1901H52.6875V22.1413H54.7199V23.6472H54.7585C55.0872 23.1447 55.5637 22.7305 56.1373 22.4487C56.7108 22.1668 57.3599 22.0279 58.0156 22.0466C60.6117 22.0466 62.3231 23.863 62.3231 26.6687ZM60.1649 26.6687C60.1649 24.8357 59.0947 23.6306 57.4617 23.6306C55.8575 23.6306 54.7784 24.8611 54.7784 26.6687C54.7784 28.4929 55.8575 29.7146 57.4617 29.7146C59.0947 29.7146 60.1649 28.5183 60.1649 26.6687Z" fill="white"/>
<path d="M73.5809 26.6687C73.5809 29.4821 71.8795 31.2898 69.312 31.2898C68.6616 31.3199 68.0148 31.1873 67.4456 30.9071C66.8764 30.627 66.4079 30.2106 66.0936 29.7058H66.045V34.1901H63.9453V22.1413H65.9777V23.6472H66.0163C66.345 23.1447 66.8215 22.7305 67.395 22.4487C67.9686 22.1668 68.6177 22.0279 69.2734 22.0466C71.8696 22.0466 73.5809 23.863 73.5809 26.6687ZM71.4227 26.6687C71.4227 24.8357 70.3525 23.6306 68.7195 23.6306C67.1153 23.6306 66.0362 24.861 66.0362 26.6687C66.0362 28.4929 67.1153 29.7146 68.7195 29.7146C70.3525 29.7146 71.4227 28.5183 71.4227 26.6687H71.4227Z" fill="white"/>
<path d="M81.0205 27.7354C81.176 28.9669 82.5276 29.7754 84.3746 29.7754C86.1444 29.7754 87.4177 28.9668 87.4177 27.8565C87.4177 26.8926 86.6497 26.3155 84.8314 25.9199L83.0131 25.5322C80.4368 24.9815 79.2408 23.915 79.2408 22.1846C79.2408 20.042 81.3504 18.5703 84.3459 18.5703C87.3106 18.5703 89.343 20.042 89.4114 22.1846H87.2919C87.165 20.9453 86.0076 20.1973 84.3161 20.1973C82.6247 20.1973 81.4673 20.9541 81.4673 22.0557C81.4673 22.9336 82.2065 23.4502 84.0149 23.8457L85.5607 24.1816C88.4393 24.7842 89.6354 25.8076 89.6354 27.624C89.6354 29.9472 87.5445 31.4023 84.219 31.4023C81.1076 31.4023 79.0068 29.9814 78.8711 27.7353L81.0205 27.7354Z" fill="white"/>
<path d="M94.1672 19.998V22.1406H96.1124V23.6123H94.1672V28.6035C94.1672 29.3789 94.5567 29.7402 95.4118 29.7402C95.6427 29.7367 95.8733 29.7223 96.1025 29.6972V31.1601C95.7181 31.2237 95.3273 31.2525 94.9363 31.2461C92.8653 31.2461 92.0576 30.5576 92.0576 28.8017V23.6123H90.5703V22.1406H92.0576V19.998H94.1672Z" fill="white"/>
<path d="M97.2383 26.668C97.2383 23.8193 99.1338 22.0293 102.09 22.0293C105.056 22.0293 106.942 23.8193 106.942 26.668C106.942 29.5244 105.065 31.3066 102.09 31.3066C99.115 31.3066 97.2383 29.5244 97.2383 26.668ZM104.803 26.668C104.803 24.7139 103.791 23.5605 102.09 23.5605C100.388 23.5605 99.3777 24.7227 99.3777 26.668C99.3777 28.6299 100.388 29.7744 102.09 29.7744C103.791 29.7744 104.803 28.6299 104.803 26.668H104.803Z" fill="white"/>
<path d="M108.676 22.1412H110.678V23.6822H110.727C110.862 23.2009 111.181 22.7756 111.629 22.4777C112.077 22.1798 112.627 22.0276 113.187 22.0465C113.429 22.0457 113.671 22.069 113.907 22.1158V23.8541C113.601 23.7715 113.283 23.7336 112.963 23.7418C112.658 23.7309 112.354 23.7785 112.072 23.8814C111.79 23.9842 111.536 24.14 111.328 24.3379C111.12 24.5358 110.963 24.7711 110.868 25.0278C110.772 25.2845 110.741 25.5564 110.775 25.8248V31.1949H108.676L108.676 22.1412Z" fill="white"/>
<path d="M123.587 28.5352C123.304 30.1787 121.496 31.3066 119.182 31.3066C116.206 31.3066 114.359 29.542 114.359 26.7109C114.359 23.8711 116.216 22.0293 119.094 22.0293C121.924 22.0293 123.704 23.75 123.704 26.4951V27.1318H116.479V27.2441C116.446 27.5773 116.493 27.913 116.617 28.2288C116.742 28.5447 116.941 28.8335 117.201 29.076C117.461 29.3186 117.777 29.5093 118.127 29.6356C118.477 29.7619 118.853 29.8209 119.231 29.8086C119.727 29.8497 120.225 29.748 120.65 29.5186C121.076 29.2891 121.407 28.9442 121.593 28.5351L123.587 28.5352ZM116.489 25.833H121.603C121.622 25.5334 121.57 25.2336 121.452 24.9524C121.334 24.6712 121.151 24.4146 120.916 24.1989C120.68 23.9831 120.397 23.8128 120.083 23.6986C119.77 23.5843 119.433 23.5287 119.094 23.5352C118.752 23.5334 118.413 23.5915 118.097 23.7062C117.78 23.821 117.493 23.99 117.25 24.2037C117.008 24.4173 116.816 24.6713 116.686 24.9509C116.555 25.2306 116.488 25.5304 116.489 25.833V25.833Z" fill="white"/>
<path d="M42.7398 9.4306C43.18 9.40264 43.6217 9.4615 44.0331 9.60293C44.4445 9.74437 44.8153 9.96485 45.1187 10.2485C45.4222 10.5321 45.6507 10.8718 45.7879 11.2431C45.9251 11.6143 45.9674 12.0079 45.9119 12.3954C45.9119 14.3017 44.7479 15.3974 42.7398 15.3974H40.3047V9.4306H42.7398ZM41.3518 14.5536H42.6228C42.9374 14.5702 43.2521 14.5246 43.5443 14.42C43.8364 14.3154 44.0984 14.1544 44.3114 13.9488C44.5244 13.7433 44.6829 13.4983 44.7754 13.2317C44.8678 12.965 44.892 12.6835 44.8461 12.4076C44.8887 12.1328 44.8621 11.853 44.7681 11.5883C44.6742 11.3237 44.5154 11.0807 44.3029 10.8767C44.0904 10.6728 43.8296 10.513 43.5391 10.4088C43.2487 10.3045 42.9358 10.2584 42.6228 10.2738H41.3518V14.5536Z" fill="white"/>
<path d="M47.0934 13.143C47.0614 12.8471 47.0996 12.5485 47.2057 12.2665C47.3117 11.9844 47.4831 11.7251 47.7091 11.5051C47.935 11.2851 48.2103 11.1093 48.5175 10.989C48.8246 10.8688 49.1568 10.8066 49.4926 10.8066C49.8285 10.8066 50.1606 10.8688 50.4678 10.989C50.7749 11.1093 51.0503 11.2851 51.2762 11.5051C51.5021 11.7251 51.6735 11.9844 51.7796 12.2665C51.8856 12.5485 51.9238 12.8471 51.8919 13.143C51.9244 13.4392 51.8867 13.7382 51.7809 14.0207C51.6752 14.3033 51.5038 14.5631 51.2779 14.7835C51.0519 15.0039 50.7763 15.1801 50.4689 15.3006C50.1614 15.4211 49.8289 15.4834 49.4926 15.4834C49.1564 15.4834 48.8238 15.4211 48.5164 15.3006C48.2089 15.1801 47.9333 15.0039 47.7074 14.7835C47.4814 14.5631 47.3101 14.3033 47.2043 14.0207C47.0986 13.7382 47.0608 13.4392 47.0934 13.143ZM50.8591 13.143C50.8591 12.1669 50.3637 11.5961 49.4943 11.5961C48.6215 11.5961 48.1306 12.1669 48.1306 13.143C48.1306 14.1269 48.6216 14.6933 49.4943 14.6933C50.3637 14.6933 50.8591 14.123 50.8591 13.143H50.8591Z" fill="white"/>
<path d="M58.2746 15.3975H57.2331L56.1816 12.0811H56.1022L55.0551 15.3975H54.0234L52.6211 10.8945H53.6395L54.5509 14.3305H54.6259L55.6719 10.8945H56.6351L57.6811 14.3305H57.7605L58.6674 10.8945H59.6715L58.2746 15.3975Z" fill="white"/>
<path d="M60.8438 10.8941H61.8103V11.6094H61.8853C62.0126 11.3525 62.2273 11.1371 62.4994 10.9933C62.7716 10.8495 63.0876 10.7844 63.4035 10.8072C63.6511 10.7907 63.8996 10.8237 64.1308 10.9038C64.362 10.9839 64.5698 11.109 64.7389 11.2699C64.908 11.4307 65.0341 11.6232 65.1078 11.833C65.1814 12.0428 65.2008 12.2646 65.1645 12.482V15.397H64.1604V12.7051C64.1604 11.9815 63.8051 11.6216 63.0626 11.6216C62.8945 11.6147 62.7267 11.64 62.5708 11.6958C62.4148 11.7517 62.2743 11.8367 62.1589 11.9451C62.0435 12.0535 61.956 12.1827 61.9023 12.3238C61.8486 12.4649 61.83 12.6147 61.8478 12.7627V15.397H60.8438L60.8438 10.8941Z" fill="white"/>
<path d="M66.7656 9.13672H67.7697V15.3975H66.7656V9.13672Z" fill="white"/>
<path d="M69.1676 13.1431C69.1356 12.8472 69.1739 12.5486 69.2799 12.2665C69.386 11.9844 69.5575 11.7251 69.7834 11.5051C70.0093 11.2851 70.2847 11.1093 70.5919 10.989C70.899 10.8688 71.2312 10.8066 71.5671 10.8066C71.903 10.8066 72.2351 10.8688 72.5423 10.989C72.8495 11.1093 73.1248 11.2851 73.3508 11.5051C73.5767 11.7251 73.7482 11.9844 73.8542 12.2665C73.9603 12.5486 73.9985 12.8472 73.9666 13.1431C73.9991 13.4393 73.9613 13.7383 73.8555 14.0208C73.7498 14.3034 73.5784 14.5632 73.3524 14.7836C73.1264 15.004 72.8508 15.1801 72.5434 15.3007C72.2359 15.4212 71.9034 15.4834 71.5671 15.4834C71.2308 15.4834 70.8983 15.4212 70.5908 15.3007C70.2833 15.1801 70.0077 15.004 69.7818 14.7836C69.5558 14.5632 69.3844 14.3034 69.2786 14.0208C69.1728 13.7383 69.135 13.4393 69.1676 13.1431ZM72.9333 13.1431C72.9333 12.167 72.4379 11.5962 71.5685 11.5962C70.6957 11.5962 70.2048 12.167 70.2048 13.1431C70.2048 14.127 70.6957 14.6934 71.5685 14.6934C72.4379 14.6934 72.9333 14.1231 72.9333 13.1431H72.9333Z" fill="white"/>
<path d="M75.0234 14.123C75.0234 13.3125 75.7053 12.8452 76.9157 12.7788L78.2938 12.7085V12.3198C78.2938 11.8442 77.9385 11.5757 77.2522 11.5757C76.6917 11.5757 76.3033 11.7578 76.1919 12.0762H75.2198C75.3224 11.3027 76.1444 10.8066 77.2985 10.8066C78.574 10.8066 79.2934 11.3686 79.2934 12.3198V15.3965H78.3269V14.7637H78.2474C78.0862 14.9907 77.8598 15.1757 77.5913 15.2999C77.3228 15.4241 77.0219 15.4831 76.7193 15.4707C76.5057 15.4903 76.2898 15.4702 76.0856 15.4115C75.8814 15.3528 75.6933 15.2568 75.5335 15.1299C75.3738 15.0029 75.2458 14.8477 75.158 14.6743C75.0701 14.5009 75.0243 14.3131 75.0234 14.123ZM78.2938 13.7383V13.3618L77.0514 13.4321C76.3508 13.4736 76.033 13.6846 76.033 14.0815C76.033 14.4868 76.4302 14.7226 76.9764 14.7226C77.1364 14.737 77.2981 14.7227 77.4518 14.6806C77.6054 14.6385 77.7479 14.5695 77.8709 14.4776C77.9938 14.3858 78.0945 14.273 78.1672 14.146C78.2399 14.019 78.2829 13.8803 78.2938 13.7383Z" fill="white"/>
<path d="M80.6133 13.1441C80.6133 11.7212 81.4397 10.8198 82.7251 10.8198C83.043 10.8069 83.3586 10.8743 83.6349 11.0142C83.9111 11.1541 84.1367 11.3607 84.2852 11.6098H84.3603V9.13672H85.3643V15.3975H84.4022V14.686H84.3227C84.1628 14.9335 83.9293 15.1376 83.6477 15.276C83.3661 15.4145 83.047 15.4822 82.7251 15.4717C81.4309 15.4717 80.6133 14.5703 80.6133 13.1441ZM81.6505 13.1441C81.6505 14.0991 82.1591 14.6738 83.0098 14.6738C83.856 14.6738 84.379 14.0908 84.379 13.148C84.379 12.2095 83.8505 11.6182 83.0098 11.6182C82.1646 11.6182 81.6504 12.1968 81.6504 13.1441H81.6505Z" fill="white"/>
<path d="M89.5192 13.143C89.4872 12.8471 89.5254 12.5485 89.6314 12.2665C89.7375 11.9844 89.9089 11.7251 90.1348 11.5051C90.3607 11.2851 90.6361 11.1093 90.9432 10.989C91.2504 10.8688 91.5825 10.8066 91.9184 10.8066C92.2543 10.8066 92.5864 10.8688 92.8936 10.989C93.2007 11.1093 93.476 11.2851 93.7019 11.5051C93.9278 11.7251 94.0993 11.9844 94.2053 12.2665C94.3114 12.5485 94.3496 12.8471 94.3176 13.143C94.3502 13.4392 94.3124 13.7382 94.2067 14.0207C94.1009 14.3033 93.9296 14.5631 93.7036 14.7835C93.4777 15.0039 93.2021 15.1801 92.8946 15.3006C92.5872 15.4211 92.2547 15.4834 91.9184 15.4834C91.5821 15.4834 91.2496 15.4211 90.9421 15.3006C90.6347 15.1801 90.3591 15.0039 90.1332 14.7835C89.9072 14.5631 89.7358 14.3033 89.6301 14.0207C89.5244 13.7382 89.4866 13.4392 89.5192 13.143ZM93.2849 13.143C93.2849 12.1669 92.7895 11.5961 91.92 11.5961C91.0473 11.5961 90.5563 12.1669 90.5563 13.143C90.5563 14.1269 91.0473 14.6933 91.92 14.6933C92.7895 14.6933 93.2849 14.123 93.2849 13.143Z" fill="white"/>
<path d="M95.668 10.8941H96.6345V11.6094H96.7095C96.8368 11.3525 97.0515 11.1371 97.3236 10.9933C97.5958 10.8495 97.9118 10.7844 98.2277 10.8072C98.4753 10.7907 98.7239 10.8237 98.955 10.9038C99.1862 10.9839 99.394 11.109 99.5631 11.2699C99.7322 11.4307 99.8583 11.6232 99.932 11.833C100.006 12.0428 100.025 12.2646 99.9887 12.482V15.397H98.9846V12.7051C98.9846 11.9815 98.6294 11.6216 97.8868 11.6216C97.7187 11.6147 97.551 11.64 97.395 11.6958C97.239 11.7517 97.0985 11.8367 96.9831 11.9451C96.8677 12.0535 96.7802 12.1827 96.7265 12.3238C96.6728 12.4649 96.6542 12.6147 96.672 12.7627V15.397H95.668V10.8941Z" fill="white"/>
<path d="M105.657 9.77344V10.915H106.759V11.6636H105.657V13.979C105.657 14.4507 105.876 14.6572 106.376 14.6572C106.504 14.6569 106.632 14.65 106.759 14.6367V15.3769C106.578 15.4055 106.396 15.4207 106.213 15.4224C105.096 15.4224 104.651 15.0747 104.651 14.2065V11.6635H103.844V10.915H104.651V9.77344H105.657Z" fill="white"/>
<path d="M108.133 9.13672H109.128V11.6182H109.207C109.341 11.3588 109.562 11.1423 109.839 10.9979C110.117 10.8536 110.438 10.7885 110.759 10.8115C111.005 10.7997 111.251 10.8361 111.48 10.9181C111.708 11.0001 111.914 11.1258 112.081 11.2862C112.248 11.4465 112.374 11.6375 112.448 11.8457C112.522 12.0538 112.544 12.2739 112.511 12.4902V15.3975H111.506V12.7095C111.506 11.9902 111.127 11.626 110.418 11.626C110.245 11.6134 110.072 11.6344 109.909 11.6875C109.747 11.7405 109.599 11.8244 109.477 11.9331C109.355 12.0418 109.262 12.1729 109.203 12.317C109.144 12.4611 109.122 12.6149 109.137 12.7676V15.3974H108.133L108.133 9.13672Z" fill="white"/>
<path d="M118.365 14.1807C118.229 14.5923 117.933 14.9483 117.53 15.1864C117.127 15.4246 116.643 15.5297 116.161 15.4835C115.826 15.4913 115.493 15.4345 115.185 15.3169C114.877 15.1994 114.602 15.024 114.378 14.8029C114.154 14.5817 113.988 14.3202 113.89 14.0363C113.792 13.7525 113.765 13.4532 113.811 13.1593C113.766 12.8644 113.794 12.5644 113.891 12.2798C113.989 11.9951 114.155 11.7323 114.377 11.5093C114.6 11.2862 114.874 11.108 115.181 10.9868C115.488 10.8656 115.82 10.8042 116.156 10.8067C117.572 10.8067 118.426 11.6627 118.426 13.0767V13.3868H114.834V13.4366C114.818 13.6019 114.841 13.7682 114.902 13.9249C114.964 14.0817 115.061 14.2254 115.189 14.3468C115.316 14.4683 115.471 14.5648 115.643 14.6302C115.815 14.6956 116.001 14.7284 116.188 14.7266C116.429 14.7521 116.672 14.7138 116.887 14.6166C117.103 14.5194 117.281 14.3677 117.399 14.1807L118.365 14.1807ZM114.834 12.7296H117.403C117.416 12.5784 117.393 12.4266 117.335 12.2839C117.278 12.1412 117.187 12.0107 117.069 11.9009C116.951 11.791 116.808 11.7042 116.65 11.646C116.492 11.5879 116.322 11.5596 116.151 11.5631C115.977 11.5611 115.805 11.59 115.644 11.6479C115.483 11.7059 115.337 11.7917 115.214 11.9005C115.092 12.0092 114.995 12.1385 114.929 12.2809C114.864 12.4233 114.831 12.5759 114.834 12.7296H114.834Z" fill="white"/>
</g>
<defs>
<clipPath id="clip0_9294_5492">
<rect width="135.2" height="40" fill="white" transform="translate(0 0.699219)"/>
</clipPath>
</defs>
</svg>
