<svg width="120" height="120" viewBox="0 0 120 120" fill="none" xmlns="http://www.w3.org/2000/svg">
<circle cx="60" cy="60" r="60" fill="#4747D6" fill-opacity="0.1"/>
<path d="M42.8548 46.1525C34.4923 46.1525 27.6875 52.957 27.6875 61.3195C27.6875 69.6821 34.4923 76.4912 42.8548 76.4912C50.1233 76.4912 56.2185 71.3482 57.6888 64.5111C58.5155 63.4205 60.3106 63.3274 61.2007 64.4769C62.6572 71.3313 68.7585 76.4911 76.0392 76.4911C84.4016 76.4911 91.2106 69.6821 91.2106 61.3194C91.2106 52.9571 84.4017 46.1523 76.0393 46.1523C69.2257 46.1523 63.4457 50.6709 61.5385 56.8675C60.879 56.5609 60.1571 56.4091 59.4365 56.4146C58.7239 56.4201 58.0123 56.5762 57.3644 56.8804C55.4599 50.6771 49.6732 46.1523 42.8549 46.1523L42.8548 46.1525ZM42.8548 48.7072C49.8363 48.7072 55.4712 54.338 55.4712 61.3195C55.4712 63.8953 54.705 66.2855 53.3862 68.2793C48.822 63.1338 37.2597 62.3619 32.7166 68.8348C31.1618 66.737 30.2428 64.1391 30.2428 61.3194C30.2428 59.5221 30.616 57.8149 31.2895 56.2695C32.1235 57.135 33.5678 57.7092 35.2117 57.7092C37.795 57.7092 39.8899 56.2955 39.8899 54.5518C39.8899 52.8084 37.795 51.3944 35.2114 51.3944C35.1581 51.3944 35.1064 51.3976 35.0535 51.3988C37.1983 49.7114 39.9056 48.7071 42.8552 48.7071L42.8548 48.7072ZM76.0392 48.7072C83.0206 48.7072 88.6556 54.338 88.6556 61.3195C88.6556 63.8953 87.8893 66.2855 86.5706 68.2793C82.0052 63.1351 70.4433 62.3621 65.9004 68.8348C64.3456 66.737 63.4266 64.1391 63.4266 61.3194C63.4266 59.5221 63.7998 57.8149 64.4735 56.2695C65.3074 57.135 66.7516 57.7092 68.3954 57.7092C70.9788 57.7092 73.0739 56.2955 73.0739 54.5518C73.0739 52.8084 70.9788 51.3944 68.3954 51.3944C68.342 51.3944 68.2901 51.3976 68.2373 51.3988C70.382 49.7114 73.0892 48.7071 76.0389 48.7071L76.0392 48.7072ZM59.432 58.944C59.9898 58.9331 60.5503 59.1218 60.9785 59.5251C60.9088 60.1146 60.8719 60.7118 60.8719 61.3197V61.3238C60.4057 61.1874 59.9221 61.1198 59.4363 61.1232C58.9595 61.1266 58.4834 61.203 58.0262 61.3408V61.3195C58.0262 60.719 57.9879 60.129 57.9196 59.5463C58.3278 59.1632 58.8782 58.955 59.432 58.944Z" fill="#4747D6"/>
</svg>
