<svg width="120" height="120" viewBox="0 0 120 120" fill="none" xmlns="http://www.w3.org/2000/svg">
<circle cx="60" cy="60" r="60" fill="#4747D6" fill-opacity="0.1"/>
<path d="M88.2904 46.291C87.1237 45.1243 85.3737 45.1243 84.207 46.291L65.832 64.666L53.2904 52.1243C52.707 51.541 52.1237 51.2493 51.2487 51.2493C50.3737 51.2493 49.7904 51.541 49.207 52.1243L31.707 69.6243C31.1237 70.2077 30.832 70.791 30.832 71.666C30.832 73.416 31.9987 74.5827 33.7487 74.5827C34.6237 74.5827 35.207 74.291 35.7904 73.7077L51.2487 58.2493L63.7904 70.791C64.082 71.0827 64.3737 71.3743 64.6654 71.3743C64.957 71.666 65.5404 71.666 65.832 71.666C66.4154 71.666 67.2904 71.3743 67.582 70.791H67.8737L88.2904 50.3743C89.457 49.2077 89.457 47.4577 88.2904 46.291Z" fill="#4747D6"/>
</svg>
