<svg width="120" height="120" viewBox="0 0 120 120" fill="none" xmlns="http://www.w3.org/2000/svg">
<circle cx="60" cy="60" r="60" fill="#4747D6" fill-opacity="0.1"/>
<mask id="path-2-outside-1_6746_3639" maskUnits="userSpaceOnUse" x="52.668" y="36.4414" width="31" height="34" fill="black">
<rect fill="white" x="52.668" y="36.4414" width="31" height="34"/>
<path fill-rule="evenodd" clip-rule="evenodd" d="M56.668 63.3339C59.9013 67.8906 66.7046 67.0906 70.038 63.3339L76.668 56.6672C80.4146 52.5739 80.548 47.2872 76.668 43.3339C72.8813 39.4772 67.1213 39.4772 63.3346 43.3339L56.668 50.0006"/>
</mask>
<path d="M59.5224 61.3085C58.4038 59.732 56.219 59.3609 54.6425 60.4795C53.0661 61.5981 52.6949 63.7829 53.8136 65.3593L59.5224 61.3085ZM70.038 63.3339L67.5563 60.8659C67.5095 60.9129 67.464 60.9613 67.42 61.0109L70.038 63.3339ZM76.668 56.6672L79.1497 59.1353C79.1837 59.101 79.2171 59.066 79.2498 59.0304L76.668 56.6672ZM76.668 43.3339L79.1659 40.8823L79.1654 40.8818L76.668 43.3339ZM63.3346 43.3339L65.8095 45.8088C65.8171 45.8012 65.8246 45.7936 65.8321 45.786L63.3346 43.3339ZM54.1931 47.5257C52.8263 48.8925 52.8263 51.1086 54.1931 52.4754C55.5599 53.8423 57.776 53.8423 59.1428 52.4754L54.1931 47.5257ZM53.8136 65.3593C56.2332 68.7693 59.9699 70.0868 63.4542 69.9487C66.8695 69.8132 70.3195 68.2901 72.6559 65.6569L67.42 61.0109C66.4231 62.1344 64.8048 62.8896 63.1768 62.9542C61.6177 63.016 60.3361 62.4552 59.5224 61.3085L53.8136 65.3593ZM72.5197 65.8019L79.1497 59.1353L74.1863 54.1992L67.5563 60.8659L72.5197 65.8019ZM79.2498 59.0304C81.6186 56.4424 83.0041 53.2905 83.0279 49.9731C83.0518 46.6321 81.6899 43.454 79.1659 40.8823L74.17 45.7855C75.526 47.1671 76.0375 48.609 76.0281 49.923C76.0185 51.2607 75.464 52.7988 74.0862 54.3041L79.2498 59.0304ZM79.1654 40.8818C74.0069 35.6279 65.9957 35.6279 60.8372 40.8818L65.8321 45.786C68.2469 43.3265 71.7557 43.3265 74.1705 45.786L79.1654 40.8818ZM60.8598 40.859L54.1931 47.5257L59.1428 52.4754L65.8095 45.8088L60.8598 40.859Z" fill="#4747D6" mask="url(#path-2-outside-1_6746_3639)"/>
<mask id="path-4-outside-2_6746_3639" maskUnits="userSpaceOnUse" x="36.4727" y="52.998" width="31" height="34" fill="black">
<rect fill="white" x="36.4727" y="52.998" width="31" height="34"/>
<path fill-rule="evenodd" clip-rule="evenodd" d="M63.3329 60.2335C60.0995 55.6768 53.3329 56.2435 49.9995 60.0001L43.3329 66.5835C39.5862 70.6768 39.4529 76.0468 43.3329 80.0001C47.1195 83.8568 52.8795 83.8568 56.6662 80.0001L63.3329 73.3335"/>
</mask>
<path d="M60.4785 62.2589C61.5971 63.8353 63.7819 64.2065 65.3583 63.0879C66.9348 61.9692 67.3059 59.7845 66.1873 58.208L60.4785 62.2589ZM49.9995 60.0001L52.4588 62.4905C52.5135 62.4365 52.5665 62.3806 52.6175 62.3231L49.9995 60.0001ZM43.3329 66.5835L40.8736 64.0931C40.8317 64.1345 40.7909 64.1769 40.7511 64.2203L43.3329 66.5835ZM43.3329 80.0001L40.8349 82.4517L40.8354 82.4522L43.3329 80.0001ZM56.6662 80.0001L54.1913 77.5253C54.1838 77.5328 54.1763 77.5404 54.1688 77.548L56.6662 80.0001ZM65.8077 75.8083C67.1746 74.4415 67.1746 72.2254 65.8077 70.8586C64.4409 69.4918 62.2248 69.4918 60.858 70.8586L65.8077 75.8083ZM66.1873 58.208C63.8006 54.8445 60.1249 53.4421 56.6457 53.4998C53.2274 53.5565 49.747 55.0113 47.3816 57.6772L52.6175 62.3231C53.5854 61.2323 55.155 60.5255 56.7617 60.4988C58.3076 60.4732 59.6319 61.0658 60.4785 62.2589L66.1873 58.208ZM47.5403 57.5097L40.8736 64.0931L45.7921 69.0739L52.4588 62.4905L47.5403 57.5097ZM40.7511 64.2203C38.3735 66.8179 36.9966 69.9926 36.973 73.3195C36.9492 76.6689 38.3016 79.8705 40.8349 82.4517L45.8308 77.5485C44.4841 76.1764 43.9632 74.7164 43.9728 73.3691C43.9825 71.9994 44.5456 70.4423 45.9147 68.9466L40.7511 64.2203ZM40.8354 82.4522C45.9939 87.7061 54.0051 87.7061 59.1636 82.4522L54.1688 77.548C51.7539 80.0075 48.2451 80.0075 45.8303 77.548L40.8354 82.4522ZM59.1411 82.475L65.8077 75.8083L60.858 70.8586L54.1913 77.5253L59.1411 82.475Z" fill="#4747D6" mask="url(#path-4-outside-2_6746_3639)"/>
</svg>
