<svg width="120" height="120" viewBox="0 0 120 120" fill="none" xmlns="http://www.w3.org/2000/svg">
<circle cx="60" cy="60" r="60" fill="#4747D6" fill-opacity="0.1"/>
<path d="M70.2096 76.2036L63.2832 69.2771C62.8952 68.8891 62.429 68.664 61.8971 68.664C61.3652 68.664 60.8991 68.8891 60.5111 69.2771C60.1127 69.6755 59.9005 70.1615 59.9277 70.7141C59.9277 70.714 59.9277 70.7139 59.9277 70.7138L70.2096 76.2036ZM41.3784 83.8332H41.3785L55.6263 83.8303C55.6263 83.8303 55.6264 83.8303 55.6264 83.8303C56.1653 83.8303 56.641 83.644 57.0182 83.2668C57.3962 82.8888 57.5846 82.4136 57.5846 81.8749L57.5846 81.8725C57.5821 81.3356 57.3944 80.8618 57.0194 80.4842C56.6424 80.1046 56.1663 79.9165 55.6263 79.9165H41.3784C41.0876 79.9165 40.798 79.8009 40.4984 79.5032C40.2004 79.2034 40.0846 78.9137 40.0846 78.6228V41.377C40.0846 41.0861 40.2004 40.7965 40.4982 40.4967C40.7979 40.1989 41.0876 40.0832 41.3784 40.0832H47.8346V43.7336C47.8346 44.5251 48.1053 45.2134 48.6496 45.7649L48.6504 45.7656C49.1957 46.3157 49.8796 46.5903 50.668 46.5903H69.3346C70.123 46.5903 70.8069 46.3157 71.3522 45.7656L71.353 45.7649C71.8973 45.2134 72.168 44.5251 72.168 43.7336V40.0832H78.6242C78.9151 40.0832 79.2048 40.199 79.5046 40.497C79.8023 40.7966 79.918 41.0862 79.918 41.377V52.7082C79.918 53.2471 80.1043 53.7229 80.4815 54.1001C80.8595 54.4781 81.3346 54.6665 81.8734 54.6665C82.4131 54.6665 82.8892 54.4788 83.2676 54.1007C83.6468 53.7238 83.8346 53.2479 83.8346 52.7082V41.377C83.8346 39.9484 83.3195 38.7133 82.3031 37.6988C81.2883 36.6818 80.0519 36.1665 78.6213 36.1665H65.4985C65.1634 35.084 64.5366 34.1624 63.6289 33.4095C62.6013 32.5531 61.384 32.127 60.0013 32.127C58.6399 32.127 57.4328 32.5534 56.4016 33.4052C55.4882 34.1598 54.8576 35.0827 54.5217 36.1665H41.3784C39.9496 36.1665 38.7144 36.6818 37.6998 37.6984C36.6833 38.713 36.168 39.9482 36.168 41.377V78.6228C36.168 80.0515 36.6833 81.2867 37.6998 82.3013C38.7144 83.3179 39.9496 83.8332 41.3784 83.8332ZM58.6713 36.5774L58.6721 36.5766C59.02 36.2226 59.4481 36.0436 59.9926 36.0436C60.5371 36.0436 60.9709 36.2204 61.3274 36.5705C61.6795 36.9183 61.858 37.3465 61.858 37.8915C61.858 38.436 61.6813 38.8697 61.3313 39.2261C60.9838 39.5763 60.5554 39.754 60.0101 39.754C59.4636 39.754 59.0316 39.579 58.6784 39.2303L58.6776 39.2295C58.3236 38.8816 58.1446 38.4535 58.1446 37.909C58.1446 37.3642 58.3215 36.9317 58.6713 36.5774Z" fill="#4747D6" stroke="#4747D6"/>
</svg>
