<svg width="120" height="120" viewBox="0 0 120 120" fill="none" xmlns="http://www.w3.org/2000/svg">
<circle cx="60" cy="60" r="60" fill="#4747D6" fill-opacity="0.1"/>
<path d="M39.5846 83.3333C41.1955 83.3333 42.5013 82.0275 42.5013 80.4167C42.5013 78.8058 41.1955 77.5 39.5846 77.5C37.9738 77.5 36.668 78.8058 36.668 80.4167C36.668 82.0275 37.9738 83.3333 39.5846 83.3333Z" fill="#4747D6"/>
<path d="M36.668 36.666H42.5013V62.916H36.668V36.666Z" fill="#4747D6"/>
<path d="M45.4154 30.834H33.7487C32.9751 30.834 32.2333 31.1413 31.6863 31.6883C31.1393 32.2352 30.832 32.9771 30.832 33.7507V86.2506C30.832 87.0242 31.1393 87.7661 31.6863 88.313C32.2333 88.86 32.9751 89.1673 33.7487 89.1673H45.4154C46.1889 89.1673 46.9308 88.86 47.4778 88.313C48.0247 87.7661 48.332 87.0242 48.332 86.2506V33.7507C48.332 32.9771 48.0247 32.2352 47.4778 31.6883C46.9308 31.1413 46.1889 30.834 45.4154 30.834ZM45.4154 86.2506H33.7487V33.7507H45.4154V86.2506ZM65.832 33.7507V54.1673H57.082V33.7507H65.832ZM68.7487 30.834H54.1654V57.084H68.7487V30.834ZM86.2487 33.7507V54.1673H77.4987V33.7507H86.2487ZM89.1654 30.834H74.582V57.084H89.1654V30.834ZM65.832 65.834V86.2506H57.082V65.834H65.832ZM68.7487 62.9173H54.1654V89.1673H68.7487V62.9173ZM86.2487 65.834V86.2506H77.4987V65.834H86.2487ZM89.1654 62.9173H74.582V89.1673H89.1654V62.9173Z" fill="#4747D6"/>
</svg>
