<svg width="120" height="120" viewBox="0 0 120 120" fill="none" xmlns="http://www.w3.org/2000/svg">
<circle cx="60" cy="60" r="60" fill="#4747D6" fill-opacity="0.1"/>
<path d="M68.7513 43.0007H69.2513V42.5007V39.584C69.2513 37.1307 68.2768 34.778 66.542 33.0432C64.8073 31.3085 62.4546 30.334 60.0013 30.334H36.668C34.2147 30.334 31.8619 31.3085 30.1272 33.0432C28.3925 34.778 27.418 37.1307 27.418 39.584V62.9173C27.418 65.3706 28.3925 67.7233 30.1272 69.4581C31.8619 71.1928 34.2147 72.1673 36.668 72.1673H39.5846H40.0846V71.6673V68.7507V68.2507H39.5846H36.668C35.2535 68.2507 33.8969 67.6887 32.8967 66.6886C31.8965 65.6884 31.3346 64.3318 31.3346 62.9173V39.584C31.3346 38.1695 31.8965 36.8129 32.8967 35.8127C33.8969 34.8126 35.2535 34.2507 36.668 34.2507H60.0013C61.4158 34.2507 62.7723 34.8126 63.7725 35.8127C64.7727 36.8129 65.3346 38.1695 65.3346 39.584V42.5007V43.0007H65.8346H68.7513ZM77.5013 47.834H54.168C51.7147 47.834 49.3619 48.8085 47.6272 50.5432C45.8925 52.278 44.918 54.6307 44.918 57.084V80.4173C44.918 82.8706 45.8925 85.2233 47.6272 86.9581C49.3619 88.6928 51.7147 89.6673 54.168 89.6673H77.5013C79.9546 89.6673 82.3073 88.6928 84.042 86.9581C85.7768 85.2233 86.7513 82.8706 86.7513 80.4173V57.084C86.7513 54.6307 85.7768 52.278 84.042 50.5432C82.3073 48.8085 79.9546 47.834 77.5013 47.834ZM50.3967 53.3127C51.3969 52.3126 52.7535 51.7507 54.168 51.7507H77.5013C78.9158 51.7507 80.2723 52.3126 81.2725 53.3127C82.2727 54.3129 82.8346 55.6695 82.8346 57.084V80.4173C82.8346 81.8318 82.2727 83.1884 81.2725 84.1886C80.2723 85.1888 78.9158 85.7507 77.5013 85.7507H54.168C52.7535 85.7507 51.3969 85.1888 50.3967 84.1886C49.3965 83.1884 48.8346 81.8318 48.8346 80.4173V57.084C48.8346 55.6695 49.3965 54.3129 50.3967 53.3127Z" fill="#4747D6" stroke="#4747D6"/>
</svg>
