<svg width="120" height="120" viewBox="0 0 120 120" fill="none" xmlns="http://www.w3.org/2000/svg">
<circle cx="60" cy="60" r="60" fill="#4747D6" fill-opacity="0.1"/>
<path d="M59.6492 67.316H59.8023C63.0836 67.4035 65.7086 70.0723 65.7086 73.3535C65.7086 76.1535 63.8055 78.4941 61.2242 79.1941V81.6441C61.2242 82.5191 60.5242 83.2191 59.6492 83.2191C58.7742 83.2191 58.0742 82.5191 58.0742 81.6441V79.1941C56.7889 78.8485 55.6532 78.0892 54.8426 77.0335C54.0321 75.9778 53.5918 74.6845 53.5898 73.3535C53.5898 72.4785 54.2898 71.7785 55.1648 71.7785C56.0398 71.7785 56.7398 72.4785 56.7398 73.3535C56.7398 74.9723 58.0305 76.2629 59.6273 76.2629C61.2242 76.2629 62.5367 74.9504 62.5367 73.3535C62.5367 71.7566 61.2242 70.4441 59.6273 70.4441H59.4742C57.9006 70.4014 56.4056 69.7469 55.3068 68.6195C54.208 67.4922 53.5921 65.9809 53.5898 64.4066C53.5898 61.6066 55.493 59.266 58.0742 58.566V56.116C58.0742 55.241 58.7742 54.541 59.6492 54.541C60.5242 54.541 61.2242 55.241 61.2242 56.116V58.566C63.8055 59.266 65.7086 61.6066 65.7086 64.4066C65.7086 65.2816 65.0086 65.9816 64.1336 65.9816C63.2586 65.9816 62.5586 65.2816 62.5586 64.4066C62.5586 62.8098 61.2461 61.4973 59.6492 61.4973C58.0523 61.4973 56.7398 62.8098 56.7398 64.4066C56.7398 66.0035 58.0523 67.316 59.6492 67.316Z" fill="#4747D6"/>
<path d="M48.0387 36.1559L54.1331 43.2872L53.4747 44.0222C40.9316 46.8353 31.5625 58.0375 31.5625 71.4294C31.5625 83.2025 41.1175 92.7575 52.8906 92.7575H66.3875C78.1606 92.7575 87.7156 83.2047 87.7156 71.4315C87.7375 58.0375 78.3684 46.8353 65.8253 44.0222C65.8763 43.5599 65.7928 43.0928 65.5847 42.6769L70.7691 36.7422L71.1038 36.2259C71.4946 35.3735 71.5945 34.4163 71.3883 33.5016C71.182 32.5868 70.681 31.7651 69.9622 31.1629C69.2434 30.5607 68.3467 30.2113 67.4099 30.1684C66.4732 30.1255 65.5483 30.3916 64.7775 30.9256L62.9334 28.7381C62.5198 28.2752 62.0132 27.9046 61.4468 27.6506C60.8803 27.3965 60.2667 27.2647 59.6459 27.2637C59.0251 27.2626 58.411 27.3924 57.8437 27.6446C57.2764 27.8968 56.7686 28.2656 56.3534 28.7272L54.4219 30.884C53.6531 30.3389 52.7261 30.0622 51.7842 30.0969C50.8424 30.1315 49.9382 30.4755 49.2115 31.0757C48.4849 31.6759 47.9762 32.4987 47.7642 33.4171C47.5522 34.3354 47.6487 35.298 48.0387 36.1559ZM56.3491 39.1856L52.6391 34.8981C53.501 35.3134 54.4762 35.4314 55.4123 35.2335C56.3484 35.0356 57.1924 34.533 57.8125 33.8044L59.5625 31.5337L61.505 33.835C62.1107 34.5393 62.9277 35.0291 63.8343 35.2313C64.741 35.4335 65.6887 35.3374 66.5363 34.9572L62.8437 39.1856H56.3491ZM35.9375 71.4294C35.9375 58.3306 46.5513 47.7169 59.65 47.7169C72.7487 47.7169 83.3625 58.3306 83.3406 71.425V71.4294C83.3389 75.9251 81.5522 80.2362 78.3732 83.4151C75.1943 86.5941 70.8832 88.3807 66.3875 88.3825H52.8906C48.3949 88.3807 44.0838 86.5941 40.9049 83.4151C37.7259 80.2362 35.9392 75.9251 35.9375 71.4294Z" fill="#4747D6"/>
</svg>
