<svg width="120" height="120" viewBox="0 0 120 120" fill="none" xmlns="http://www.w3.org/2000/svg">
<circle cx="60" cy="60" r="60" fill="#4747D6" fill-opacity="0.1"/>
<path opacity="0.5" d="M38.7883 72.0657C34.2821 67.5565 32.0275 65.3048 31.1904 62.3794C30.3504 59.454 31.0679 56.3477 32.5029 50.1382L33.3283 46.5565C34.5329 41.3298 35.1366 38.7165 36.9246 36.9257C38.7154 35.1377 41.3287 34.534 46.5554 33.3294L50.1371 32.5011C56.3496 31.069 59.4529 30.3515 62.3783 31.1886C65.3037 32.0286 67.5554 34.2832 72.0616 38.7894L77.3991 44.1269C85.2479 51.9727 89.165 55.8927 89.165 60.7636C89.165 65.6373 85.245 69.5573 77.4021 77.4002C69.5562 85.2461 65.6362 89.1661 60.7625 89.1661C55.8916 89.1661 51.9687 85.2461 44.1258 77.4032L38.7883 72.0657Z" stroke="#4747D6" stroke-width="4"/>
<path d="M69.8839 69.888C71.5901 68.1759 71.8206 65.6384 70.3972 64.2122C68.9739 62.7889 66.4335 63.0193 64.7243 64.7284C63.0181 66.4376 60.4776 66.668 59.0543 65.2447C57.631 63.8214 57.8614 61.2809 59.5706 59.5747M59.5706 59.5747L58.5381 58.5422M59.5706 59.5747C60.536 58.6064 61.7668 58.1164 62.9131 58.1251M70.9135 70.9176L69.881 69.8851C68.7143 71.0547 67.1539 71.533 65.8297 71.2589" stroke="#4747D6" stroke-width="4" stroke-linecap="round"/>
<path d="M54.2259 55.0213C56.504 52.7432 56.504 49.0498 54.2259 46.7717C51.9479 44.4936 48.2544 44.4936 45.9764 46.7717C43.6983 49.0498 43.6983 52.7432 45.9764 55.0213C48.2544 57.2993 51.9479 57.2993 54.2259 55.0213Z" stroke="#4747D6" stroke-width="4"/>
</svg>
