<svg width="120" height="120" viewBox="0 0 120 120" fill="none" xmlns="http://www.w3.org/2000/svg">
<circle cx="60" cy="60" r="60" fill="#4747D6" fill-opacity="0.1"/>
<path d="M74.5833 81.8757C74.5833 77.0428 68.0529 73.1257 60 73.1257C51.9471 73.1257 45.4167 77.0428 45.4167 81.8757M86.25 73.1257C86.25 69.5382 82.6508 66.4553 77.5 65.1049M33.75 73.1257C33.75 69.5382 37.3492 66.4553 42.5 65.1049M77.5 53.3974C78.3641 52.6335 79.0686 51.7063 79.5731 50.6691C80.0776 49.6319 80.3721 48.5053 80.4396 47.3539C80.5071 46.2025 80.3463 45.0492 79.9665 43.9602C79.5866 42.8712 78.9953 41.868 78.2263 41.0084C77.4574 40.1487 76.5262 39.4496 75.4861 38.9511C74.446 38.4527 73.3177 38.1648 72.1659 38.104C71.0142 38.0432 69.8618 38.2106 68.775 38.5968C67.6882 38.9829 66.6885 39.5801 65.8333 40.354M42.5 53.3974C40.7859 51.8461 39.7553 49.6796 39.6334 47.3709C39.5115 45.0623 40.3082 42.7993 41.8495 41.0762C43.3907 39.3531 45.5512 38.3099 47.8591 38.1746C50.167 38.0393 52.4346 38.8228 54.1667 40.354M60 64.3757C57.6794 64.3757 55.4538 63.4538 53.8128 61.8129C52.1719 60.1719 51.25 57.9463 51.25 55.6257C51.25 53.3051 52.1719 51.0795 53.8128 49.4385C55.4538 47.7976 57.6794 46.8757 60 46.8757C62.3206 46.8757 64.5462 47.7976 66.1872 49.4385C67.8281 51.0795 68.75 53.3051 68.75 55.6257C68.75 57.9463 67.8281 60.1719 66.1872 61.8129C64.5462 63.4538 62.3206 64.3757 60 64.3757Z" stroke="#4747D6" stroke-width="3.5" stroke-linecap="round" stroke-linejoin="round"/>
</svg>
