<svg width="170" height="50" viewBox="0 0 170 50" fill="none" xmlns="http://www.w3.org/2000/svg">
<g clip-path="url(#clip0_6401_2767)">
<path d="M156.292 0.0001625H14.2157C13.6978 0.0001625 13.1861 0.0001625 12.6696 0.0026625C12.2373 0.0051625 11.8083 0.012425 11.3718 0.0185375C10.4235 0.0284148 9.47738 0.102258 8.54173 0.239425C7.60739 0.379578 6.70233 0.643807 5.85714 1.02318C5.01299 1.40575 4.24166 1.90287 3.57114 2.4965C2.8971 3.08846 2.33524 3.77268 1.90716 4.52286C1.47789 5.27155 1.18024 6.07384 1.02448 6.90201C0.867235 7.72914 0.782622 8.56581 0.771396 9.40451C0.75829 9.78776 0.756906 10.1723 0.75 10.5556V39.4484C0.756906 39.8365 0.75829 40.2125 0.771396 40.6008C0.782625 41.4394 0.867239 42.2761 1.02448 43.1032C1.17981 43.9318 1.47748 44.7346 1.90716 45.4835C2.33505 46.2313 2.89699 46.9127 3.57114 47.5014C4.23912 48.0977 5.01094 48.5951 5.85714 48.9748C6.70232 49.3552 7.60729 49.621 8.54173 49.7633C9.47754 49.8994 10.4235 49.9732 11.3718 49.9843C11.8083 49.9928 12.2373 49.9977 12.6696 49.9977C13.1861 50.0002 13.6978 50.0002 14.2157 50.0002H156.292C156.799 50.0002 157.315 50.0002 157.823 49.9977C158.253 49.9977 158.694 49.9928 159.125 49.9843C160.071 49.9738 161.016 49.8999 161.949 49.7633C162.887 49.62 163.795 49.3542 164.644 48.9748C165.49 48.5949 166.261 48.0975 166.928 47.5014C167.601 46.9104 168.164 46.2295 168.597 45.4835C169.023 44.734 169.318 43.9313 169.471 43.1032C169.629 42.276 169.716 41.4395 169.733 40.6008C169.739 40.2125 169.739 39.8365 169.739 39.4484C169.75 38.9943 169.75 38.5427 169.75 38.0812V11.9203C169.75 11.4626 169.75 11.0085 169.739 10.5556C169.739 10.1723 169.739 9.78776 169.733 9.40446C169.716 8.56569 169.629 7.72921 169.471 6.90196C169.318 6.07426 169.023 5.27204 168.597 4.52281C167.725 3.01916 166.343 1.79519 164.644 1.02306C163.795 0.644622 162.887 0.380463 161.949 0.239312C161.016 0.101541 160.071 0.0276722 159.125 0.0183625C158.694 0.0122625 158.253 0.0049375 157.823 0.0025C157.315 0 156.799 0 156.292 0V0.0001625Z" fill="#A6A6A6"/>
<path d="M12.6741 48.9063C12.2438 48.9063 11.8239 48.9014 11.3969 48.8929C10.5125 48.8827 9.6302 48.8145 8.75717 48.689C7.94312 48.5649 7.15451 48.3341 6.41738 48.0041C5.687 47.6769 5.02084 47.2478 4.44442 46.7334C3.85964 46.225 3.3728 45.6353 3.00316 44.9878C2.62946 44.336 2.37083 43.6374 2.23629 42.9163C2.091 42.1414 2.01239 41.3579 2.00114 40.5725C1.99219 40.3089 1.98047 39.4311 1.98047 39.4311V10.5554C1.98047 10.5554 1.99295 9.69116 2.00122 9.43725C2.01199 8.6531 2.09014 7.87082 2.23499 7.09716C2.36978 6.37406 2.62861 5.67344 3.00251 5.01954C3.37079 4.37243 3.85493 3.78233 4.43618 3.2721C5.01678 2.75703 5.68507 2.32576 6.41669 1.99401C7.15213 1.66512 7.93924 1.43592 8.75165 1.31409C9.62755 1.1873 10.5129 1.11875 11.4004 1.10901L12.6747 1.09375H157.813L159.103 1.10963C159.982 1.11887 160.86 1.18681 161.728 1.31286C162.548 1.43622 163.344 1.66702 164.087 1.99768C165.553 2.66623 166.746 3.72395 167.498 5.02259C167.866 5.67197 168.121 6.36688 168.254 7.08374C168.4 7.86374 168.483 8.65217 168.499 9.44275C168.503 9.79675 168.503 10.177 168.503 10.5554C168.515 11.0242 168.515 11.4703 168.515 11.9202V38.081C168.515 38.5351 168.515 38.9783 168.503 39.425C168.503 39.8315 168.503 40.2039 168.498 40.5871C168.481 41.3636 168.401 42.138 168.257 42.904C168.125 43.6303 167.868 44.3344 167.494 44.9915C167.122 45.632 166.638 46.2166 166.06 46.7236C165.483 47.2409 164.815 47.6724 164.083 48.0018C163.341 48.3342 162.547 48.5659 161.728 48.689C160.855 48.8152 159.972 48.8834 159.088 48.8929C158.674 48.9014 158.241 48.9063 157.82 48.9063L156.289 48.9088L12.6741 48.9063Z" fill="#333333"/>
<path d="M35.7301 25.3764C35.7453 24.3331 36.0584 23.3101 36.6403 22.4026C37.2222 21.4952 38.054 20.7328 39.0582 20.1863C38.4202 19.3799 37.5786 18.7162 36.6001 18.248C35.6217 17.7798 34.5333 17.52 33.4216 17.4892C31.05 17.2689 28.7509 18.7453 27.5424 18.7453C26.3105 18.7453 24.4498 17.5111 22.4461 17.5476C21.1501 17.5846 19.887 17.9182 18.78 18.5158C17.6729 19.1133 16.7596 19.9545 16.1291 20.9574C13.3977 25.1429 15.4351 31.2942 18.0515 34.6775C19.3605 36.3342 20.8904 38.1848 22.8923 38.1191C24.8512 38.0472 25.5828 37.0135 27.9474 37.0135C30.2901 37.0135 30.9765 38.1191 33.0189 38.0774C35.121 38.0472 36.4453 36.4134 37.7084 34.741C38.649 33.5605 39.3727 32.2559 39.8529 30.8754C38.6317 30.4182 37.5895 29.653 36.8564 28.6751C36.1232 27.6972 35.7315 26.55 35.7301 25.3764Z" fill="white"/>
<path d="M31.8702 15.2637C33.0163 14.0459 33.581 12.4807 33.4442 10.9004C31.6932 11.0632 30.0758 11.8039 28.9142 12.9749C28.3463 13.547 27.9113 14.2125 27.6342 14.9335C27.357 15.6545 27.2431 16.4167 27.299 17.1766C28.1748 17.1846 29.0412 17.0166 29.8331 16.6852C30.6249 16.3539 31.3214 15.8678 31.8702 15.2637Z" fill="white"/>
<path d="M60.4929 33.9246H53.8079L52.2026 38.1202H49.3711L55.7029 22.5977H58.6447L64.9766 38.1202H62.0968L60.4929 33.9246ZM54.5003 31.9886H59.7992L57.187 25.1795H57.1139L54.5003 31.9886Z" fill="white"/>
<path d="M78.6499 32.4613C78.6499 35.9782 76.5232 38.2377 73.3139 38.2377C72.5009 38.2753 71.6924 38.1096 70.9809 37.7594C70.2694 37.4092 69.6836 36.8888 69.2908 36.2577H69.2301V41.8632H66.6055V26.8021H69.146V28.6845H69.1942C69.6052 28.0564 70.2008 27.5386 70.9177 27.1863C71.6346 26.834 72.446 26.6603 73.2656 26.6837C76.5108 26.6837 78.6499 28.9542 78.6499 32.4613ZM75.9523 32.4613C75.9523 30.1701 74.6144 28.6637 72.5732 28.6637C70.5679 28.6637 69.2191 30.2018 69.2191 32.4613C69.2191 34.7416 70.5679 36.2687 72.5732 36.2687C74.6144 36.2687 75.9523 34.7733 75.9523 32.4613Z" fill="white"/>
<path d="M92.7242 32.4613C92.7242 35.9782 90.5975 38.2377 87.3881 38.2377C86.5751 38.2753 85.7666 38.1096 85.0551 37.7594C84.3436 37.4092 83.7579 36.8888 83.365 36.2577H83.3043V41.8631H80.6797V26.8021H83.2201V28.6845H83.2684C83.6793 28.0564 84.2749 27.5386 84.9918 27.1863C85.7088 26.834 86.5202 26.6603 87.3398 26.6837C90.585 26.6837 92.7242 28.9542 92.7242 32.4613ZM90.0265 32.4613C90.0265 30.1701 88.6887 28.6637 86.6475 28.6637C84.6421 28.6637 83.2933 30.2018 83.2933 32.4613C83.2933 34.7416 84.6421 36.2687 86.6475 36.2687C88.6887 36.2687 90.0265 34.7733 90.0265 32.4613H90.0265Z" fill="white"/>
<path d="M102.023 33.7943C102.217 35.3336 103.907 36.3443 106.215 36.3443C108.428 36.3443 110.019 35.3335 110.019 33.9456C110.019 32.7407 109.059 32.0193 106.786 31.5249L104.513 31.0403C101.293 30.3518 99.798 29.0188 99.798 26.8557C99.798 24.1775 102.435 22.3379 106.18 22.3379C109.885 22.3379 112.426 24.1775 112.511 26.8557H109.862C109.703 25.3066 108.257 24.3716 106.142 24.3716C104.028 24.3716 102.581 25.3176 102.581 26.6946C102.581 27.792 103.505 28.4378 105.766 28.9321L107.698 29.352C111.296 30.1052 112.791 31.3845 112.791 33.655C112.791 36.559 110.178 38.3779 106.021 38.3779C102.132 38.3779 99.5056 36.6018 99.3359 33.7941L102.023 33.7943Z" fill="white"/>
<path d="M118.457 24.123V26.8013H120.889V28.6409H118.457V34.8799C118.457 35.8491 118.944 36.3008 120.013 36.3008C120.301 36.2963 120.59 36.2784 120.876 36.247V38.0756C120.396 38.1551 119.907 38.1911 119.418 38.1831C116.83 38.1831 115.82 37.3225 115.82 35.1276V28.6409H113.961V26.8013H115.82V24.123H118.457Z" fill="white"/>
<path d="M122.297 32.4604C122.297 28.8997 124.666 26.6621 128.361 26.6621C132.068 26.6621 134.427 28.8996 134.427 32.4604C134.427 36.031 132.081 38.2588 128.361 38.2588C124.643 38.2588 122.297 36.031 122.297 32.4604ZM131.753 32.4604C131.753 30.0178 130.488 28.5762 128.361 28.5762C126.234 28.5762 124.971 30.0288 124.971 32.4604C124.971 34.9128 126.234 36.3435 128.361 36.3435C130.488 36.3435 131.753 34.9128 131.753 32.4604H131.753Z" fill="white"/>
<path d="M136.594 26.802H139.097V28.7283H139.158C139.327 28.1267 139.725 27.595 140.285 27.2227C140.845 26.8503 141.533 26.66 142.233 26.6836C142.536 26.6827 142.837 26.7117 143.133 26.7703V28.9431C142.751 28.8399 142.352 28.7924 141.953 28.8028C141.572 28.7891 141.192 28.8486 140.839 28.9772C140.486 29.1058 140.169 29.3005 139.909 29.5478C139.649 29.7952 139.453 30.0894 139.334 30.4102C139.215 30.7311 139.175 31.0709 139.218 31.4065V38.1192H136.594L136.594 26.802Z" fill="white"/>
<path d="M155.233 34.7944C154.88 36.8489 152.62 38.2588 149.728 38.2588C146.008 38.2588 143.699 36.053 143.699 32.5142C143.699 28.9644 146.02 26.6621 149.617 26.6621C153.155 26.6621 155.38 28.813 155.38 32.2444V33.0403H146.349V33.1807C146.307 33.5972 146.366 34.0167 146.521 34.4115C146.677 34.8063 146.926 35.1673 147.251 35.4705C147.576 35.7737 147.971 36.0121 148.408 36.17C148.846 36.3279 149.316 36.4016 149.788 36.3862C150.409 36.4377 151.031 36.3105 151.563 36.0237C152.095 35.7369 152.508 35.3058 152.741 34.7944L155.233 34.7944ZM146.361 31.4167H152.754C152.777 31.0423 152.713 30.6675 152.565 30.316C152.417 29.9645 152.189 29.6438 151.894 29.3741C151.6 29.1044 151.246 28.8915 150.854 28.7487C150.462 28.6059 150.041 28.5364 149.617 28.5444C149.19 28.5422 148.766 28.6149 148.371 28.7583C147.975 28.9017 147.616 29.113 147.313 29.3801C147.01 29.6471 146.77 29.9646 146.607 30.3142C146.443 30.6637 146.36 31.0385 146.361 31.4168V31.4167Z" fill="white"/>
<path d="M54.1728 10.9147C54.723 10.8798 55.2752 10.9533 55.7894 11.1301C56.3036 11.3069 56.7671 11.5825 57.1464 11.9371C57.5258 12.2916 57.8114 12.7162 57.9829 13.1803C58.1544 13.6444 58.2073 14.1364 58.1379 14.6208C58.1379 17.0036 56.6829 18.3733 54.1728 18.3733H51.1289V10.9147H54.1728ZM52.4377 17.3185H54.0266C54.4198 17.3393 54.8132 17.2822 55.1784 17.1514C55.5435 17.0207 55.8711 16.8195 56.1373 16.5625C56.4035 16.3056 56.6016 15.9993 56.7172 15.666C56.8328 15.3328 56.863 14.9809 56.8056 14.636C56.8589 14.2924 56.8256 13.9427 56.7082 13.6119C56.5908 13.281 56.3922 12.9773 56.1266 12.7224C55.861 12.4675 55.535 12.2677 55.1719 12.1374C54.8089 12.0071 54.4177 11.9495 54.0266 11.9687H52.4377V17.3185Z" fill="white"/>
<path d="M59.6157 15.5552C59.5758 15.1853 59.6236 14.8121 59.7561 14.4595C59.8886 14.107 60.103 13.7828 60.3853 13.5078C60.6677 13.2328 61.0119 13.0131 61.3958 12.8628C61.7798 12.7124 62.195 12.6348 62.6148 12.6348C63.0346 12.6348 63.4498 12.7124 63.8338 12.8628C64.2177 13.0131 64.5619 13.2328 64.8443 13.5078C65.1266 13.7828 65.341 14.107 65.4735 14.4595C65.606 14.8121 65.6538 15.1853 65.6138 15.5552C65.6546 15.9255 65.6073 16.2992 65.4752 16.6524C65.343 17.0056 65.1288 17.3303 64.8463 17.6058C64.5639 17.8814 64.2194 18.1015 63.8351 18.2522C63.4508 18.4029 63.0351 18.4807 62.6148 18.4807C62.1945 18.4807 61.7788 18.4029 61.3945 18.2522C61.0101 18.1015 60.6657 17.8814 60.3833 17.6058C60.1008 17.3303 59.8866 17.0056 59.7544 16.6524C59.6222 16.2992 59.575 15.9255 59.6157 15.5552ZM64.3229 15.5552C64.3229 14.3352 63.7036 13.6217 62.6169 13.6217C61.5259 13.6217 60.9122 14.3352 60.9122 15.5553C60.9122 16.7851 61.526 17.4931 62.6169 17.4931C63.7037 17.4931 64.3229 16.7802 64.3229 15.5552H64.3229Z" fill="white"/>
<path d="M73.5904 18.3728H72.2884L70.9741 14.2273H70.8748L69.5659 18.3728H68.2764L66.5234 12.7441H67.7964L68.9356 17.0391H69.0294L70.3369 12.7441H71.5409L72.8484 17.0391H72.9477L74.0814 12.7441H75.3364L73.5904 18.3728Z" fill="white"/>
<path d="M76.8047 12.7431H78.0129V13.6373H78.1066C78.2657 13.3161 78.5341 13.0469 78.8743 12.8671C79.2144 12.6874 79.6095 12.606 80.0044 12.6344C80.3138 12.6139 80.6245 12.6552 80.9135 12.7553C81.2024 12.8554 81.4622 13.0118 81.6736 13.2128C81.885 13.4139 82.0426 13.6545 82.1347 13.9167C82.2268 14.179 82.251 14.4563 82.2056 14.7279V18.3717H80.9505V15.0069C80.9505 14.1024 80.5064 13.6525 79.5782 13.6525C79.3681 13.6439 79.1584 13.6755 78.9634 13.7453C78.7685 13.8151 78.5929 13.9214 78.4486 14.0568C78.3044 14.1923 78.195 14.3538 78.1278 14.5302C78.0607 14.7066 78.0375 14.8938 78.0597 15.0789V18.3718H76.8047L76.8047 12.7431Z" fill="white"/>
<path d="M84.207 10.5469H85.4621V18.3728H84.207V10.5469Z" fill="white"/>
<path d="M87.2095 15.5553C87.1695 15.1854 87.2174 14.8122 87.3499 14.4596C87.4825 14.107 87.6968 13.7828 87.9792 13.5078C88.2616 13.2328 88.6059 13.0131 88.9898 12.8628C89.3738 12.7124 89.789 12.6348 90.2089 12.6348C90.6287 12.6348 91.0439 12.7124 91.4279 12.8628C91.8118 13.0131 92.1561 13.2328 92.4385 13.5078C92.7209 13.7828 92.9352 14.107 93.0678 14.4596C93.2003 14.8122 93.2482 15.1854 93.2082 15.5553C93.2489 15.9256 93.2016 16.2994 93.0694 16.6525C92.9372 17.0057 92.723 17.3304 92.4405 17.606C92.158 17.8815 91.8135 18.1016 91.4292 18.2523C91.0449 18.4029 90.6292 18.4808 90.2089 18.4808C89.7885 18.4808 89.3728 18.4029 88.9885 18.2523C88.6042 18.1016 88.2597 17.8815 87.9772 17.606C87.6947 17.3304 87.4805 17.0057 87.3483 16.6525C87.2161 16.2994 87.1688 15.9256 87.2095 15.5553ZM91.9166 15.5553C91.9166 14.3353 91.2974 13.6218 90.2106 13.6218C89.1196 13.6218 88.5059 14.3353 88.5059 15.5554C88.5059 16.7852 89.1197 17.4932 90.2106 17.4932C91.2974 17.4932 91.9166 16.7803 91.9166 15.5553H91.9166Z" fill="white"/>
<path d="M94.5273 16.7803C94.5273 15.7671 95.3797 15.183 96.8926 15.1L98.6153 15.0121V14.5262C98.6153 13.9318 98.1712 13.5961 97.3133 13.5961C96.6127 13.5961 96.1272 13.8237 95.9879 14.2217H94.7728C94.9011 13.2549 95.9286 12.6348 97.3712 12.6348C98.9656 12.6348 99.8648 13.3373 99.8648 14.5262V18.3721H98.6566V17.5811H98.5573C98.3558 17.8648 98.0727 18.0961 97.7372 18.2514C97.4016 18.4066 97.0254 18.4803 96.6472 18.4648C96.3802 18.4894 96.1104 18.4642 95.8551 18.3908C95.5998 18.3174 95.3647 18.1975 95.165 18.0388C94.9653 17.8801 94.8053 17.6861 94.6955 17.4693C94.5857 17.2526 94.5284 17.0178 94.5273 16.7803ZM98.6153 16.2993V15.8287L97.0623 15.9166C96.1865 15.9685 95.7893 16.2322 95.7893 16.7284C95.7893 17.235 96.2858 17.5298 96.9685 17.5298C97.1686 17.5477 97.3707 17.5298 97.5627 17.4772C97.7548 17.4246 97.933 17.3383 98.0866 17.2235C98.2403 17.1087 98.3662 16.9677 98.457 16.809C98.5479 16.6502 98.6017 16.4769 98.6153 16.2993Z" fill="white"/>
<path d="M101.516 15.556C101.516 13.7775 102.549 12.6508 104.155 12.6508C104.553 12.6346 104.947 12.7188 105.293 12.8937C105.638 13.0686 105.92 13.3268 106.106 13.6383H106.199V10.5469H107.454V18.3728H106.252V17.4835H106.152C105.952 17.7929 105.661 18.0479 105.309 18.221C104.957 18.3941 104.558 18.4787 104.155 18.4656C102.538 18.4656 101.516 17.3389 101.516 15.556ZM102.812 15.556C102.812 16.7499 103.448 17.4683 104.511 17.4683C105.569 17.4683 106.223 16.7395 106.223 15.5609C106.223 14.3878 105.562 13.6487 104.511 13.6487C103.455 13.6487 102.812 14.372 102.812 15.556H102.812Z" fill="white"/>
<path d="M112.647 15.5552C112.607 15.1853 112.655 14.8121 112.787 14.4595C112.92 14.107 113.134 13.7828 113.417 13.5078C113.699 13.2328 114.043 13.0131 114.427 12.8628C114.811 12.7124 115.226 12.6348 115.646 12.6348C116.066 12.6348 116.481 12.7124 116.865 12.8628C117.249 13.0131 117.593 13.2328 117.875 13.5078C118.158 13.7828 118.372 14.107 118.505 14.4595C118.637 14.8121 118.685 15.1853 118.645 15.5552C118.686 15.9255 118.639 16.2992 118.506 16.6524C118.374 17.0056 118.16 17.3303 117.878 17.6058C117.595 17.8814 117.251 18.1015 116.866 18.2522C116.482 18.4029 116.066 18.4807 115.646 18.4807C115.226 18.4807 114.81 18.4029 114.426 18.2522C114.041 18.1015 113.697 17.8814 113.414 17.6058C113.132 17.3303 112.918 17.0056 112.786 16.6524C112.653 16.2992 112.606 15.9255 112.647 15.5552ZM117.354 15.5552C117.354 14.3352 116.735 13.6217 115.648 13.6217C114.557 13.6217 113.943 14.3352 113.943 15.5553C113.943 16.7851 114.557 17.4931 115.648 17.4931C116.735 17.4931 117.354 16.7802 117.354 15.5552Z" fill="white"/>
<path d="M120.332 12.7431H121.54V13.6373H121.634C121.793 13.3161 122.061 13.0469 122.402 12.8671C122.742 12.6874 123.137 12.606 123.532 12.6344C123.841 12.6139 124.152 12.6552 124.441 12.7553C124.73 12.8554 124.99 13.0118 125.201 13.2128C125.412 13.4139 125.57 13.6545 125.662 13.9167C125.754 14.179 125.778 14.4563 125.733 14.7279V18.3717H124.478V15.0069C124.478 14.1024 124.034 13.6525 123.106 13.6525C122.896 13.6439 122.686 13.6755 122.491 13.7453C122.296 13.8151 122.12 13.9214 121.976 14.0568C121.832 14.1923 121.722 14.3538 121.655 14.5302C121.588 14.7066 121.565 14.8938 121.587 15.0789V18.3718H120.332V12.7431Z" fill="white"/>
<path d="M132.821 11.3438V12.7707H134.199V13.7064H132.821V16.6007C132.821 17.1903 133.095 17.4485 133.72 17.4485C133.88 17.448 134.04 17.4395 134.199 17.4228V18.3481C133.973 18.3838 133.745 18.4028 133.516 18.4049C132.12 18.4049 131.564 17.9703 131.564 16.8851V13.7064H130.555V12.7707H131.564V11.3438H132.821Z" fill="white"/>
<path d="M135.914 10.5469H137.158V13.6487H137.257C137.424 13.3245 137.7 13.0538 138.047 12.8734C138.394 12.6929 138.795 12.6116 139.196 12.6404C139.504 12.6256 139.812 12.671 140.098 12.7736C140.383 12.8762 140.64 13.0332 140.849 13.2337C141.058 13.4341 141.215 13.6729 141.308 13.9331C141.401 14.1932 141.428 14.4683 141.387 14.7388V18.3728H140.13V15.0128C140.13 14.1138 139.657 13.6584 138.77 13.6584C138.555 13.6428 138.338 13.669 138.135 13.7353C137.932 13.8017 137.747 13.9064 137.595 14.0424C137.442 14.1783 137.325 14.3421 137.252 14.5222C137.178 14.7024 137.15 14.8946 137.169 15.0854V18.3728H135.914L135.914 10.5469Z" fill="white"/>
<path d="M148.705 16.8524C148.534 17.3668 148.165 17.8118 147.661 18.1095C147.157 18.4072 146.551 18.5386 145.949 18.4808C145.53 18.4906 145.114 18.4196 144.729 18.2726C144.344 18.1257 144 17.9065 143.72 17.63C143.441 17.3536 143.233 17.0267 143.11 16.6719C142.988 16.3171 142.954 15.943 143.011 15.5755C142.956 15.2069 142.99 14.832 143.112 14.4762C143.234 14.1203 143.441 13.7919 143.719 13.513C143.997 13.2342 144.34 13.0115 144.724 12.86C145.107 12.7085 145.523 12.6317 145.944 12.6349C147.713 12.6349 148.781 13.7049 148.781 15.4724V15.86H144.29V15.9222C144.27 16.1288 144.3 16.3367 144.376 16.5326C144.453 16.7286 144.574 16.9082 144.734 17.06C144.893 17.2118 145.087 17.3325 145.302 17.4142C145.517 17.496 145.749 17.537 145.984 17.5347C146.284 17.5666 146.588 17.5188 146.857 17.3973C147.127 17.2758 147.349 17.0861 147.497 16.8523L148.705 16.8524ZM144.29 15.0384H147.502C147.518 14.8495 147.489 14.6598 147.417 14.4814C147.345 14.303 147.232 14.1399 147.084 14.0025C146.937 13.8652 146.759 13.7567 146.561 13.684C146.363 13.6113 146.151 13.576 145.937 13.5803C145.72 13.5779 145.504 13.614 145.303 13.6864C145.102 13.7588 144.919 13.8661 144.766 14.002C144.613 14.1379 144.491 14.2996 144.41 14.4776C144.328 14.6556 144.287 14.8463 144.29 15.0384H144.29Z" fill="white"/>
</g>
<defs>
<clipPath id="clip0_6401_2767">
<rect width="169" height="50" fill="white" transform="translate(0.75)"/>
</clipPath>
</defs>
</svg>
