<svg width="170" height="50" viewBox="0 0 170 50" fill="none" xmlns="http://www.w3.org/2000/svg">
<g clip-path="url(#clip0_6846_7531)">
<path d="M156.292 0.0001625H14.2157C13.6978 0.0001625 13.1861 0.0001625 12.6696 0.0026625C12.2373 0.0051625 11.8083 0.012425 11.3718 0.0185375C10.4235 0.0284148 9.47738 0.102258 8.54173 0.239425C7.60739 0.379578 6.70233 0.643807 5.85714 1.02318C5.01299 1.40575 4.24166 1.90287 3.57114 2.4965C2.8971 3.08846 2.33524 3.77268 1.90716 4.52286C1.47789 5.27155 1.18024 6.07384 1.02448 6.90201C0.867235 7.72914 0.782622 8.56581 0.771396 9.40451C0.75829 9.78776 0.756906 10.1723 0.75 10.5556V39.4484C0.756906 39.8365 0.75829 40.2125 0.771396 40.6008C0.782625 41.4394 0.867239 42.2761 1.02448 43.1032C1.17981 43.9318 1.47748 44.7346 1.90716 45.4835C2.33505 46.2313 2.89699 46.9127 3.57114 47.5014C4.23912 48.0977 5.01094 48.5951 5.85714 48.9748C6.70232 49.3552 7.60729 49.621 8.54173 49.7633C9.47754 49.8994 10.4235 49.9732 11.3718 49.9843C11.8083 49.9928 12.2373 49.9977 12.6696 49.9977C13.1861 50.0002 13.6978 50.0002 14.2157 50.0002H156.292C156.799 50.0002 157.315 50.0002 157.823 49.9977C158.253 49.9977 158.694 49.9928 159.125 49.9843C160.071 49.9738 161.016 49.8999 161.949 49.7633C162.887 49.62 163.795 49.3542 164.644 48.9748C165.49 48.5949 166.261 48.0975 166.928 47.5014C167.601 46.9104 168.164 46.2295 168.597 45.4835C169.023 44.734 169.318 43.9313 169.471 43.1032C169.629 42.276 169.716 41.4395 169.733 40.6008C169.739 40.2125 169.739 39.8365 169.739 39.4484C169.75 38.9943 169.75 38.5427 169.75 38.0812V11.9203C169.75 11.4626 169.75 11.0085 169.739 10.5556C169.739 10.1723 169.739 9.78776 169.733 9.40446C169.716 8.56569 169.629 7.72921 169.471 6.90196C169.318 6.07426 169.023 5.27204 168.597 4.52281C167.725 3.01916 166.343 1.79519 164.644 1.02306C163.795 0.644622 162.887 0.380463 161.949 0.239312C161.016 0.101541 160.071 0.0276722 159.125 0.0183625C158.694 0.0122625 158.253 0.0049375 157.823 0.0025C157.315 0 156.799 0 156.292 0V0.0001625Z" fill="#A6A6A6"/>
<path d="M12.6741 48.9063C12.2438 48.9063 11.8239 48.9014 11.3969 48.8929C10.5125 48.8827 9.6302 48.8145 8.75717 48.689C7.94312 48.5649 7.15451 48.3341 6.41738 48.0041C5.687 47.6769 5.02084 47.2478 4.44442 46.7334C3.85964 46.225 3.3728 45.6353 3.00316 44.9878C2.62946 44.336 2.37083 43.6374 2.23629 42.9163C2.091 42.1414 2.01239 41.3579 2.00114 40.5725C1.99219 40.3089 1.98047 39.4311 1.98047 39.4311V10.5554C1.98047 10.5554 1.99295 9.69116 2.00122 9.43725C2.01199 8.6531 2.09014 7.87082 2.23499 7.09716C2.36978 6.37406 2.62861 5.67344 3.00251 5.01954C3.37079 4.37243 3.85493 3.78233 4.43618 3.2721C5.01678 2.75703 5.68507 2.32576 6.41669 1.99401C7.15213 1.66512 7.93924 1.43592 8.75165 1.31409C9.62755 1.1873 10.5129 1.11875 11.4004 1.10901L12.6747 1.09375H157.813L159.103 1.10963C159.982 1.11887 160.86 1.18681 161.728 1.31286C162.548 1.43622 163.344 1.66702 164.087 1.99768C165.553 2.66623 166.746 3.72395 167.498 5.02259C167.866 5.67197 168.121 6.36688 168.254 7.08374C168.4 7.86374 168.483 8.65217 168.499 9.44275C168.503 9.79675 168.503 10.177 168.503 10.5554C168.515 11.0242 168.515 11.4703 168.515 11.9202V38.081C168.515 38.5351 168.515 38.9783 168.503 39.425C168.503 39.8315 168.503 40.2039 168.498 40.5871C168.481 41.3636 168.401 42.138 168.257 42.904C168.125 43.6303 167.868 44.3344 167.494 44.9915C167.122 45.632 166.638 46.2166 166.06 46.7236C165.483 47.2409 164.815 47.6724 164.083 48.0018C163.341 48.3342 162.547 48.5659 161.728 48.689C160.855 48.8152 159.972 48.8834 159.088 48.8929C158.674 48.9014 158.241 48.9063 157.82 48.9063L156.289 48.9088L12.6741 48.9063Z" fill="#CCCCCC"/>
<path d="M35.7301 25.3783C35.7453 24.335 36.0584 23.312 36.6403 22.4046C37.2222 21.4972 38.054 20.7347 39.0582 20.1883C38.4202 19.3818 37.5786 18.7181 36.6001 18.2499C35.6217 17.7818 34.5333 17.522 33.4216 17.4912C31.05 17.2708 28.7509 18.7472 27.5424 18.7472C26.3105 18.7472 24.4498 17.513 22.4461 17.5495C21.1501 17.5866 19.887 17.9202 18.78 18.5177C17.6729 19.1153 16.7596 19.9565 16.1291 20.9594C13.3977 25.1449 15.4351 31.2962 18.0515 34.6795C19.3605 36.3362 20.8904 38.1867 22.8923 38.1211C24.8512 38.0492 25.5828 37.0155 27.9474 37.0155C30.2901 37.0155 30.9765 38.1211 33.0189 38.0794C35.121 38.0492 36.4453 36.4153 37.7084 34.7429C38.649 33.5625 39.3727 32.2578 39.8529 30.8773C38.6317 30.4201 37.5895 29.6549 36.8564 28.6771C36.1232 27.6992 35.7315 26.5519 35.7301 25.3783Z" fill="#333333"/>
<path d="M31.8702 15.2656C33.0163 14.0479 33.581 12.4826 33.4442 10.9023C31.6932 11.0651 30.0758 11.8058 28.9142 12.9769C28.3463 13.5489 27.9113 14.2145 27.6342 14.9354C27.357 15.6564 27.2431 16.4186 27.299 17.1786C28.1748 17.1866 29.0412 17.0186 29.8331 16.6872C30.6249 16.3558 31.3214 15.8698 31.8702 15.2656Z" fill="#333333"/>
<path d="M60.4929 33.9265H53.8079L52.2026 38.1221H49.3711L55.7029 22.5996H58.6447L64.9766 38.1221H62.0968L60.4929 33.9265ZM54.5003 31.9905H59.7992L57.187 25.1814H57.1139L54.5003 31.9905Z" fill="#333333"/>
<path d="M78.6499 32.4633C78.6499 35.9801 76.5232 38.2396 73.3139 38.2396C72.5009 38.2773 71.6924 38.1115 70.9809 37.7614C70.2694 37.4112 69.6836 36.8907 69.2908 36.2596H69.2301V41.8651H66.6055V26.8041H69.146V28.6864H69.1942C69.6052 28.0583 70.2008 27.5406 70.9177 27.1883C71.6346 26.836 72.446 26.6623 73.2656 26.6857C76.5108 26.6857 78.6499 28.9562 78.6499 32.4633ZM75.9523 32.4633C75.9523 30.172 74.6144 28.6657 72.5732 28.6657C70.5679 28.6657 69.2191 30.2038 69.2191 32.4633C69.2191 34.7436 70.5679 36.2707 72.5732 36.2707C74.6144 36.2707 75.9523 34.7753 75.9523 32.4633Z" fill="#333333"/>
<path d="M92.7242 32.4633C92.7242 35.9801 90.5975 38.2396 87.3881 38.2396C86.5751 38.2773 85.7666 38.1115 85.0551 37.7613C84.3436 37.4112 83.7579 36.8907 83.365 36.2596H83.3043V41.8651H80.6797V26.8041H83.2201V28.6864H83.2684C83.6793 28.0583 84.2749 27.5406 84.9918 27.1883C85.7088 26.836 86.5202 26.6623 87.3398 26.6857C90.585 26.6857 92.7242 28.9562 92.7242 32.4633ZM90.0265 32.4633C90.0265 30.172 88.6887 28.6657 86.6475 28.6657C84.6421 28.6657 83.2933 30.2037 83.2933 32.4633C83.2933 34.7435 84.6421 36.2706 86.6475 36.2706C88.6887 36.2706 90.0265 34.7753 90.0265 32.4633H90.0265Z" fill="#333333"/>
<path d="M102.023 33.7962C102.217 35.3355 103.907 36.3462 106.215 36.3462C108.428 36.3462 110.019 35.3355 110.019 33.9475C110.019 32.7427 109.059 32.0213 106.786 31.5269L104.513 31.0422C101.293 30.3538 99.798 29.0208 99.798 26.8577C99.798 24.1794 102.435 22.3398 106.18 22.3398C109.885 22.3398 112.426 24.1794 112.511 26.8577H109.862C109.703 25.3086 108.257 24.3735 106.142 24.3735C104.028 24.3735 102.581 25.3196 102.581 26.6965C102.581 27.794 103.505 28.4397 105.766 28.934L107.698 29.354C111.296 30.1071 112.791 31.3865 112.791 33.6569C112.791 36.561 110.178 38.3798 106.021 38.3798C102.132 38.3798 99.5056 36.6037 99.3359 33.7961L102.023 33.7962Z" fill="#333333"/>
<path d="M118.457 24.125V26.8032H120.889V28.6428H118.457V34.8818C118.457 35.8511 118.944 36.3027 120.013 36.3027C120.301 36.2983 120.59 36.2803 120.876 36.249V38.0776C120.396 38.1571 119.907 38.1931 119.418 38.185C116.83 38.185 115.82 37.3244 115.82 35.1296V28.6428H113.961V26.8032H115.82V24.125H118.457Z" fill="#333333"/>
<path d="M122.297 32.4624C122.297 28.9016 124.666 26.6641 128.361 26.6641C132.068 26.6641 134.427 28.9016 134.427 32.4624C134.427 36.033 132.081 38.2607 128.361 38.2607C124.643 38.2607 122.297 36.0329 122.297 32.4624ZM131.753 32.4624C131.753 30.0198 130.488 28.5781 128.361 28.5781C126.234 28.5781 124.971 30.0308 124.971 32.4624C124.971 34.9148 126.234 36.3455 128.361 36.3455C130.488 36.3455 131.753 34.9148 131.753 32.4624H131.753Z" fill="#333333"/>
<path d="M136.594 26.804H139.097V28.7302H139.158C139.327 28.1286 139.725 27.597 140.285 27.2246C140.845 26.8523 141.533 26.6619 142.233 26.6856C142.536 26.6846 142.837 26.7137 143.133 26.7722V28.9451C142.751 28.8418 142.352 28.7944 141.953 28.8047C141.572 28.791 141.192 28.8505 140.839 28.9791C140.486 29.1077 140.169 29.3024 139.909 29.5498C139.649 29.7971 139.453 30.0913 139.334 30.4122C139.215 30.733 139.175 31.0729 139.218 31.4085V38.1211H136.594L136.594 26.804Z" fill="#333333"/>
<path d="M155.233 34.7964C154.88 36.8508 152.62 38.2607 149.728 38.2607C146.008 38.2607 143.699 36.0549 143.699 32.5161C143.699 28.9663 146.02 26.6641 149.617 26.6641C153.155 26.6641 155.38 28.8149 155.38 32.2463V33.0422H146.349V33.1826C146.307 33.5991 146.366 34.0187 146.521 34.4135C146.677 34.8083 146.926 35.1693 147.251 35.4725C147.576 35.7756 147.971 36.0141 148.408 36.172C148.846 36.3299 149.316 36.4036 149.788 36.3882C150.409 36.4396 151.031 36.3125 151.563 36.0257C152.095 35.7389 152.508 35.3077 152.741 34.7964L155.233 34.7964ZM146.361 31.4187H152.754C152.777 31.0442 152.713 30.6694 152.565 30.3179C152.417 29.9664 152.189 29.6457 151.894 29.376C151.6 29.1063 151.246 28.8934 150.854 28.7506C150.462 28.6079 150.041 28.5383 149.617 28.5464C149.19 28.5441 148.766 28.6168 148.371 28.7602C147.975 28.9037 147.616 29.115 147.313 29.382C147.01 29.6491 146.77 29.9665 146.607 30.3161C146.443 30.6657 146.36 31.0404 146.361 31.4187V31.4187Z" fill="#333333"/>
<path d="M54.1728 10.9147C54.723 10.8798 55.2752 10.9533 55.7894 11.1301C56.3036 11.3069 56.7671 11.5825 57.1464 11.9371C57.5258 12.2916 57.8114 12.7162 57.9829 13.1803C58.1544 13.6444 58.2073 14.1364 58.1379 14.6208C58.1379 17.0036 56.6829 18.3733 54.1728 18.3733H51.1289V10.9147H54.1728ZM52.4377 17.3185H54.0266C54.4198 17.3393 54.8132 17.2822 55.1784 17.1514C55.5435 17.0207 55.8711 16.8195 56.1373 16.5625C56.4035 16.3056 56.6016 15.9993 56.7172 15.666C56.8328 15.3328 56.863 14.9809 56.8056 14.636C56.8589 14.2924 56.8256 13.9427 56.7082 13.6119C56.5908 13.281 56.3922 12.9773 56.1266 12.7224C55.861 12.4675 55.535 12.2677 55.1719 12.1374C54.8089 12.0071 54.4177 11.9495 54.0266 11.9687H52.4377V17.3185Z" fill="#333333"/>
<path d="M59.6157 15.5572C59.5758 15.1873 59.6236 14.8141 59.7561 14.4615C59.8886 14.1089 60.103 13.7847 60.3853 13.5098C60.6677 13.2348 61.0119 13.0151 61.3958 12.8647C61.7798 12.7144 62.195 12.6367 62.6148 12.6367C63.0346 12.6367 63.4498 12.7144 63.8338 12.8647C64.2177 13.0151 64.5619 13.2348 64.8443 13.5098C65.1266 13.7847 65.341 14.1089 65.4735 14.4615C65.606 14.8141 65.6538 15.1873 65.6138 15.5572C65.6546 15.9275 65.6073 16.3012 65.4752 16.6544C65.343 17.0075 65.1288 17.3323 64.8463 17.6078C64.5639 17.8833 64.2194 18.1035 63.8351 18.2542C63.4508 18.4048 63.0351 18.4827 62.6148 18.4827C62.1945 18.4827 61.7788 18.4048 61.3945 18.2542C61.0101 18.1035 60.6657 17.8833 60.3833 17.6078C60.1008 17.3323 59.8866 17.0075 59.7544 16.6544C59.6222 16.3012 59.575 15.9275 59.6157 15.5572ZM64.3229 15.5572C64.3229 14.3371 63.7036 13.6236 62.6169 13.6236C61.5259 13.6236 60.9122 14.3371 60.9122 15.5572C60.9122 16.7871 61.526 17.4951 62.6169 17.4951C63.7037 17.4951 64.3229 16.7822 64.3229 15.5572H64.3229Z" fill="#333333"/>
<path d="M73.5904 18.3728H72.2884L70.9741 14.2273H70.8748L69.5659 18.3728H68.2764L66.5234 12.7441H67.7964L68.9356 17.0391H69.0294L70.3369 12.7441H71.5409L72.8484 17.0391H72.9477L74.0814 12.7441H75.3364L73.5904 18.3728Z" fill="#333333"/>
<path d="M76.8047 12.7431H78.0129V13.6373H78.1066C78.2657 13.3161 78.5341 13.0469 78.8743 12.8671C79.2144 12.6874 79.6095 12.606 80.0044 12.6344C80.3138 12.6139 80.6245 12.6552 80.9135 12.7553C81.2024 12.8554 81.4622 13.0118 81.6736 13.2128C81.885 13.4139 82.0426 13.6545 82.1347 13.9167C82.2268 14.179 82.251 14.4563 82.2056 14.7279V18.3717H80.9505V15.0069C80.9505 14.1024 80.5064 13.6525 79.5782 13.6525C79.3681 13.6439 79.1584 13.6755 78.9634 13.7453C78.7685 13.8151 78.5929 13.9214 78.4486 14.0568C78.3044 14.1923 78.195 14.3538 78.1278 14.5302C78.0607 14.7066 78.0375 14.8938 78.0597 15.0789V18.3718H76.8047L76.8047 12.7431Z" fill="#333333"/>
<path d="M84.207 10.5469H85.4621V18.3728H84.207V10.5469Z" fill="#333333"/>
<path d="M87.2095 15.5553C87.1695 15.1854 87.2174 14.8122 87.3499 14.4596C87.4825 14.107 87.6968 13.7828 87.9792 13.5078C88.2616 13.2328 88.6059 13.0131 88.9898 12.8628C89.3738 12.7124 89.789 12.6348 90.2089 12.6348C90.6287 12.6348 91.0439 12.7124 91.4279 12.8628C91.8118 13.0131 92.1561 13.2328 92.4385 13.5078C92.7209 13.7828 92.9352 14.107 93.0678 14.4596C93.2003 14.8122 93.2482 15.1854 93.2082 15.5553C93.2489 15.9256 93.2016 16.2994 93.0694 16.6525C92.9372 17.0057 92.723 17.3304 92.4405 17.606C92.158 17.8815 91.8135 18.1016 91.4292 18.2523C91.0449 18.4029 90.6292 18.4808 90.2089 18.4808C89.7885 18.4808 89.3728 18.4029 88.9885 18.2523C88.6042 18.1016 88.2597 17.8815 87.9772 17.606C87.6947 17.3304 87.4805 17.0057 87.3483 16.6525C87.2161 16.2994 87.1688 15.9256 87.2095 15.5553ZM91.9166 15.5553C91.9166 14.3353 91.2974 13.6218 90.2106 13.6218C89.1196 13.6218 88.5059 14.3353 88.5059 15.5554C88.5059 16.7852 89.1197 17.4932 90.2106 17.4932C91.2974 17.4932 91.9166 16.7803 91.9166 15.5553H91.9166Z" fill="#333333"/>
<path d="M94.5273 16.7803C94.5273 15.7671 95.3797 15.183 96.8926 15.1L98.6153 15.0121V14.5262C98.6153 13.9318 98.1712 13.5961 97.3133 13.5961C96.6127 13.5961 96.1272 13.8237 95.9879 14.2217H94.7728C94.9011 13.2549 95.9286 12.6348 97.3712 12.6348C98.9656 12.6348 99.8648 13.3373 99.8648 14.5262V18.3721H98.6566V17.5811H98.5573C98.3558 17.8648 98.0727 18.0961 97.7372 18.2514C97.4016 18.4066 97.0254 18.4803 96.6472 18.4648C96.3802 18.4894 96.1104 18.4642 95.8551 18.3908C95.5998 18.3174 95.3647 18.1975 95.165 18.0388C94.9653 17.8801 94.8053 17.6861 94.6955 17.4693C94.5857 17.2526 94.5284 17.0178 94.5273 16.7803ZM98.6153 16.2993V15.8287L97.0623 15.9166C96.1865 15.9685 95.7893 16.2322 95.7893 16.7284C95.7893 17.235 96.2858 17.5298 96.9685 17.5298C97.1686 17.5477 97.3707 17.5298 97.5627 17.4772C97.7548 17.4246 97.933 17.3383 98.0866 17.2235C98.2403 17.1087 98.3662 16.9677 98.457 16.809C98.5479 16.6502 98.6017 16.4769 98.6153 16.2993Z" fill="#333333"/>
<path d="M101.516 15.556C101.516 13.7775 102.549 12.6508 104.155 12.6508C104.553 12.6346 104.947 12.7188 105.293 12.8937C105.638 13.0686 105.92 13.3268 106.106 13.6383H106.199V10.5469H107.454V18.3728H106.252V17.4835H106.152C105.952 17.7929 105.661 18.0479 105.309 18.221C104.957 18.3941 104.558 18.4787 104.155 18.4656C102.538 18.4656 101.516 17.3389 101.516 15.556ZM102.812 15.556C102.812 16.7499 103.448 17.4683 104.511 17.4683C105.569 17.4683 106.223 16.7395 106.223 15.5609C106.223 14.3878 105.562 13.6487 104.511 13.6487C103.455 13.6487 102.812 14.372 102.812 15.556H102.812Z" fill="#333333"/>
<path d="M112.647 15.5572C112.607 15.1873 112.655 14.8141 112.787 14.4615C112.92 14.1089 113.134 13.7847 113.417 13.5098C113.699 13.2348 114.043 13.0151 114.427 12.8647C114.811 12.7144 115.226 12.6367 115.646 12.6367C116.066 12.6367 116.481 12.7144 116.865 12.8647C117.249 13.0151 117.593 13.2348 117.875 13.5098C118.158 13.7847 118.372 14.1089 118.505 14.4615C118.637 14.8141 118.685 15.1873 118.645 15.5572C118.686 15.9275 118.639 16.3012 118.506 16.6544C118.374 17.0075 118.16 17.3323 117.878 17.6078C117.595 17.8833 117.251 18.1035 116.866 18.2542C116.482 18.4048 116.066 18.4827 115.646 18.4827C115.226 18.4827 114.81 18.4048 114.426 18.2542C114.041 18.1035 113.697 17.8833 113.414 17.6078C113.132 17.3323 112.918 17.0075 112.786 16.6544C112.653 16.3012 112.606 15.9275 112.647 15.5572ZM117.354 15.5572C117.354 14.3371 116.735 13.6236 115.648 13.6236C114.557 13.6236 113.943 14.3371 113.943 15.5572C113.943 16.7871 114.557 17.4951 115.648 17.4951C116.735 17.4951 117.354 16.7822 117.354 15.5572Z" fill="#333333"/>
<path d="M120.332 12.7431H121.54V13.6373H121.634C121.793 13.3161 122.061 13.0469 122.402 12.8671C122.742 12.6874 123.137 12.606 123.532 12.6344C123.841 12.6139 124.152 12.6552 124.441 12.7553C124.73 12.8554 124.99 13.0118 125.201 13.2128C125.412 13.4139 125.57 13.6545 125.662 13.9167C125.754 14.179 125.778 14.4563 125.733 14.7279V18.3717H124.478V15.0069C124.478 14.1024 124.034 13.6525 123.106 13.6525C122.896 13.6439 122.686 13.6755 122.491 13.7453C122.296 13.8151 122.12 13.9214 121.976 14.0568C121.832 14.1923 121.722 14.3538 121.655 14.5302C121.588 14.7066 121.565 14.8938 121.587 15.0789V18.3718H120.332V12.7431Z" fill="#333333"/>
<path d="M132.821 11.3438V12.7707H134.199V13.7064H132.821V16.6007C132.821 17.1903 133.095 17.4485 133.72 17.4485C133.88 17.448 134.04 17.4395 134.199 17.4228V18.3481C133.973 18.3838 133.745 18.4028 133.516 18.4049C132.12 18.4049 131.564 17.9703 131.564 16.8851V13.7064H130.555V12.7707H131.564V11.3438H132.821Z" fill="#333333"/>
<path d="M135.914 10.5469H137.158V13.6487H137.257C137.424 13.3245 137.7 13.0538 138.047 12.8734C138.394 12.6929 138.795 12.6116 139.196 12.6404C139.504 12.6256 139.812 12.671 140.098 12.7736C140.383 12.8762 140.64 13.0332 140.849 13.2337C141.058 13.4341 141.215 13.6729 141.308 13.9331C141.401 14.1932 141.428 14.4683 141.387 14.7388V18.3728H140.13V15.0128C140.13 14.1138 139.657 13.6584 138.77 13.6584C138.555 13.6428 138.338 13.669 138.135 13.7353C137.932 13.8017 137.747 13.9064 137.595 14.0424C137.442 14.1783 137.325 14.3421 137.252 14.5222C137.178 14.7024 137.15 14.8946 137.169 15.0854V18.3728H135.914L135.914 10.5469Z" fill="#333333"/>
<path d="M148.705 16.8543C148.534 17.3688 148.165 17.8137 147.661 18.1114C147.157 18.4091 146.551 18.5406 145.949 18.4827C145.53 18.4925 145.114 18.4215 144.729 18.2746C144.344 18.1277 144 17.9084 143.72 17.632C143.441 17.3556 143.233 17.0286 143.11 16.6738C142.988 16.3191 142.954 15.945 143.011 15.5775C142.956 15.2089 142.99 14.834 143.112 14.4781C143.234 14.1223 143.441 13.7938 143.719 13.515C143.997 13.2361 144.34 13.0134 144.724 12.8619C145.107 12.7104 145.523 12.6336 145.944 12.6368C147.713 12.6368 148.781 13.7068 148.781 15.4743V15.8619H144.29V15.9242C144.27 16.1307 144.3 16.3386 144.376 16.5346C144.453 16.7305 144.574 16.9102 144.734 17.062C144.893 17.2138 145.087 17.3344 145.302 17.4162C145.517 17.4979 145.749 17.539 145.984 17.5367C146.284 17.5686 146.588 17.5207 146.857 17.3992C147.127 17.2777 147.349 17.088 147.497 16.8543L148.705 16.8543ZM144.29 15.0404H147.502C147.518 14.8515 147.489 14.6617 147.417 14.4833C147.345 14.3049 147.232 14.1418 147.084 14.0045C146.937 13.8672 146.759 13.7587 146.561 13.686C146.363 13.6132 146.151 13.5779 145.937 13.5822C145.72 13.5798 145.504 13.6159 145.303 13.6883C145.102 13.7608 144.919 13.8681 144.766 14.004C144.613 14.1399 144.491 14.3016 144.41 14.4796C144.328 14.6576 144.287 14.8483 144.29 15.0404H144.29Z" fill="#333333"/>
</g>
<defs>
<clipPath id="clip0_6846_7531">
<rect width="169" height="50" fill="white" transform="translate(0.75)"/>
</clipPath>
</defs>
</svg>
