<svg width="28" height="20" viewBox="0 0 28 20" fill="none" xmlns="http://www.w3.org/2000/svg">
<path d="M1.98004 1.90735e-06L26.0229 1.90735e-06C26.2663 0.000764847 26.5049 0.0679016 26.713 0.194185C26.9211 0.320469 27.0909 0.501116 27.2039 0.716682C27.317 0.932251 27.3692 1.17458 27.3548 1.41757C27.3404 1.66057 27.26 1.89504 27.1222 2.09574L15.1008 19.46C14.6025 20.18 13.4031 20.18 12.9035 19.46L0.882078 2.09574C0.74293 1.89546 0.66133 1.66087 0.646145 1.41747C0.630959 1.17407 0.682768 0.931158 0.795943 0.715134C0.909119 0.499109 1.07933 0.318232 1.28809 0.192152C1.49684 0.0660744 1.73616 -0.00038147 1.98004 1.90735e-06Z" fill="#999999"/>
</svg>
