<svg width="80" height="80" viewBox="0 0 80 80" fill="none" xmlns="http://www.w3.org/2000/svg">
<circle cx="40" cy="40" r="40" fill="#FBEDED"/>
<g clip-path="url(#clip0_7014_3735)">
<path d="M26.3841 46.0722L26.7975 46.1682C27.3353 46.293 27.8828 46.3711 28.4341 46.4017L28.4341 46.4017L31.6841 46.5829L31.9202 46.5961V46.8326V53.103V53.1034H31.6702C31.6707 53.4605 31.542 53.8058 31.3078 54.0755C31.0737 54.3452 30.7498 54.521 30.3961 54.5705C30.0424 54.62 29.6827 54.5399 29.3835 54.3449C29.0843 54.1499 28.8657 53.8532 28.7681 53.5096L26.3841 46.0722ZM26.3841 46.0722L26.5006 46.4804L28.5276 53.5779L26.3841 46.0722ZM50.6702 24.4409V24.8763V50.4159V50.9161L50.2701 50.6158L45.9786 47.3951L50.6702 24.4409ZM50.6702 24.4409L50.2942 24.6604M50.6702 24.4409L50.2942 24.6604M50.2942 24.6604L45.4089 27.5124M50.2942 24.6604L45.4089 27.5124M45.4089 27.5124C45.4088 27.5124 45.4088 27.5125 45.4087 27.5125M45.4089 27.5124L45.4087 27.5125M45.4087 27.5125C42.4722 29.2242 39.1978 30.2751 35.8136 30.592L35.5869 30.6132M45.4087 27.5125L35.5869 30.6132M35.5869 30.6132V30.8409M35.5869 30.6132V30.8409M35.5869 30.8409V42.9638V43.1817M35.5869 30.8409V43.1817M35.5869 43.1817L35.8028 43.2115M35.5869 43.1817L35.8028 43.2115M35.8028 43.2115C39.4837 43.7182 42.9875 45.1539 45.9785 47.395L35.8028 43.2115ZM54.3369 31.6659V31.9159H54.5869C55.3748 31.9159 56.155 32.0711 56.883 32.3726C57.6109 32.6741 58.2724 33.1161 58.8295 33.6732C59.3867 34.2304 59.8286 34.8918 60.1301 35.6198C60.4317 36.3477 60.5869 37.128 60.5869 37.9159C60.5869 38.7038 60.4317 39.484 60.1301 40.212C59.8286 40.9399 59.3867 41.6014 58.8295 42.1585C58.2724 42.7157 57.6109 43.1576 56.883 43.4592C56.155 43.7607 55.3748 43.9159 54.5869 43.9159H54.3369V44.1659V50.4159C54.3369 53.6432 50.6533 55.486 48.0702 53.5492L43.7786 50.3284L43.7785 50.3284C41.4527 48.5844 38.7446 47.4201 35.8789 46.9319L35.5869 46.8822V47.1784V53.1034C35.5871 54.4051 35.1168 55.6629 34.2626 56.6451C33.4084 57.6273 32.228 58.2677 30.9389 58.4481C29.6498 58.6285 28.339 58.3368 27.248 57.6269C26.157 56.9169 25.3594 55.8365 25.0023 54.5848L25.0023 54.5847L21.7314 43.1347L21.7166 43.0829L21.6818 43.0418C20.5348 41.6873 19.7884 40.0397 19.5264 38.2842C19.2644 36.5287 19.4973 34.735 20.1988 33.1046C20.9003 31.4742 22.0427 30.0717 23.4975 29.055C24.9523 28.0382 26.6619 27.4473 28.4341 27.3488L28.4341 27.3488L34.7216 26.9988C37.8374 26.8254 40.8675 25.915 43.5629 24.3422L43.5629 24.3422L48.446 21.4923C48.4461 21.4923 48.4462 21.4923 48.4462 21.4922C51.0589 19.9706 54.3369 21.8528 54.3369 24.8763V31.6659ZM31.9202 31.0909V30.8267L31.6564 30.8413L28.6356 31.0079L28.6356 31.0079C27.1678 31.089 25.7837 31.7173 24.7566 32.769C23.7295 33.8206 23.1339 35.2191 23.0874 36.6883C23.041 38.1576 23.547 39.5909 24.5057 40.7053C25.4643 41.8198 26.806 42.5343 28.2657 42.7079L28.2657 42.708L28.2732 42.7087L28.6274 42.7399L28.6274 42.7401L28.6356 42.7405L31.6564 42.9072L31.9202 42.9217V42.6576V31.0909ZM54.6018 35.583L54.3369 35.5671V35.8326V39.9992V40.2495L54.5872 40.2492C55.1819 40.2486 55.7539 40.0208 56.1863 39.6126C56.6188 39.2043 56.879 38.6463 56.9139 38.0526C56.9487 37.4589 56.7556 36.8743 56.3739 36.4183C55.9922 35.9622 55.4507 35.6691 54.8601 35.5989L54.8529 35.598L54.8456 35.5976L54.6018 35.583Z" fill="#E96C6C" stroke="#FBEDED" stroke-width="0.5"/>
</g>
<defs>
<clipPath id="clip0_7014_3735">
<rect width="50" height="50" fill="white" transform="translate(15 15)"/>
</clipPath>
</defs>
</svg>
