<svg width="80" height="80" viewBox="0 0 80 80" fill="none" xmlns="http://www.w3.org/2000/svg">
<circle cx="40" cy="40" r="40" fill="#FBEDED"/>
<g clip-path="url(#clip0_2_5457)">
<path d="M26.3807 46.073L26.7941 46.1689C27.3319 46.2937 27.8794 46.3718 28.4306 46.4024L28.4307 46.4024L31.6807 46.5837L31.9168 46.5968V46.8333V53.1037V53.1041H31.6668C31.6673 53.4613 31.5386 53.8066 31.3044 54.0762C31.0702 54.3459 30.7464 54.5217 30.3927 54.5712C30.039 54.6207 29.6793 54.5406 29.3801 54.3456C29.0808 54.1506 28.8623 53.8539 28.7647 53.5104L26.3807 46.073ZM26.3807 46.073L26.4972 46.4811L28.5242 53.5787L26.3807 46.073ZM50.6668 24.4416V24.877V50.4166V50.9168L50.2667 50.6166L45.9752 47.3958L50.6668 24.4416ZM50.6668 24.4416L50.2907 24.6611M50.6668 24.4416L50.2907 24.6611M50.2907 24.6611L45.4055 27.5131M50.2907 24.6611L45.4055 27.5131M45.4055 27.5131C45.4054 27.5132 45.4054 27.5132 45.4053 27.5132M45.4055 27.5131L45.4053 27.5132M45.4053 27.5132C42.4688 29.225 39.1944 30.2759 35.8101 30.5927L35.5835 30.6139M45.4053 27.5132L35.5835 30.6139M35.5835 30.6139V30.8416M35.5835 30.6139V30.8416M35.5835 30.8416V42.9645V43.1825M35.5835 30.8416V43.1825M35.5835 43.1825L35.7994 43.2122M35.5835 43.1825L35.7994 43.2122M35.7994 43.2122C39.4803 43.7189 42.9841 45.1546 45.9751 47.3957L35.7994 43.2122ZM54.3335 31.6666V31.9166H54.5835C55.3714 31.9166 56.1516 32.0718 56.8796 32.3733C57.6075 32.6749 58.2689 33.1168 58.8261 33.674C59.3832 34.2311 59.8252 34.8926 60.1267 35.6205C60.4283 36.3485 60.5835 37.1287 60.5835 37.9166C60.5835 38.7045 60.4283 39.4848 60.1267 40.2127C59.8252 40.9407 59.3832 41.6021 58.8261 42.1593C58.2689 42.7164 57.6075 43.1584 56.8796 43.4599C56.1516 43.7614 55.3714 43.9166 54.5835 43.9166H54.3335V44.1666V50.4166C54.3335 53.644 50.6499 55.4868 48.0668 53.5499L43.7752 50.3292L43.7751 50.3291C41.4493 48.5852 38.7412 47.4208 35.8754 46.9327L35.5835 46.8829V47.1791V53.1041C35.5837 54.4058 35.1133 55.6637 34.2592 56.6459C33.405 57.6281 32.2246 58.2684 30.9355 58.4488C29.6464 58.6292 28.3356 58.3376 27.2446 57.6276C26.1536 56.9176 25.356 55.8372 24.9989 54.5855L24.9988 54.5854L21.728 43.1354L21.7132 43.0837L21.6784 43.0426C20.5314 41.688 19.785 40.0404 19.523 38.2849C19.261 36.5295 19.4938 34.7357 20.1954 33.1053C20.8969 31.4749 22.0392 30.0725 23.4941 29.0557C24.9489 28.0389 26.6585 27.4481 28.4307 27.3496L28.4307 27.3496L34.7182 26.9996C37.834 26.8262 40.8641 25.9157 43.5594 24.343L43.5595 24.343L48.4426 21.4931C48.4427 21.493 48.4427 21.493 48.4428 21.493C51.0555 19.9714 54.3335 21.8536 54.3335 24.877V31.6666ZM31.9168 31.0916V30.8274L31.653 30.842L28.6322 31.0087L28.6322 31.0087C27.1644 31.0897 25.7803 31.7181 24.7532 32.7697C23.726 33.8213 23.1305 35.2198 23.084 36.6891C23.0375 38.1584 23.5436 39.5917 24.5023 40.7061C25.4609 41.8205 26.8025 42.535 28.2623 42.7086L28.2622 42.7087L28.2698 42.7094L28.624 42.7407L28.624 42.7408L28.6322 42.7412L31.653 42.9079L31.9168 42.9225V42.6583V31.0916ZM54.5984 35.5837L54.3335 35.5679V35.8333V40V40.2502L54.5837 40.25C55.1784 40.2493 55.7505 40.0216 56.1829 39.6133C56.6154 39.205 56.8756 38.6471 56.9105 38.0534C56.9453 37.4597 56.7522 36.8751 56.3704 36.419C55.9887 35.963 55.4473 35.6699 54.8567 35.5996L54.8495 35.5988L54.8421 35.5983L54.5984 35.5837Z" fill="#E96C6C" stroke="#FBEDED" stroke-width="0.5"/>
</g>
<defs>
<clipPath id="clip0_2_5457">
<rect width="50" height="50" fill="white" transform="translate(15 15)"/>
</clipPath>
</defs>
</svg>
