<svg width="36" height="36" viewBox="0 0 36 36" fill="none" xmlns="http://www.w3.org/2000/svg">
<rect x="0.5" y="0.5" width="35" height="35" rx="17.5" fill="#4747D6"/>
<path d="M19.5189 22.2627C19.4002 22.2627 19.2814 22.2189 19.1877 22.1252C19.0064 21.9439 19.0064 21.6439 19.1877 21.4627L22.6502 18.0002L19.1877 14.5377C19.0064 14.3564 19.0064 14.0564 19.1877 13.8752C19.3689 13.6939 19.6689 13.6939 19.8502 13.8752L23.6439 17.6689C23.8252 17.8502 23.8252 18.1502 23.6439 18.3314L19.8502 22.1252C19.7564 22.2189 19.6377 22.2627 19.5189 22.2627Z" fill="#4747D6" stroke="white"/>
<path d="M23.2063 18.4688H12.6875C12.4313 18.4688 12.2188 18.2563 12.2188 18C12.2188 17.7438 12.4313 17.5312 12.6875 17.5312H23.2063C23.4625 17.5312 23.675 17.7438 23.675 18C23.675 18.2563 23.4625 18.4688 23.2063 18.4688Z" fill="#4747D6" stroke="white"/>
</svg>
