<svg width="16" height="22" viewBox="0 0 16 22" fill="none" xmlns="http://www.w3.org/2000/svg">
<path d="M2.86102e-06 20.3017L2.86102e-06 1.06736C0.000613213 0.872625 0.0543232 0.681742 0.15535 0.515257C0.256376 0.348774 0.400893 0.212996 0.573347 0.122536C0.745802 0.0320778 0.939662 -0.00963593 1.13406 0.00188637C1.32846 0.0134087 1.51603 0.0777302 1.67659 0.187927L15.568 9.80508C16.144 10.2037 16.144 11.1632 15.568 11.5629L1.67659 21.18C1.51637 21.2913 1.3287 21.3566 1.13398 21.3688C0.939255 21.3809 0.744927 21.3395 0.572108 21.2489C0.399289 21.1584 0.254586 21.0222 0.153723 20.8552C0.0528603 20.6882 -0.000305176 20.4968 2.86102e-06 20.3017Z" fill="#4747D6"/>
</svg>
