<svg width="36" height="35" viewBox="0 0 36 35" fill="none" xmlns="http://www.w3.org/2000/svg">
<rect x="0.5" width="35" height="35" rx="17.5" fill="#4747D6" fill-opacity="0.3"/>
<path d="M19.518 21.7617C19.3992 21.7617 19.2805 21.718 19.1867 21.6242C19.0055 21.443 19.0055 21.143 19.1867 20.9617L22.6492 17.4992L19.1867 14.0367C19.0055 13.8555 19.0055 13.5555 19.1867 13.3742C19.368 13.193 19.668 13.193 19.8492 13.3742L23.643 17.168C23.8242 17.3492 23.8242 17.6492 23.643 17.8305L19.8492 21.6242C19.7555 21.718 19.6367 21.7617 19.518 21.7617Z" fill="#4747D6"/>
<path d="M23.2063 17.9688H12.6875C12.4313 17.9688 12.2188 17.7563 12.2188 17.5C12.2188 17.2438 12.4313 17.0312 12.6875 17.0312H23.2063C23.4625 17.0312 23.675 17.2438 23.675 17.5C23.675 17.7563 23.4625 17.9688 23.2063 17.9688Z" fill="#4747D6"/>
</svg>
