<svg width="80" height="80" viewBox="0 0 80 80" fill="none" xmlns="http://www.w3.org/2000/svg">
<circle cx="40" cy="40" r="40" fill="#F8FBED"/>
<path d="M31.6667 55.3854V35.0209C31.6667 34.0875 31.9965 33.2959 32.6563 32.6459C33.316 31.9931 34.1118 31.6667 35.0438 31.6667H55.3854C56.316 31.6667 57.1097 31.9945 57.7667 32.65C58.4222 33.3056 58.75 34.0993 58.75 35.0313V49.5354L49.5354 58.75H35.0313C34.1007 58.75 33.307 58.4222 32.65 57.7667C31.9945 57.1111 31.6667 56.3174 31.6667 55.3854ZM21.3021 28.7417C21.1215 27.8097 21.3007 26.9709 21.8396 26.225C22.3785 25.4778 23.1146 25.0132 24.0479 24.8313L44.0875 21.3021C45.0181 21.1215 45.857 21.3007 46.6042 21.8396C47.3514 22.3785 47.8153 23.1146 47.9959 24.0479L48.4375 26.6979H46.3292L45.8854 24.2146C45.8327 23.9215 45.6729 23.6882 45.4063 23.5146C45.1382 23.341 44.8438 23.2806 44.5229 23.3334L24.4167 26.9021C24.0431 26.9563 23.7625 27.1299 23.575 27.4229C23.3889 27.7174 23.3222 28.0514 23.375 28.425L26.7 47.2084V51.2417C26.225 51.0097 25.8215 50.6799 25.4896 50.2521C25.1563 49.8243 24.9375 49.334 24.8334 48.7813L21.3021 28.7417ZM33.75 35.0334V55.3854C33.75 55.759 33.8702 56.066 34.1104 56.3063C34.3507 56.5465 34.6577 56.6667 35.0313 56.6667H48.3334V48.3334H56.6667V35.0313C56.6667 34.6577 56.5465 34.3507 56.3063 34.1104C56.066 33.8702 55.759 33.75 55.3854 33.75H35.0313C34.6577 33.75 34.3507 33.8702 34.1104 34.1104C33.8702 34.3507 33.75 34.6577 33.75 35.0313" fill="#677D13"/>
</svg>
