<svg width="95" height="95" viewBox="0 0 95 95" fill="none" xmlns="http://www.w3.org/2000/svg">
<circle cx="47.5" cy="47.5" r="47.5" fill="#3FC500" fill-opacity="0.1"/>
<circle cx="47.5" cy="47.5" r="33.5" fill="#3FC500" fill-opacity="0.1"/>
<g clip-path="url(#clip0_5910_2446)">
<path fill-rule="evenodd" clip-rule="evenodd" d="M28 48C28 42.6957 30.1071 37.6086 33.8579 33.8579C37.6086 30.1071 42.6957 28 48 28C53.3043 28 58.3914 30.1071 62.1421 33.8579C65.8929 37.6086 68 42.6957 68 48C68 53.3043 65.8929 58.3914 62.1421 62.1421C58.3914 65.8929 53.3043 68 48 68C42.6957 68 37.6086 65.8929 33.8579 62.1421C30.1071 58.3914 28 53.3043 28 48ZM46.8587 56.56L58.3733 42.1653L56.2933 40.5013L46.4747 52.7707L39.52 46.976L37.8133 49.024L46.8587 56.5627V56.56Z" fill="#3FC500"/>
</g>
<defs>
<clipPath id="clip0_5910_2446">
<rect width="40" height="40" fill="white" transform="translate(28 28)"/>
</clipPath>
</defs>
</svg>
