<svg width="335" height="201" viewBox="0 0 335 201" fill="none" xmlns="http://www.w3.org/2000/svg">
<g filter="url(#filter0_dddd_1_1263)">
<rect x="40" y="8" width="255" height="52" rx="26" fill="white"/>
<rect x="45" y="13" width="42" height="42" rx="21" fill="#F3F3FF"/>
<g clip-path="url(#clip0_1_1263)">
<path d="M66.0038 39.7065C65.3006 39.7065 64.6131 39.9151 64.0284 40.3058C63.4437 40.6965 62.988 41.2518 62.7189 41.9014C62.4498 42.5511 62.3794 43.266 62.5166 43.9558C62.6538 44.6455 62.9924 45.279 63.4896 45.7763C63.9869 46.2735 64.6204 46.6121 65.3101 46.7493C65.9999 46.8865 66.7148 46.8161 67.3645 46.547C68.0141 46.2779 68.5694 45.8222 68.9601 45.2375C69.3508 44.6528 69.5594 43.9653 69.5594 43.2621C69.5594 42.3191 69.1848 41.4147 68.518 40.7479C67.8512 40.0811 66.9468 39.7065 66.0038 39.7065ZM66.0038 45.0399C65.6522 45.0399 65.3085 44.9356 65.0161 44.7403C64.7238 44.5449 64.4959 44.2673 64.3613 43.9424C64.2268 43.6176 64.1916 43.2601 64.2602 42.9153C64.3288 42.5704 64.4981 42.2536 64.7467 42.005C64.9953 41.7564 65.3121 41.5871 65.657 41.5185C66.0018 41.4499 66.3593 41.4851 66.6841 41.6196C67.009 41.7542 67.2866 41.9821 67.482 42.2744C67.6773 42.5668 67.7816 42.9105 67.7816 43.2621C67.7816 43.7336 67.5943 44.1858 67.2609 44.5192C66.9275 44.8526 66.4753 45.0399 66.0038 45.0399Z" fill="#4747D6"/>
<path d="M73.2944 37.422C73.3631 37.327 73.4122 37.2193 73.4391 37.1053C73.466 36.9912 73.4701 36.8729 73.4511 36.7572C73.4321 36.6416 73.3904 36.5308 73.3284 36.4313C73.2664 36.3318 73.1854 36.2456 73.09 36.1775C71.7587 35.2215 70.2464 34.547 68.6455 34.1953L72.0855 37.6353C72.2758 37.762 72.5076 37.8106 72.7327 37.7708C72.9578 37.7311 73.159 37.6062 73.2944 37.422Z" fill="#4747D6"/>
<path d="M66.0464 27.5288C64.8041 27.5321 63.5653 27.6602 62.3486 27.911L63.8953 29.4577C64.6084 29.3616 65.3269 29.3111 66.0464 29.3066C69.4063 29.3079 72.6873 30.3242 75.4597 32.2221C75.6542 32.3335 75.8835 32.3674 76.1018 32.3169C76.3201 32.2665 76.5113 32.1355 76.6371 31.9501C76.7629 31.7647 76.8141 31.5386 76.7804 31.3171C76.7467 31.0956 76.6306 30.895 76.4553 30.7555C73.3899 28.6561 69.7618 27.5314 66.0464 27.5288Z" fill="#4747D6"/>
<path d="M79.8213 25.2888C76.521 23.1081 72.75 21.7421 68.8187 21.3032C64.8874 20.8643 60.908 21.3651 57.208 22.7644L58.6125 24.1599C61.9598 23.0185 65.5245 22.6606 69.0319 23.1137C72.5394 23.5668 75.8961 24.8188 78.8436 26.7733C79.0404 26.8983 79.2785 26.941 79.5065 26.8921C79.7345 26.8432 79.9342 26.7066 80.0625 26.5119C80.1907 26.3171 80.2374 26.0798 80.1922 25.851C80.1471 25.6222 80.0139 25.4203 79.8213 25.2888Z" fill="#4747D6"/>
<path d="M51.6357 22.2221L53.7957 24.3821C53.2446 24.6843 52.7024 25.0043 52.1691 25.3598C52.0722 25.4252 51.9891 25.509 51.9246 25.6065C51.8601 25.704 51.8155 25.8132 51.7932 25.9279C51.7482 26.1596 51.7971 26.3997 51.9291 26.5954C52.0611 26.7911 52.2654 26.9263 52.4971 26.9713C52.7289 27.0163 52.969 26.9674 53.1646 26.8354C53.7869 26.4176 54.4446 25.9998 55.1024 25.6887L58.5424 29.1287C57.4907 29.5903 56.4848 30.1498 55.538 30.7999C55.3981 30.9492 55.3141 31.1422 55.3 31.3463C55.2859 31.5504 55.3427 31.7531 55.4607 31.9202C55.5788 32.0873 55.7508 32.2086 55.9479 32.2636C56.1449 32.3186 56.3549 32.3039 56.5424 32.2221C57.5884 31.5043 58.7127 30.9079 59.8935 30.4443L63.5913 34.1421C61.8885 34.5011 60.284 35.226 58.8891 36.2665C58.7153 36.4113 58.6033 36.6169 58.5758 36.8414C58.5484 37.0659 58.6075 37.2924 58.7412 37.4748C58.8749 37.6572 59.0731 37.7818 59.2955 37.8232C59.5178 37.8646 59.7476 37.8197 59.938 37.6976C61.4542 36.5963 63.2437 35.9322 65.1113 35.7776L74.7113 45.3776L75.9646 44.1243L52.8535 21.0132L51.6357 22.2221Z" fill="#4747D6"/>
</g>
<path d="M103.736 40.128C102.883 40.128 102.088 39.984 101.352 39.696C100.627 39.408 99.9973 39.008 99.464 38.496C98.9307 37.9733 98.5147 37.3653 98.216 36.672C97.9173 35.9787 97.768 35.2213 97.768 34.4C97.768 33.5787 97.9173 32.8213 98.216 32.128C98.5147 31.4347 98.9307 30.832 99.464 30.32C99.9973 29.7973 100.627 29.392 101.352 29.104C102.077 28.816 102.872 28.672 103.736 28.672C104.589 28.672 105.373 28.816 106.088 29.104C106.813 29.3813 107.443 29.7813 107.976 30.304C108.52 30.816 108.936 31.4187 109.224 32.112C109.523 32.8053 109.672 33.568 109.672 34.4C109.672 35.232 109.523 35.9947 109.224 36.688C108.936 37.3813 108.52 37.9893 107.976 38.512C107.443 39.024 106.813 39.424 106.088 39.712C105.373 39.9893 104.589 40.128 103.736 40.128ZM103.736 38.704C104.355 38.704 104.925 38.5973 105.448 38.384C105.981 38.1707 106.44 37.872 106.824 37.488C107.219 37.0933 107.523 36.6347 107.736 36.112C107.96 35.5893 108.072 35.0187 108.072 34.4C108.072 33.7813 107.96 33.2107 107.736 32.688C107.523 32.1653 107.219 31.712 106.824 31.328C106.44 30.9333 105.981 30.6293 105.448 30.416C104.925 30.2027 104.355 30.096 103.736 30.096C103.107 30.096 102.525 30.2027 101.992 30.416C101.469 30.6293 101.011 30.9333 100.616 31.328C100.221 31.712 99.912 32.1653 99.688 32.688C99.4747 33.2107 99.368 33.7813 99.368 34.4C99.368 35.0187 99.4747 35.5893 99.688 36.112C99.912 36.6347 100.221 37.0933 100.616 37.488C101.011 37.872 101.469 38.1707 101.992 38.384C102.525 38.5973 103.107 38.704 103.736 38.704ZM112.118 40V30.768C112.118 29.936 112.358 29.2747 112.838 28.784C113.328 28.2827 114.022 28.032 114.918 28.032C115.248 28.032 115.563 28.0747 115.862 28.16C116.171 28.2347 116.432 28.3573 116.646 28.528L116.182 29.696C116.022 29.568 115.84 29.472 115.638 29.408C115.435 29.3333 115.222 29.296 114.998 29.296C114.55 29.296 114.208 29.424 113.974 29.68C113.739 29.9253 113.622 30.2933 113.622 30.784V31.92L113.654 32.624V40H112.118ZM110.678 32.784V31.52H116.086V32.784H110.678ZM117.758 40V30.768C117.758 29.936 117.998 29.2747 118.478 28.784C118.969 28.2827 119.662 28.032 120.558 28.032C120.889 28.032 121.203 28.0747 121.502 28.16C121.811 28.2347 122.073 28.3573 122.286 28.528L121.822 29.696C121.662 29.568 121.481 29.472 121.278 29.408C121.075 29.3333 120.862 29.296 120.638 29.296C120.19 29.296 119.849 29.424 119.614 29.68C119.379 29.9253 119.262 30.2933 119.262 30.784V31.92L119.294 32.624V40H117.758ZM116.318 32.784V31.52H121.726V32.784H116.318ZM123.182 40V28.128H124.718V40H123.182ZM127.644 40V31.52H129.18V40H127.644ZM128.412 29.888C128.113 29.888 127.862 29.792 127.66 29.6C127.468 29.408 127.372 29.1733 127.372 28.896C127.372 28.608 127.468 28.368 127.66 28.176C127.862 27.984 128.113 27.888 128.412 27.888C128.71 27.888 128.956 27.984 129.148 28.176C129.35 28.3573 129.452 28.5867 129.452 28.864C129.452 29.152 129.356 29.3973 129.164 29.6C128.972 29.792 128.721 29.888 128.412 29.888ZM136.64 31.44C137.334 31.44 137.942 31.5733 138.464 31.84C138.998 32.1067 139.414 32.512 139.712 33.056C140.011 33.6 140.16 34.288 140.16 35.12V40H138.624V35.296C138.624 34.4747 138.422 33.856 138.016 33.44C137.622 33.024 137.062 32.816 136.336 32.816C135.792 32.816 135.318 32.9227 134.912 33.136C134.507 33.3493 134.192 33.664 133.968 34.08C133.755 34.496 133.648 35.0133 133.648 35.632V40H132.112V31.52H133.584V33.808L133.344 33.2C133.622 32.6453 134.048 32.2133 134.624 31.904C135.2 31.5947 135.872 31.44 136.64 31.44ZM146.779 40.096C145.872 40.096 145.072 39.9093 144.379 39.536C143.696 39.1627 143.163 38.6507 142.779 38C142.406 37.3493 142.219 36.6027 142.219 35.76C142.219 34.9173 142.4 34.1707 142.763 33.52C143.136 32.8693 143.643 32.3627 144.283 32C144.934 31.6267 145.664 31.44 146.475 31.44C147.296 31.44 148.022 31.6213 148.651 31.984C149.28 32.3467 149.771 32.8587 150.123 33.52C150.486 34.1707 150.667 34.9333 150.667 35.808C150.667 35.872 150.662 35.9467 150.651 36.032C150.651 36.1173 150.646 36.1973 150.635 36.272H143.419V35.168H149.835L149.211 35.552C149.222 35.008 149.11 34.5227 148.875 34.096C148.64 33.6693 148.315 33.3387 147.899 33.104C147.494 32.8587 147.019 32.736 146.475 32.736C145.942 32.736 145.467 32.8587 145.051 33.104C144.635 33.3387 144.31 33.6747 144.075 34.112C143.84 34.5387 143.723 35.0293 143.723 35.584V35.84C143.723 36.4053 143.851 36.912 144.107 37.36C144.374 37.7973 144.742 38.1387 145.211 38.384C145.68 38.6293 146.219 38.752 146.827 38.752C147.328 38.752 147.782 38.6667 148.187 38.496C148.603 38.3253 148.966 38.0693 149.275 37.728L150.123 38.72C149.739 39.168 149.259 39.5093 148.683 39.744C148.118 39.9787 147.483 40.096 146.779 40.096ZM160.601 40.096C159.779 40.096 159.043 39.9147 158.393 39.552C157.753 39.1893 157.246 38.6827 156.873 38.032C156.499 37.3813 156.313 36.624 156.313 35.76C156.313 34.896 156.499 34.144 156.873 33.504C157.246 32.8533 157.753 32.3467 158.393 31.984C159.043 31.6213 159.779 31.44 160.601 31.44C161.315 31.44 161.961 31.6 162.537 31.92C163.113 32.24 163.571 32.72 163.913 33.36C164.265 34 164.441 34.8 164.441 35.76C164.441 36.72 164.27 37.52 163.929 38.16C163.598 38.8 163.145 39.2853 162.569 39.616C161.993 39.936 161.337 40.096 160.601 40.096ZM160.729 38.752C161.262 38.752 161.742 38.6293 162.169 38.384C162.606 38.1387 162.947 37.792 163.193 37.344C163.449 36.8853 163.577 36.3573 163.577 35.76C163.577 35.152 163.449 34.6293 163.193 34.192C162.947 33.744 162.606 33.3973 162.169 33.152C161.742 32.9067 161.262 32.784 160.729 32.784C160.185 32.784 159.699 32.9067 159.273 33.152C158.846 33.3973 158.505 33.744 158.249 34.192C157.993 34.6293 157.865 35.152 157.865 35.76C157.865 36.3573 157.993 36.8853 158.249 37.344C158.505 37.792 158.846 38.1387 159.273 38.384C159.699 38.6293 160.185 38.752 160.729 38.752ZM163.625 40V37.712L163.721 35.744L163.561 33.776V28.128H165.097V40H163.625ZM173.267 40V38.208L173.187 37.872V34.816C173.187 34.1653 172.995 33.664 172.611 33.312C172.238 32.9493 171.672 32.768 170.915 32.768C170.414 32.768 169.923 32.8533 169.443 33.024C168.963 33.184 168.558 33.4027 168.227 33.68L167.587 32.528C168.024 32.176 168.547 31.9093 169.155 31.728C169.774 31.536 170.419 31.44 171.091 31.44C172.254 31.44 173.15 31.7227 173.779 32.288C174.408 32.8533 174.723 33.7173 174.723 34.88V40H173.267ZM170.483 40.096C169.854 40.096 169.299 39.9893 168.819 39.776C168.35 39.5627 167.987 39.2693 167.731 38.896C167.475 38.512 167.347 38.08 167.347 37.6C167.347 37.1413 167.454 36.7253 167.667 36.352C167.891 35.9787 168.248 35.68 168.739 35.456C169.24 35.232 169.912 35.12 170.755 35.12H173.443V36.224H170.819C170.051 36.224 169.534 36.352 169.267 36.608C169 36.864 168.867 37.1733 168.867 37.536C168.867 37.952 169.032 38.288 169.363 38.544C169.694 38.7893 170.152 38.912 170.739 38.912C171.315 38.912 171.816 38.784 172.243 38.528C172.68 38.272 172.995 37.8987 173.187 37.408L173.491 38.464C173.288 38.9653 172.931 39.3653 172.419 39.664C171.907 39.952 171.262 40.096 170.483 40.096ZM180.477 40.096C179.624 40.096 178.963 39.8667 178.493 39.408C178.024 38.9493 177.789 38.2933 177.789 37.44V29.664H179.325V37.376C179.325 37.8347 179.437 38.1867 179.661 38.432C179.896 38.6773 180.227 38.8 180.653 38.8C181.133 38.8 181.533 38.6667 181.853 38.4L182.333 39.504C182.099 39.7067 181.816 39.856 181.485 39.952C181.165 40.048 180.829 40.096 180.477 40.096ZM176.349 32.784V31.52H181.757V32.784H176.349ZM189.454 40V38.208L189.374 37.872V34.816C189.374 34.1653 189.182 33.664 188.798 33.312C188.425 32.9493 187.86 32.768 187.102 32.768C186.601 32.768 186.11 32.8533 185.63 33.024C185.15 33.184 184.745 33.4027 184.414 33.68L183.774 32.528C184.212 32.176 184.734 31.9093 185.342 31.728C185.961 31.536 186.606 31.44 187.278 31.44C188.441 31.44 189.337 31.7227 189.966 32.288C190.596 32.8533 190.91 33.7173 190.91 34.88V40H189.454ZM186.67 40.096C186.041 40.096 185.486 39.9893 185.006 39.776C184.537 39.5627 184.174 39.2693 183.918 38.896C183.662 38.512 183.534 38.08 183.534 37.6C183.534 37.1413 183.641 36.7253 183.854 36.352C184.078 35.9787 184.436 35.68 184.926 35.456C185.428 35.232 186.1 35.12 186.942 35.12H189.63V36.224H187.006C186.238 36.224 185.721 36.352 185.454 36.608C185.188 36.864 185.054 37.1733 185.054 37.536C185.054 37.952 185.22 38.288 185.55 38.544C185.881 38.7893 186.34 38.912 186.926 38.912C187.502 38.912 188.004 38.784 188.43 38.528C188.868 38.272 189.182 37.8987 189.374 37.408L189.678 38.464C189.476 38.9653 189.118 39.3653 188.606 39.664C188.094 39.952 187.449 40.096 186.67 40.096ZM201.746 40.096C200.882 40.096 200.108 39.9093 199.426 39.536C198.754 39.1627 198.226 38.6507 197.842 38C197.458 37.3493 197.266 36.6027 197.266 35.76C197.266 34.9173 197.458 34.1707 197.842 33.52C198.226 32.8693 198.754 32.3627 199.426 32C200.108 31.6267 200.882 31.44 201.746 31.44C202.514 31.44 203.196 31.5947 203.794 31.904C204.402 32.2027 204.871 32.6507 205.202 33.248L204.034 34C203.756 33.584 203.415 33.28 203.01 33.088C202.615 32.8853 202.188 32.784 201.73 32.784C201.175 32.784 200.679 32.9067 200.242 33.152C199.804 33.3973 199.458 33.744 199.202 34.192C198.946 34.6293 198.818 35.152 198.818 35.76C198.818 36.368 198.946 36.896 199.202 37.344C199.458 37.792 199.804 38.1387 200.242 38.384C200.679 38.6293 201.175 38.752 201.73 38.752C202.188 38.752 202.615 38.656 203.01 38.464C203.415 38.2613 203.756 37.952 204.034 37.536L205.202 38.272C204.871 38.8587 204.402 39.312 203.794 39.632C203.196 39.9413 202.514 40.096 201.746 40.096ZM210.697 40.096C209.844 40.096 209.087 39.9093 208.425 39.536C207.764 39.1627 207.241 38.6507 206.857 38C206.473 37.3387 206.281 36.592 206.281 35.76C206.281 34.9173 206.473 34.1707 206.857 33.52C207.241 32.8693 207.764 32.3627 208.425 32C209.087 31.6267 209.844 31.44 210.697 31.44C211.54 31.44 212.292 31.6267 212.953 32C213.625 32.3627 214.148 32.8693 214.521 33.52C214.905 34.16 215.097 34.9067 215.097 35.76C215.097 36.6027 214.905 37.3493 214.521 38C214.148 38.6507 213.625 39.1627 212.953 39.536C212.292 39.9093 211.54 40.096 210.697 40.096ZM210.697 38.752C211.241 38.752 211.727 38.6293 212.153 38.384C212.591 38.1387 212.932 37.792 213.177 37.344C213.423 36.8853 213.545 36.3573 213.545 35.76C213.545 35.152 213.423 34.6293 213.177 34.192C212.932 33.744 212.591 33.3973 212.153 33.152C211.727 32.9067 211.241 32.784 210.697 32.784C210.153 32.784 209.668 32.9067 209.241 33.152C208.815 33.3973 208.473 33.744 208.217 34.192C207.961 34.6293 207.833 35.152 207.833 35.76C207.833 36.3573 207.961 36.8853 208.217 37.344C208.473 37.792 208.815 38.1387 209.241 38.384C209.668 38.6293 210.153 38.752 210.697 38.752ZM217.222 40V28.128H218.758V40H217.222ZM221.69 40V28.128H223.226V40H221.69ZM229.935 40.096C229.028 40.096 228.228 39.9093 227.535 39.536C226.852 39.1627 226.319 38.6507 225.935 38C225.562 37.3493 225.375 36.6027 225.375 35.76C225.375 34.9173 225.556 34.1707 225.919 33.52C226.292 32.8693 226.799 32.3627 227.439 32C228.09 31.6267 228.82 31.44 229.631 31.44C230.452 31.44 231.178 31.6213 231.807 31.984C232.436 32.3467 232.927 32.8587 233.279 33.52C233.642 34.1707 233.823 34.9333 233.823 35.808C233.823 35.872 233.818 35.9467 233.807 36.032C233.807 36.1173 233.802 36.1973 233.791 36.272H226.575V35.168H232.991L232.367 35.552C232.378 35.008 232.266 34.5227 232.031 34.096C231.796 33.6693 231.471 33.3387 231.055 33.104C230.65 32.8587 230.175 32.736 229.631 32.736C229.098 32.736 228.623 32.8587 228.207 33.104C227.791 33.3387 227.466 33.6747 227.231 34.112C226.996 34.5387 226.879 35.0293 226.879 35.584V35.84C226.879 36.4053 227.007 36.912 227.263 37.36C227.53 37.7973 227.898 38.1387 228.367 38.384C228.836 38.6293 229.375 38.752 229.983 38.752C230.484 38.752 230.938 38.6667 231.343 38.496C231.759 38.3253 232.122 38.0693 232.431 37.728L233.279 38.72C232.895 39.168 232.415 39.5093 231.839 39.744C231.274 39.9787 230.639 40.096 229.935 40.096ZM239.652 40.096C238.788 40.096 238.015 39.9093 237.332 39.536C236.66 39.1627 236.132 38.6507 235.748 38C235.364 37.3493 235.172 36.6027 235.172 35.76C235.172 34.9173 235.364 34.1707 235.748 33.52C236.132 32.8693 236.66 32.3627 237.332 32C238.015 31.6267 238.788 31.44 239.652 31.44C240.42 31.44 241.103 31.5947 241.7 31.904C242.308 32.2027 242.777 32.6507 243.108 33.248L241.94 34C241.663 33.584 241.321 33.28 240.916 33.088C240.521 32.8853 240.095 32.784 239.636 32.784C239.081 32.784 238.585 32.9067 238.148 33.152C237.711 33.3973 237.364 33.744 237.108 34.192C236.852 34.6293 236.724 35.152 236.724 35.76C236.724 36.368 236.852 36.896 237.108 37.344C237.364 37.792 237.711 38.1387 238.148 38.384C238.585 38.6293 239.081 38.752 239.636 38.752C240.095 38.752 240.521 38.656 240.916 38.464C241.321 38.2613 241.663 37.952 241.94 37.536L243.108 38.272C242.777 38.8587 242.308 39.312 241.7 39.632C241.103 39.9413 240.42 40.096 239.652 40.096ZM248.118 40.096C247.265 40.096 246.603 39.8667 246.134 39.408C245.665 38.9493 245.43 38.2933 245.43 37.44V29.664H246.966V37.376C246.966 37.8347 247.078 38.1867 247.302 38.432C247.537 38.6773 247.867 38.8 248.294 38.8C248.774 38.8 249.174 38.6667 249.494 38.4L249.974 39.504C249.739 39.7067 249.457 39.856 249.126 39.952C248.806 40.048 248.47 40.096 248.118 40.096ZM243.99 32.784V31.52H249.398V32.784H243.99ZM251.831 40V31.52H253.367V40H251.831ZM252.599 29.888C252.3 29.888 252.05 29.792 251.847 29.6C251.655 29.408 251.559 29.1733 251.559 28.896C251.559 28.608 251.655 28.368 251.847 28.176C252.05 27.984 252.3 27.888 252.599 27.888C252.898 27.888 253.143 27.984 253.335 28.176C253.538 28.3573 253.639 28.5867 253.639 28.864C253.639 29.152 253.543 29.3973 253.351 29.6C253.159 29.792 252.908 29.888 252.599 29.888ZM259.932 40.096C259.078 40.096 258.321 39.9093 257.66 39.536C256.998 39.1627 256.476 38.6507 256.092 38C255.708 37.3387 255.516 36.592 255.516 35.76C255.516 34.9173 255.708 34.1707 256.092 33.52C256.476 32.8693 256.998 32.3627 257.66 32C258.321 31.6267 259.078 31.44 259.932 31.44C260.774 31.44 261.526 31.6267 262.188 32C262.86 32.3627 263.382 32.8693 263.756 33.52C264.14 34.16 264.332 34.9067 264.332 35.76C264.332 36.6027 264.14 37.3493 263.756 38C263.382 38.6507 262.86 39.1627 262.188 39.536C261.526 39.9093 260.774 40.096 259.932 40.096ZM259.932 38.752C260.476 38.752 260.961 38.6293 261.388 38.384C261.825 38.1387 262.166 37.792 262.412 37.344C262.657 36.8853 262.78 36.3573 262.78 35.76C262.78 35.152 262.657 34.6293 262.412 34.192C262.166 33.744 261.825 33.3973 261.388 33.152C260.961 32.9067 260.476 32.784 259.932 32.784C259.388 32.784 258.902 32.9067 258.476 33.152C258.049 33.3973 257.708 33.744 257.452 34.192C257.196 34.6293 257.068 35.152 257.068 35.76C257.068 36.3573 257.196 36.8853 257.452 37.344C257.708 37.792 258.049 38.1387 258.476 38.384C258.902 38.6293 259.388 38.752 259.932 38.752ZM270.984 31.44C271.677 31.44 272.285 31.5733 272.808 31.84C273.341 32.1067 273.757 32.512 274.056 33.056C274.355 33.6 274.504 34.288 274.504 35.12V40H272.968V35.296C272.968 34.4747 272.765 33.856 272.36 33.44C271.965 33.024 271.405 32.816 270.68 32.816C270.136 32.816 269.661 32.9227 269.256 33.136C268.851 33.3493 268.536 33.664 268.312 34.08C268.099 34.496 267.992 35.0133 267.992 35.632V40H266.456V31.52H267.928V33.808L267.688 33.2C267.965 32.6453 268.392 32.2133 268.968 31.904C269.544 31.5947 270.216 31.44 270.984 31.44Z" fill="#555555"/>
</g>
<defs>
<filter id="filter0_dddd_1_1263" x="0" y="0" width="335" height="201" filterUnits="userSpaceOnUse" color-interpolation-filters="sRGB">
<feFlood flood-opacity="0" result="BackgroundImageFix"/>
<feColorMatrix in="SourceAlpha" type="matrix" values="0 0 0 0 0 0 0 0 0 0 0 0 0 0 0 0 0 0 127 0" result="hardAlpha"/>
<feOffset dy="6"/>
<feGaussianBlur stdDeviation="7"/>
<feColorMatrix type="matrix" values="0 0 0 0 0.854902 0 0 0 0 0.839216 0 0 0 0 1 0 0 0 0.1 0"/>
<feBlend mode="normal" in2="BackgroundImageFix" result="effect1_dropShadow_1_1263"/>
<feColorMatrix in="SourceAlpha" type="matrix" values="0 0 0 0 0 0 0 0 0 0 0 0 0 0 0 0 0 0 127 0" result="hardAlpha"/>
<feOffset dy="25"/>
<feGaussianBlur stdDeviation="12.5"/>
<feColorMatrix type="matrix" values="0 0 0 0 0.854902 0 0 0 0 0.839216 0 0 0 0 1 0 0 0 0.09 0"/>
<feBlend mode="normal" in2="effect1_dropShadow_1_1263" result="effect2_dropShadow_1_1263"/>
<feColorMatrix in="SourceAlpha" type="matrix" values="0 0 0 0 0 0 0 0 0 0 0 0 0 0 0 0 0 0 127 0" result="hardAlpha"/>
<feOffset dy="57"/>
<feGaussianBlur stdDeviation="17"/>
<feColorMatrix type="matrix" values="0 0 0 0 0.854902 0 0 0 0 0.839216 0 0 0 0 1 0 0 0 0.05 0"/>
<feBlend mode="normal" in2="effect2_dropShadow_1_1263" result="effect3_dropShadow_1_1263"/>
<feColorMatrix in="SourceAlpha" type="matrix" values="0 0 0 0 0 0 0 0 0 0 0 0 0 0 0 0 0 0 127 0" result="hardAlpha"/>
<feOffset dy="101"/>
<feGaussianBlur stdDeviation="20"/>
<feColorMatrix type="matrix" values="0 0 0 0 0.854902 0 0 0 0 0.839216 0 0 0 0 1 0 0 0 0.01 0"/>
<feBlend mode="normal" in2="effect3_dropShadow_1_1263" result="effect4_dropShadow_1_1263"/>
<feBlend mode="normal" in="SourceGraphic" in2="effect4_dropShadow_1_1263" result="shape"/>
</filter>
<clipPath id="clip0_1_1263">
<rect width="32" height="32" fill="white" transform="translate(50 18)"/>
</clipPath>
</defs>
</svg>
