<svg width="21" height="20" viewBox="0 0 21 20" fill="none" xmlns="http://www.w3.org/2000/svg">
<path d="M10.5 0.25C8.57164 0.25 6.68657 0.821828 5.08319 1.89317C3.47982 2.96451 2.23013 4.48726 1.49218 6.26884C0.754225 8.05042 0.561142 10.0108 0.937348 11.9021C1.31355 13.7934 2.24215 15.5307 3.60571 16.8943C4.96928 18.2579 6.70656 19.1865 8.59787 19.5627C10.4892 19.9389 12.4496 19.7458 14.2312 19.0078C16.0127 18.2699 17.5355 17.0202 18.6068 15.4168C19.6782 13.8134 20.25 11.9284 20.25 10C20.2473 7.41498 19.2192 4.93661 17.3913 3.10872C15.5634 1.28084 13.085 0.25273 10.5 0.25ZM10.5 18.25C8.86831 18.25 7.27326 17.7661 5.91655 16.8596C4.55984 15.9531 3.50242 14.6646 2.878 13.1571C2.25358 11.6496 2.0902 9.99085 2.40853 8.3905C2.72685 6.79016 3.51259 5.32015 4.66637 4.16637C5.82016 3.01259 7.29017 2.22685 8.89051 1.90852C10.4909 1.59019 12.1497 1.75357 13.6571 2.37799C15.1646 3.00242 16.4531 4.05984 17.3596 5.41655C18.2661 6.77325 18.75 8.3683 18.75 10C18.7475 12.1873 17.8775 14.2843 16.3309 15.8309C14.7843 17.3775 12.6873 18.2475 10.5 18.25ZM7.5 10C7.5 10.6296 7.69812 11.2433 8.06628 11.7541C8.43444 12.2649 8.95399 12.6469 9.55132 12.8461C10.1487 13.0452 10.7935 13.0513 11.3945 12.8635C11.9955 12.6758 12.5222 12.3037 12.9 11.8C13.0195 11.6409 13.1973 11.5357 13.3943 11.5077C13.5913 11.4796 13.7913 11.531 13.9505 11.6505C14.1096 11.7699 14.2148 11.9477 14.2428 12.1447C14.2708 12.3417 14.2195 12.5418 14.1 12.7009C13.5332 13.4563 12.7431 14.0142 11.8416 14.2956C10.9402 14.577 9.973 14.5676 9.07713 14.2689C8.18126 13.9701 7.40208 13.3971 6.84995 12.631C6.29781 11.8648 6.00071 10.9444 6.00071 10C6.00071 9.05563 6.29781 8.13519 6.84995 7.36904C7.40208 6.60289 8.18126 6.02986 9.07713 5.73111C9.973 5.43236 10.9402 5.42302 11.8416 5.70443C12.7431 5.98583 13.5332 6.54371 14.1 7.29906C14.1592 7.37786 14.2022 7.46753 14.2267 7.56296C14.2512 7.6584 14.2567 7.75772 14.2428 7.85527C14.2289 7.95281 14.196 8.04667 14.1458 8.13147C14.0956 8.21628 14.0293 8.29037 13.9505 8.34953C13.8717 8.40869 13.782 8.45175 13.6866 8.47625C13.5911 8.50075 13.4918 8.50621 13.3943 8.49232C13.2967 8.47844 13.2029 8.44548 13.1181 8.39532C13.0333 8.34516 12.9592 8.27879 12.9 8.2C12.5222 7.69628 11.9955 7.3242 11.3945 7.13646C10.7935 6.94872 10.1487 6.95484 9.55132 7.15395C8.95399 7.35306 8.43444 7.73507 8.06628 8.24587C7.69812 8.75667 7.5 9.37035 7.5 10Z" fill="#555555"/>
</svg>
