<svg width="120" height="120" viewBox="0 0 120 120" fill="none" xmlns="http://www.w3.org/2000/svg">
<circle cx="60" cy="60" r="60" fill="#4747D6" fill-opacity="0.1"/>
<path d="M68.7513 91.3538H51.2513C38.3888 91.3538 34.4805 87.4455 34.4805 74.583V45.4163C34.4805 32.5538 38.3888 28.6455 51.2513 28.6455H68.7513C81.6138 28.6455 85.5221 32.5538 85.5221 45.4163V74.583C85.5221 87.4455 81.6138 91.3538 68.7513 91.3538ZM51.2513 33.0205C40.8096 33.0205 38.8555 35.0038 38.8555 45.4163V74.583C38.8555 84.9955 40.8096 86.9788 51.2513 86.9788H68.7513C79.193 86.9788 81.1471 84.9955 81.1471 74.583V45.4163C81.1471 35.0038 79.193 33.0205 68.7513 33.0205H51.2513Z" fill="#4747D6"/>
<path d="M65.8346 43.2295H54.168C52.9721 43.2295 51.9805 42.2378 51.9805 41.042C51.9805 39.8462 52.9721 38.8545 54.168 38.8545H65.8346C67.0305 38.8545 68.0221 39.8462 68.0221 41.042C68.0221 42.2378 67.0305 43.2295 65.8346 43.2295Z" fill="#4747D6"/>
<path d="M60.0013 82.9245C56.2971 82.9245 53.293 79.9203 53.293 76.2161C53.293 72.512 56.2971 69.5078 60.0013 69.5078C63.7055 69.5078 66.7096 72.512 66.7096 76.2161C66.7096 79.9203 63.7055 82.9245 60.0013 82.9245ZM60.0013 73.8536C58.718 73.8536 57.668 74.9036 57.668 76.187C57.668 77.4703 58.718 78.5203 60.0013 78.5203C61.2846 78.5203 62.3346 77.4703 62.3346 76.187C62.3346 74.9036 61.2846 73.8536 60.0013 73.8536Z" fill="#4747D6"/>
</svg>
