<svg width="53" height="52" viewBox="0 0 53 52" fill="none" xmlns="http://www.w3.org/2000/svg">
<rect x="0.5" width="52" height="52" rx="26" fill="#E3D5FF"/>
<path fill-rule="evenodd" clip-rule="evenodd" d="M26.4998 15L36.1985 15.2733C37.0274 15.2969 37.8201 15.6186 38.4309 16.1795C39.0418 16.7404 39.4298 17.5027 39.5238 18.3267C39.9552 22.0966 39.9552 25.9034 39.5238 29.6733C39.4298 30.4973 39.0418 31.2596 38.4309 31.8205C37.8201 32.3814 37.0274 32.7031 36.1985 32.7267L28.8332 32.9347V35.668H33.1665C33.4317 35.668 33.6861 35.7734 33.8736 35.9609C34.0611 36.1484 34.1665 36.4028 34.1665 36.668C34.1665 36.9332 34.0611 37.1876 33.8736 37.3751C33.6861 37.5626 33.4317 37.668 33.1665 37.668H19.8332C19.5679 37.668 19.3136 37.5626 19.1261 37.3751C18.9385 37.1876 18.8332 36.9332 18.8332 36.668C18.8332 36.4028 18.9385 36.1484 19.1261 35.9609C19.3136 35.7734 19.5679 35.668 19.8332 35.668H24.1665V32.9333L16.8012 32.7253C15.9722 32.7018 15.1796 32.3801 14.5687 31.8192C13.9579 31.2583 13.5698 30.4959 13.4758 29.672C13.0445 25.9021 13.0445 22.0953 13.4758 18.3253C13.5698 17.5014 13.9579 16.739 14.5687 16.1781C15.1796 15.6173 15.9722 15.2955 16.8012 15.272L26.4998 15ZM26.4998 17L16.8585 17.2733C16.1385 17.2933 15.5452 17.8387 15.4625 18.5533C15.0484 22.1726 15.0484 25.8274 15.4625 29.4467C15.5452 30.1613 16.1385 30.7067 16.8585 30.7267L26.4985 31L36.1412 30.7267C36.8612 30.7067 37.4545 30.1613 37.5372 29.4467C37.9512 25.8274 37.9512 22.1726 37.5372 18.5533C37.4975 18.2077 37.3345 17.8879 37.078 17.6528C36.8216 17.4177 36.4889 17.2829 36.1412 17.2733L26.4998 17Z" fill="#4747D6"/>
</svg>
