<svg width="80" height="80" viewBox="0 0 80 80" fill="none" xmlns="http://www.w3.org/2000/svg">
<circle cx="40" cy="40" r="40" fill="#F7EDFB"/>
<path d="M41.3126 42.7031V42.027V19.1666C41.3126 18.8185 41.1743 18.4847 40.9282 18.2385C40.682 17.9924 40.3482 17.8541 40.0001 17.8541C39.652 17.8541 39.3181 17.9924 39.072 18.2385C38.8259 18.4847 38.6876 18.8185 38.6876 19.1666V42.025V42.7008L38.2478 42.1877L34.7478 38.1043L34.7477 38.1042C34.6355 37.9732 34.4987 37.8656 34.3449 37.7875C34.1911 37.7094 34.0235 37.6623 33.8516 37.649C33.6796 37.6356 33.5067 37.6563 33.3428 37.7098L33.2652 37.4721L33.3428 37.7098C33.1788 37.7633 33.027 37.8485 32.896 37.9607C32.765 38.0729 32.6574 38.2097 32.5793 38.3635C32.5011 38.5172 32.4541 38.6849 32.4408 38.8568C32.4274 39.0288 32.4481 39.2016 32.5016 39.3656C32.5551 39.5295 32.6403 39.6813 32.7524 39.8123L41.3126 42.7031ZM41.3126 42.7031L41.7524 42.1897L45.2524 38.1043L45.2525 38.1042C45.3647 37.9732 45.5015 37.8656 45.6553 37.7875C45.809 37.7094 45.9767 37.6623 46.1486 37.649C46.3205 37.6356 46.4934 37.6563 46.6574 37.7098C46.8213 37.7633 46.9732 37.8485 47.1042 37.9607C47.2352 38.0729 47.3428 38.2097 47.4209 38.3635C47.499 38.5172 47.5461 38.6849 47.5594 38.8568C47.5727 39.0288 47.5521 39.2016 47.4986 39.3656C47.4451 39.5296 47.3598 39.6814 47.2477 39.8124L40.9978 47.1039L40.9976 47.1041C40.8744 47.2482 40.7214 47.3639 40.5492 47.4432C40.377 47.5226 40.1897 47.5636 40.0001 47.5636C39.8105 47.5636 39.6232 47.5226 39.451 47.4432C39.2788 47.3639 39.1258 47.2482 39.0026 47.1041L39.0024 47.1039L32.7525 39.8124L41.3126 42.7031ZM29.5904 35.0666H29.5904C29.9385 35.0648 30.2716 34.9247 30.5164 34.6773C30.7613 34.4298 30.8978 34.0952 30.8959 33.7471C30.8941 33.399 30.754 33.0659 30.5065 32.8211C30.2591 32.5763 29.9245 32.4398 29.5765 32.4416C27.3205 32.4541 25.4643 32.5087 23.9535 32.7854C22.4065 33.0691 21.1156 33.6068 20.0687 34.6516C18.8706 35.8517 18.3421 37.3694 18.0958 39.2163L18.0958 39.2167C17.8548 41.0025 17.8542 43.2809 17.8542 46.1354V48.4479C17.8542 51.3023 17.8548 53.5808 18.0958 55.3665L18.0958 55.3667C18.3442 57.2142 18.8687 58.7317 20.0685 59.9315C21.2685 61.1315 22.786 61.658 24.6334 61.9064C26.4193 62.1453 28.6978 62.1458 31.5522 62.1458H48.448C51.3022 62.1458 53.5806 62.1453 55.3665 61.9064C57.2143 61.6559 58.7318 61.1314 59.9316 59.9315C61.1315 58.7317 61.656 57.2142 61.9065 55.3664C61.9065 55.3664 61.9065 55.3664 61.9065 55.3664L62.1543 55.4C62.3959 53.5937 62.3959 51.2979 62.3959 48.4479V46.1354L29.5904 35.0666ZM29.5904 35.0666C27.3155 35.0791 25.6797 35.137 24.4279 35.3666L24.4274 35.3667C23.2168 35.5912 22.4786 35.9554 21.9254 36.5086C21.2941 37.1399 20.906 38.0119 20.6961 39.5686L20.696 39.5689C20.4829 41.1623 20.4792 43.2674 20.4792 46.25V48.3333C20.4792 51.3179 20.4829 53.4231 20.696 55.0164L20.6961 55.0167C20.9061 56.5742 21.2965 57.4433 21.9247 58.0761L21.9257 58.0771C22.5568 58.7059 23.4264 59.094 24.9853 59.304L29.5904 35.0666Z" fill="#790EA4" stroke="#F7EDFB" stroke-width="0.5"/>
</svg>
