<svg width="80" height="80" viewBox="0 0 80 80" fill="none" xmlns="http://www.w3.org/2000/svg">
<circle cx="40" cy="40" r="40" fill="#F7EDFB"/>
<path d="M41.3099 42.7025V42.0264V19.166C41.3099 18.8179 41.1716 18.4841 40.9255 18.2379C40.6793 17.9918 40.3455 17.8535 39.9974 17.8535C39.6493 17.8535 39.3155 17.9918 39.0693 18.2379C38.8232 18.4841 38.6849 18.8179 38.6849 19.166V42.0244V42.7002L38.2451 42.187L34.7451 38.1037L34.745 38.1036C34.6328 37.9726 34.496 37.865 34.3422 37.7869C34.1885 37.7087 34.0208 37.6617 33.8489 37.6484C33.6769 37.635 33.5041 37.6557 33.3401 37.7092L33.2626 37.4715L33.3401 37.7092C33.1761 37.7627 33.0243 37.8479 32.8933 37.9601C32.7623 38.0723 32.6547 38.2091 32.5766 38.3629C32.4985 38.5166 32.4514 38.6843 32.4381 38.8562C32.4247 39.0281 32.4454 39.201 32.4989 39.365C32.5524 39.5289 32.6376 39.6807 32.7497 39.8117L41.3099 42.7025ZM41.3099 42.7025L41.7498 42.1891L45.2498 38.1037L45.2498 38.1036C45.362 37.9726 45.4988 37.865 45.6526 37.7869C45.8063 37.7087 45.974 37.6617 46.1459 37.6484C46.3179 37.635 46.4907 37.6557 46.6547 37.7092C46.8187 37.7627 46.9705 37.8479 47.1015 37.9601C47.2325 38.0723 47.3401 38.2091 47.4182 38.3629C47.4963 38.5166 47.5434 38.6843 47.5567 38.8562C47.5701 39.0281 47.5494 39.201 47.4959 39.365C47.4424 39.5289 47.3571 39.6808 47.245 39.8118L40.9951 47.1033L40.9949 47.1035C40.8717 47.2476 40.7187 47.3633 40.5465 47.4426C40.3743 47.5219 40.187 47.563 39.9974 47.563C39.8078 47.563 39.6205 47.5219 39.4483 47.4426C39.2761 47.3633 39.1231 47.2476 38.9999 47.1035L38.9997 47.1033L32.7498 39.8118L41.3099 42.7025ZM29.5877 35.066H29.5877C29.9358 35.0642 30.2689 34.9241 30.5138 34.6766C30.7586 34.4292 30.8951 34.0946 30.8932 33.7465C30.8914 33.3984 30.7513 33.0653 30.5039 32.8205C30.2564 32.5757 29.9219 32.4392 29.5738 32.441C27.3178 32.4535 25.4616 32.5081 23.9508 32.7848C22.4038 33.0685 21.1129 33.6062 20.066 34.651C18.8679 35.851 18.3394 37.3688 18.0931 39.2157L18.0931 39.2161C17.8521 41.0019 17.8516 43.2803 17.8516 46.1348V48.4473C17.8516 51.3017 17.8521 53.5801 18.0931 55.3659L18.0931 55.366C18.3415 57.2136 18.866 58.7311 20.0658 59.9309C21.2658 61.1308 22.7834 61.6574 24.6307 61.9058C26.4166 62.1447 28.6952 62.1452 31.5495 62.1452H48.4453C51.2995 62.1452 53.5779 62.1447 55.3638 61.9058C57.2116 61.6553 58.7291 61.1308 59.929 59.9309C61.1288 58.7311 61.6534 57.2136 61.9038 55.3658C61.9038 55.3658 61.9038 55.3658 61.9038 55.3658L62.1516 55.3994C62.3932 53.5931 62.3932 51.2973 62.3932 48.4473V46.1348L29.5877 35.066ZM29.5877 35.066C27.3128 35.0785 25.6771 35.1364 24.4252 35.3659L24.4247 35.366C23.2141 35.5906 22.4759 35.9548 21.9227 36.508C21.2914 37.1393 20.9034 38.0113 20.6934 39.568L20.6934 39.5683C20.4802 41.1616 20.4766 43.2668 20.4766 46.2494V48.3327C20.4766 51.3173 20.4802 53.4225 20.6934 55.0158L20.6934 55.0161C20.9035 56.5736 21.2938 57.4426 21.9221 58.0755L21.923 58.0764C22.5541 58.7053 23.4237 59.0934 24.9826 59.3033L29.5877 35.066Z" fill="#790EA4" stroke="#F7EDFB" stroke-width="0.5"/>
</svg>
