<svg width="31" height="30" viewBox="0 0 31 30" fill="none" xmlns="http://www.w3.org/2000/svg">
<path fill-rule="evenodd" clip-rule="evenodd" d="M13.879 16.1255L16.0015 17.5767L18.0475 16.1652L22.6337 20.69C22.5127 20.7295 22.3848 20.7495 22.2498 20.75H9.75025C9.58525 20.75 9.42775 20.7177 9.283 20.66L13.879 16.1255ZM23.5 12.407V19.4998C23.5 19.685 23.4595 19.8605 23.3875 20.0187L18.892 15.5833L23.5 12.407ZM8.5 12.4467L13.0315 15.5457L8.5795 19.9393C8.52735 19.7986 8.50043 19.6498 8.5 19.4998V12.4467ZM22.2498 9.5C22.9397 9.5 23.5 10.0595 23.5 10.7502V11.1897L15.9985 16.361L8.5 11.2325V10.7502C8.5 10.0602 9.0595 9.5 9.75025 9.5H22.2498Z" fill="#E3E3F8"/>
<circle cx="15.5" cy="15" r="14.5" stroke="#E3E3F8"/>
</svg>
