<svg width="301" height="242" viewBox="0 0 301 242" fill="none" xmlns="http://www.w3.org/2000/svg">
<g filter="url(#filter0_f_9234_4327)">
<ellipse cx="150.5" cy="121" rx="50.5" ry="21" fill="#909090"/>
</g>
<g clip-path="url(#clip0_9234_4327)">
<rect x="101" y="47" width="100" height="72" rx="12" fill="white"/>
<path d="M192.53 118.783H109.475C104.265 118.783 102.307 114.378 102.002 112.053L101.992 82.5779C101.993 82.4224 102.022 82.2683 102.077 82.1229L113.735 52.1529C114.331 50.6523 115.376 49.3726 116.728 48.4891C118.079 47.6056 119.671 47.1617 121.285 47.2179H180.68C182.307 47.1596 183.912 47.6072 185.275 48.4991C186.637 49.3909 187.69 50.6832 188.287 52.1979L199.925 82.1229C199.98 82.2683 200.009 82.4224 200.01 82.5779V111.89C199.697 114.38 197.742 118.783 192.53 118.783ZM104.492 82.8129V111.89C104.545 112.188 105.245 116.285 109.475 116.285H192.53C196.875 116.285 197.495 111.915 197.52 111.73L197.51 82.8154L185.94 53.0654C185.877 52.8929 184.685 49.7229 180.722 49.7229H121.33C117.257 49.7229 116.095 52.9829 116.082 53.0154L104.492 82.8129Z" fill="#EDEDFB" stroke="#D9D9FF" stroke-width="2"/>
<path d="M168.919 89.5458H133.094C132.919 89.5449 132.746 89.5075 132.586 89.4358C132.426 89.3642 132.283 89.2599 132.166 89.1297C132.049 88.9995 131.961 88.8463 131.906 88.6798C131.852 88.5134 131.833 88.3374 131.851 88.1633C132.156 85.2858 131.771 83.1508 130.729 81.9933C129.699 80.8483 128.119 80.9358 127.976 80.9458L114.044 80.9583C113.84 80.9578 113.64 80.9076 113.46 80.8122C113.281 80.7168 113.127 80.579 113.013 80.4107C112.899 80.2425 112.827 80.0489 112.805 79.8468C112.782 79.6446 112.809 79.4401 112.884 79.2508L121.606 57.2158C121.698 56.9827 121.859 56.7828 122.066 56.6419C122.273 56.501 122.518 56.4257 122.769 56.4258H179.239C179.489 56.4257 179.734 56.501 179.941 56.6419C180.149 56.7828 180.309 56.9827 180.401 57.2158L189.004 78.9533C189.145 79.1386 189.231 79.3597 189.254 79.5917C189.276 79.8236 189.233 80.0571 189.129 80.2659C189.026 80.4747 188.866 80.6503 188.668 80.7731C188.47 80.8959 188.242 80.9609 188.009 80.9608H174.199C174.006 80.9458 173.911 80.9383 173.771 80.9383C173.194 80.9383 172.106 81.0758 171.279 81.9958C170.239 83.1558 169.851 85.2858 170.159 88.1658C170.178 88.34 170.161 88.5164 170.108 88.6834C170.054 88.8504 169.966 89.0042 169.849 89.1346C169.732 89.265 169.588 89.3691 169.428 89.44C169.267 89.5108 169.094 89.5469 168.919 89.5458ZM134.439 87.0458H167.571C167.451 84.0808 168.071 81.8233 169.419 80.3258C171.456 78.0608 174.379 78.4758 174.376 78.4733L186.119 78.4633L178.386 58.9258H123.619L115.886 78.4633H127.759C127.796 78.4558 127.984 78.4408 128.239 78.4408C129.231 78.4408 131.111 78.6858 132.589 80.3258C133.936 81.8233 134.559 84.0808 134.439 87.0458Z" fill="#EDEDFB" stroke="#D9D9FF" stroke-width="2"/>
</g>
<path d="M150.5 37.5196V12" stroke="#D9D9FF" stroke-width="2" stroke-linecap="round"/>
<path d="M119.522 34.0451L101.477 16" stroke="#D9D9FF" stroke-width="2" stroke-linecap="round"/>
<path d="M181.478 34.0451L199.523 16" stroke="#D9D9FF" stroke-width="2" stroke-linecap="round"/>
<defs>
<filter id="filter0_f_9234_4327" x="0" y="0" width="301" height="242" filterUnits="userSpaceOnUse" color-interpolation-filters="sRGB">
<feFlood flood-opacity="0" result="BackgroundImageFix"/>
<feBlend mode="normal" in="SourceGraphic" in2="BackgroundImageFix" result="shape"/>
<feGaussianBlur stdDeviation="50" result="effect1_foregroundBlur_9234_4327"/>
</filter>
<clipPath id="clip0_9234_4327">
<rect x="101" y="47" width="100" height="72" rx="12" fill="white"/>
</clipPath>
</defs>
</svg>
