<svg width="80" height="80" viewBox="0 0 80 80" fill="none" xmlns="http://www.w3.org/2000/svg">
<circle cx="40" cy="40" r="40" fill="#EDEDFB"/>
<path d="M46.2526 62.3957H33.7526C24.5651 62.3957 21.7734 59.604 21.7734 50.4165V29.5832C21.7734 20.3957 24.5651 17.604 33.7526 17.604H46.2526C55.4401 17.604 58.2318 20.3957 58.2318 29.5832V50.4165C58.2318 59.604 55.4401 62.3957 46.2526 62.3957ZM33.7526 20.729C26.2943 20.729 24.8984 22.1457 24.8984 29.5832V50.4165C24.8984 57.854 26.2943 59.2707 33.7526 59.2707H46.2526C53.7109 59.2707 55.1068 57.854 55.1068 50.4165V29.5832C55.1068 22.1457 53.7109 20.729 46.2526 20.729H33.7526Z" fill="#4747D6"/>
<path d="M44.1693 28.021H35.8359C34.9818 28.021 34.2734 27.3127 34.2734 26.4585C34.2734 25.6043 34.9818 24.896 35.8359 24.896H44.1693C45.0234 24.896 45.7318 25.6043 45.7318 26.4585C45.7318 27.3127 45.0234 28.021 44.1693 28.021Z" fill="#4747D6"/>
<path d="M40.0026 56.3751C37.3568 56.3751 35.2109 54.2292 35.2109 51.5834C35.2109 48.9376 37.3568 46.7917 40.0026 46.7917C42.6484 46.7917 44.7943 48.9376 44.7943 51.5834C44.7943 54.2292 42.6484 56.3751 40.0026 56.3751ZM40.0026 49.8959C39.0859 49.8959 38.3359 50.6459 38.3359 51.5626C38.3359 52.4792 39.0859 53.2292 40.0026 53.2292C40.9193 53.2292 41.6693 52.4792 41.6693 51.5626C41.6693 50.6459 40.9193 49.8959 40.0026 49.8959Z" fill="#4747D6"/>
</svg>
