<svg width="135" height="41" viewBox="0 0 135 41" fill="none" xmlns="http://www.w3.org/2000/svg">
<g clip-path="url(#clip0_9294_5473)">
<path d="M130 0.699219H5C2.23858 0.699219 0 2.93779 0 5.69922V35.6992C0 38.4606 2.23858 40.6992 5 40.6992H130C132.761 40.6992 135 38.4606 135 35.6992V5.69922C135 2.93779 132.761 0.699219 130 0.699219Z" fill="#333333"/>
<path d="M130 1.49922C131.114 1.49922 132.182 1.94172 132.97 2.72937C133.757 3.51702 134.2 4.58531 134.2 5.69922V35.6992C134.2 36.8131 133.757 37.8814 132.97 38.6691C132.182 39.4567 131.114 39.8992 130 39.8992H5C3.88609 39.8992 2.8178 39.4567 2.03015 38.6691C1.2425 37.8814 0.8 36.8131 0.8 35.6992V5.69922C0.8 4.58531 1.2425 3.51702 2.03015 2.72937C2.8178 1.94172 3.88609 1.49922 5 1.49922H130ZM130 0.699219H5C3.67392 0.699219 2.40215 1.226 1.46447 2.16368C0.526784 3.10137 0 4.37314 0 5.69922V35.6992C0 37.0253 0.526784 38.2971 1.46447 39.2348C2.40215 40.1724 3.67392 40.6992 5 40.6992H130C131.326 40.6992 132.598 40.1724 133.536 39.2348C134.473 38.2971 135 37.0253 135 35.6992V5.69922C135 4.37314 134.473 3.10137 133.536 2.16368C132.598 1.226 131.326 0.699219 130 0.699219Z" fill="#A6A6A6"/>
<path d="M47.4205 10.9385C47.4369 11.3052 47.3789 11.6714 47.25 12.0152C47.1212 12.3589 46.924 12.6729 46.6705 12.9385C46.3864 13.2317 46.0436 13.4617 45.6645 13.6134C45.2854 13.765 44.8785 13.8349 44.4705 13.8185C44.0602 13.8276 43.6523 13.7524 43.2722 13.5976C42.892 13.4428 42.5477 13.2117 42.2605 12.9185C41.6778 12.3224 41.3516 11.522 41.3516 10.6885C41.3516 9.85491 41.6778 9.05448 42.2605 8.45845C42.706 8.02313 43.2702 7.72919 43.8823 7.61354C44.4943 7.49789 45.1269 7.5657 45.7005 7.80845C46.0611 7.95668 46.3828 8.18594 46.6405 8.47845L46.1105 9.00845C45.9119 8.76922 45.6603 8.57959 45.3756 8.4546C45.0909 8.32962 44.781 8.27273 44.4705 8.28845C44.0785 8.29116 43.6932 8.38984 43.3482 8.57587C43.0031 8.76189 42.7089 9.02959 42.4912 9.35558C42.2735 9.68156 42.139 10.0559 42.0994 10.4459C42.0598 10.8359 42.1163 11.2296 42.264 11.5927C42.4117 11.9558 42.6461 12.2772 42.9467 12.5288C43.2473 12.7804 43.6049 12.9545 43.9883 13.036C44.3718 13.1175 44.7693 13.1038 45.1462 12.9961C45.5231 12.8885 45.8679 12.6901 46.1505 12.4185C46.456 12.0836 46.6331 11.6514 46.6505 11.1985H44.4705V10.4785H47.3805C47.4033 10.6308 47.4166 10.7844 47.4205 10.9385Z" fill="white" stroke="white" stroke-width="0.411304" stroke-miterlimit="10"/>
<path d="M51.9995 8.43922H49.2995V10.3392H51.7595V11.0592H49.2995V12.9592H51.9995V13.6992H48.5195V7.69922H51.9995V8.43922Z" fill="white" stroke="white" stroke-width="0.411304" stroke-miterlimit="10"/>
<path d="M55.2781 13.6992H54.5081V8.43922H52.8281V7.69922H56.9981V8.43922H55.2781V13.6992Z" fill="white" stroke="white" stroke-width="0.411304" stroke-miterlimit="10"/>
<path d="M59.9414 13.6992V7.69922H60.7114V13.6992H59.9414Z" fill="white" stroke="white" stroke-width="0.411304" stroke-miterlimit="10"/>
<path d="M64.1297 13.6992H63.3597V8.43922H61.6797V7.69922H65.7997V8.43922H64.1297V13.6992Z" fill="white" stroke="white" stroke-width="0.411304" stroke-miterlimit="10"/>
<path d="M73.6121 12.9194C73.3233 13.2084 72.9803 13.4377 72.6028 13.5942C72.2254 13.7506 71.8207 13.8312 71.4121 13.8312C71.0035 13.8312 70.5989 13.7506 70.2214 13.5942C69.8439 13.4377 69.5009 13.2084 69.2121 12.9194C68.6468 12.3184 68.332 11.5244 68.332 10.6994C68.332 9.8743 68.6468 9.08031 69.2121 8.47936C69.4947 8.18216 69.8366 7.9476 70.2155 7.79084C70.5945 7.63408 71.0022 7.55863 71.4121 7.56936C71.8215 7.56289 72.2279 7.64028 72.6062 7.79678C72.9846 7.95328 73.3269 8.18558 73.6121 8.47936C73.8997 8.77185 74.1257 9.11899 74.2768 9.50029C74.428 9.88159 74.5012 10.2893 74.4921 10.6994C74.5052 11.1099 74.4339 11.5188 74.2825 11.9007C74.1312 12.2826 73.903 12.6293 73.6121 12.9194ZM69.7821 12.4194C69.9951 12.6352 70.2489 12.8067 70.5287 12.9236C70.8086 13.0406 71.1088 13.1009 71.4121 13.1009C71.7154 13.1009 72.0157 13.0406 72.2955 12.9236C72.5753 12.8067 72.8291 12.6352 73.0421 12.4194C73.4736 11.9505 73.7131 11.3366 73.7131 10.6994C73.7131 10.0622 73.4736 9.44824 73.0421 8.97936C72.8291 8.76348 72.5753 8.59207 72.2955 8.47508C72.0157 8.35808 71.7154 8.29784 71.4121 8.29784C71.1088 8.29784 70.8086 8.35808 70.5287 8.47508C70.2489 8.59207 69.9951 8.76348 69.7821 8.97936C69.3506 9.44824 69.1111 10.0622 69.1111 10.6994C69.1111 11.3366 69.3506 11.9505 69.7821 12.4194Z" fill="white" stroke="white" stroke-width="0.411304" stroke-miterlimit="10"/>
<path d="M75.582 13.6992V7.69922H76.512L79.432 12.3692V11.2092V7.69922H80.202V13.6992H79.402L76.352 8.80922V9.95922V13.6992H75.582Z" fill="white" stroke="white" stroke-width="0.411304" stroke-miterlimit="10"/>
<path d="M68.1421 22.4491C67.2995 22.4511 66.4765 22.7029 65.777 23.1726C65.0776 23.6424 64.5331 24.309 64.2125 25.0881C63.8919 25.8673 63.8096 26.7241 63.9759 27.55C64.1422 28.376 64.5497 29.1341 65.1469 29.7285C65.744 30.3228 66.504 30.7268 67.3308 30.8892C68.1575 31.0516 69.0139 30.9653 69.7915 30.641C70.5692 30.3168 71.2332 29.7692 71.6997 29.0675C72.1661 28.3659 72.414 27.5417 72.4121 26.6991C72.4202 26.1371 72.3152 25.5791 72.1032 25.0585C71.8913 24.5379 71.5767 24.0652 71.1783 23.6686C70.7799 23.2721 70.3058 22.9598 69.7841 22.7503C69.2625 22.5408 68.7041 22.4383 68.1421 22.4491ZM68.1421 29.2791C67.6256 29.3153 67.1103 29.1952 66.663 28.9345C66.2157 28.6739 65.8572 28.2847 65.6341 27.8176C65.4109 27.3505 65.3334 26.827 65.4117 26.3153C65.49 25.8036 65.7204 25.3272 66.073 24.9482C66.4256 24.5691 66.8841 24.3049 67.3888 24.1899C67.8936 24.0749 68.4212 24.1144 68.9032 24.3032C69.3852 24.4921 69.7993 24.8216 70.0916 25.2488C70.3838 25.6761 70.5408 26.1815 70.5421 26.6991C70.5582 27.0272 70.5084 27.3551 70.3958 27.6636C70.2831 27.972 70.1099 28.2549 69.8862 28.4953C69.6625 28.7358 69.393 28.929 69.0934 29.0636C68.7938 29.1983 68.4704 29.2715 68.1421 29.2791ZM58.8221 22.4491C57.9795 22.4511 57.1565 22.7029 56.457 23.1726C55.7576 23.6424 55.2131 24.309 54.8925 25.0881C54.5719 25.8673 54.4896 26.7241 54.6559 27.55C54.8222 28.376 55.2297 29.1341 55.8269 29.7285C56.424 30.3228 57.184 30.7268 58.0108 30.8892C58.8375 31.0516 59.6939 30.9653 60.4715 30.641C61.2492 30.3168 61.9132 29.7692 62.3797 29.0675C62.8461 28.3659 63.094 27.5417 63.092 26.6991C63.1002 26.1371 62.9952 25.5791 62.7832 25.0585C62.5713 24.5379 62.2567 24.0652 61.8583 23.6686C61.4599 23.2721 60.9858 22.9598 60.4641 22.7503C59.9425 22.5408 59.3841 22.4383 58.8221 22.4491ZM58.8221 29.2791C58.3056 29.3153 57.7903 29.1952 57.343 28.9345C56.8957 28.6739 56.5372 28.2847 56.3141 27.8176C56.0909 27.3505 56.0134 26.827 56.0917 26.3153C56.17 25.8036 56.4004 25.3272 56.753 24.9482C57.1056 24.5691 57.5641 24.3049 58.0688 24.1899C58.5736 24.0749 59.1012 24.1144 59.5832 24.3032C60.0652 24.4921 60.4793 24.8216 60.7716 25.2488C61.0638 25.6761 61.2208 26.1815 61.2221 26.6991C61.2382 27.0272 61.1884 27.3551 61.0758 27.6636C60.9631 27.972 60.7899 28.2549 60.5662 28.4953C60.3425 28.7358 60.073 28.929 59.7734 29.0636C59.4738 29.1983 59.1504 29.2715 58.8221 29.2791ZM47.7421 23.7591V25.5591H52.0621C51.9943 26.4069 51.6419 27.2069 51.0621 27.8291C50.6287 28.2707 50.1075 28.6163 49.5322 28.8437C48.9568 29.071 48.3402 29.1751 47.7221 29.1491C46.449 29.1491 45.2281 28.6434 44.3279 27.7433C43.4278 26.8431 42.9221 25.6222 42.9221 24.3491C42.9221 23.0761 43.4278 21.8552 44.3279 20.955C45.2281 20.0549 46.449 19.5491 47.7221 19.5491C48.9425 19.531 50.1209 19.9945 51.0021 20.8391L52.2721 19.5691C51.676 18.9796 50.9684 18.515 50.1905 18.2025C49.4126 17.89 48.5802 17.7359 47.7421 17.7491C46.8531 17.7145 45.9662 17.8598 45.1347 18.1761C44.3031 18.4925 43.544 18.9734 42.9028 19.5902C42.2616 20.2069 41.7515 20.9467 41.403 21.7653C41.0546 22.5839 40.875 23.4645 40.875 24.3541C40.875 25.2438 41.0546 26.1243 41.403 26.9429C41.7515 27.7615 42.2616 28.5014 42.9028 29.1181C43.544 29.7349 44.3031 30.2158 45.1347 30.5322C45.9662 30.8485 46.8531 30.9937 47.7421 30.9591C48.5975 30.9933 49.4504 30.8461 50.245 30.5273C51.0395 30.2085 51.7576 29.7252 52.3521 29.1091C53.4022 27.9556 53.9617 26.4383 53.9121 24.8791C53.9156 24.5039 53.8855 24.129 53.8221 23.7591H47.7421ZM93.0521 25.1591C92.7913 24.3919 92.3036 23.7219 91.6536 23.238C91.0035 22.7541 90.2219 22.479 89.4121 22.4491C88.8651 22.4481 88.3236 22.5592 87.8213 22.7757C87.3189 22.9921 86.8663 23.3093 86.4914 23.7077C86.1165 24.106 85.8273 24.577 85.6417 25.0915C85.456 25.6061 85.3779 26.1532 85.4121 26.6991C85.4035 27.612 85.6905 28.5031 86.2302 29.2394C86.7698 29.9757 87.5332 30.5176 88.4063 30.7843C89.2794 31.0509 90.2153 31.028 91.0743 30.7188C91.9332 30.4097 92.6691 29.831 93.1721 29.0691L91.7221 28.0691C91.5059 28.4294 91.1993 28.7269 90.8327 28.9322C90.4661 29.1374 90.0522 29.2432 89.632 29.2391C89.1986 29.257 88.7699 29.1434 88.4023 28.9132C88.0346 28.6829 87.7452 28.3469 87.5721 27.9491L93.2621 25.5991L93.0521 25.1591ZM87.2521 26.5791C87.2318 26.2685 87.2737 25.957 87.3753 25.6628C87.477 25.3685 87.6363 25.0975 87.844 24.8657C88.0516 24.6338 88.3035 24.4457 88.5847 24.3123C88.866 24.179 89.1711 24.1031 89.4821 24.0891C89.8043 24.0695 90.1251 24.1453 90.4044 24.3072C90.6837 24.4691 90.909 24.7098 91.0521 24.9991L87.2521 26.5791ZM82.632 30.6991H84.5021V18.1991H82.632V30.6991ZM79.5721 23.3991H79.5021C79.2227 23.081 78.8779 22.8269 78.4913 22.6544C78.1047 22.4818 77.6854 22.3947 77.2621 22.3991C76.1692 22.4521 75.1387 22.9236 74.384 23.7157C73.6293 24.5079 73.2084 25.56 73.2084 26.6541C73.2084 27.7482 73.6293 28.8004 74.384 29.5926C75.1387 30.3847 76.1692 30.8561 77.2621 30.9091C77.686 30.9176 78.1066 30.8324 78.4938 30.6596C78.8811 30.4867 79.2253 30.2305 79.5021 29.9091H79.5721V30.5191C79.5721 32.1491 78.7021 33.0191 77.3021 33.0191C76.8344 33.0089 76.3803 32.8598 75.9975 32.591C75.6147 32.3221 75.3204 31.9456 75.1521 31.5091L73.5321 32.1791C73.8316 32.9314 74.3523 33.575 75.0255 34.025C75.6986 34.4749 76.4924 34.71 77.3021 34.6991C79.4921 34.6991 81.3021 33.4091 81.3021 30.2691V22.6991H79.5721V23.3991ZM77.4221 29.2791C76.7669 29.2383 76.1519 28.9492 75.7024 28.4708C75.2528 27.9924 75.0026 27.3606 75.0026 26.7041C75.0026 26.0477 75.2528 25.4159 75.7024 24.9375C76.1519 24.4591 76.7669 24.17 77.4221 24.1291C77.7423 24.143 78.0565 24.2211 78.3459 24.3588C78.6354 24.4965 78.8941 24.691 79.1068 24.9308C79.3196 25.1706 79.4819 25.4507 79.5841 25.7545C79.6864 26.0583 79.7265 26.3795 79.702 26.6991C79.7293 27.0198 79.6913 27.3427 79.5902 27.6483C79.4891 27.9539 79.3271 28.2358 79.114 28.4769C78.9009 28.7181 78.6411 28.9135 78.3502 29.0514C78.0594 29.1893 77.7437 29.2668 77.4221 29.2791ZM101.812 18.1991H97.3321V30.6991H99.202V25.9591H101.812C102.345 25.9974 102.88 25.9255 103.384 25.7479C103.888 25.5702 104.35 25.2907 104.741 24.9266C105.132 24.5626 105.444 24.1219 105.657 23.632C105.871 23.1421 105.981 22.6135 105.981 22.0791C105.981 21.5448 105.871 21.0162 105.657 20.5263C105.444 20.0364 105.132 19.5957 104.741 19.2316C104.35 18.8676 103.888 18.5881 103.384 18.4104C102.88 18.2328 102.345 18.1609 101.812 18.1991ZM101.812 24.1991H99.202V19.9391H101.852C102.133 19.9391 102.411 19.9945 102.671 20.102C102.931 20.2096 103.167 20.3672 103.365 20.5659C103.564 20.7646 103.722 21.0006 103.829 21.2602C103.937 21.5198 103.992 21.7981 103.992 22.0791C103.992 22.3602 103.937 22.6384 103.829 22.8981C103.722 23.1577 103.564 23.3936 103.365 23.5923C103.167 23.7911 102.931 23.9487 102.671 24.0562C102.411 24.1638 102.133 24.2191 101.852 24.2191L101.812 24.1991ZM113.352 22.4091C112.671 22.3672 111.993 22.5257 111.401 22.8652C110.809 23.2046 110.33 23.7101 110.022 24.3191L111.672 25.0091C111.839 24.7085 112.089 24.4627 112.392 24.3012C112.696 24.1397 113.04 24.0695 113.382 24.0991C113.619 24.0714 113.86 24.0912 114.09 24.1575C114.319 24.2237 114.533 24.335 114.72 24.4849C114.906 24.6347 115.06 24.8202 115.174 25.0304C115.288 25.2406 115.358 25.4713 115.382 25.7091V25.8291C114.781 25.5131 114.111 25.3483 113.432 25.3491C111.652 25.3491 109.832 26.3491 109.832 28.1691C109.85 28.556 109.945 28.9353 110.112 29.2847C110.279 29.634 110.515 29.9462 110.805 30.2028C111.095 30.4593 111.433 30.6549 111.801 30.7779C112.168 30.901 112.556 30.949 112.942 30.9191C113.411 30.9451 113.879 30.8458 114.297 30.6314C114.715 30.417 115.069 30.0953 115.322 29.6991H115.382V30.6991H117.182V25.8891C117.182 23.6991 115.522 22.4291 113.392 22.4291L113.352 22.4091ZM113.122 29.2591C112.512 29.2591 111.662 28.9491 111.662 28.1991C111.662 27.1991 112.722 26.8591 113.662 26.8591C114.256 26.8445 114.843 26.9895 115.362 27.2791C115.299 27.8222 115.042 28.3241 114.637 28.6919C114.233 29.0596 113.709 29.2682 113.162 29.2791L113.122 29.2591ZM123.742 22.6991L121.602 28.1191H121.542L119.322 22.6991H117.322L120.652 30.2791L118.752 34.4891H120.702L125.822 22.6991H123.742ZM106.942 30.6991H108.802V18.1991H106.942V30.6991Z" fill="white"/>
<path d="M10.4391 8.23992C10.1096 8.62954 9.94147 9.13039 9.96914 9.63992V31.7599C9.93512 32.2703 10.104 32.7735 10.4391 33.1599L10.5091 33.2399L22.8991 20.8499V20.5499L10.5091 8.16992L10.4391 8.23992Z" fill="url(#paint0_linear_9294_5473)"/>
<path d="M26.9984 24.9799L22.8984 20.8499V20.5499L26.9984 16.4199L27.0884 16.4799L31.9984 19.2599C33.3984 20.0499 33.3984 21.3499 31.9984 22.1499L27.1084 24.9299L26.9984 24.9799Z" fill="url(#paint1_linear_9294_5473)"/>
<path d="M27.1214 24.9192L22.9014 20.6992L10.4414 33.1592C10.724 33.4107 11.0857 33.5554 11.4638 33.5682C11.8418 33.581 12.2125 33.4611 12.5114 33.2292L27.1214 24.9192Z" fill="url(#paint2_linear_9294_5473)"/>
<path d="M27.1214 16.4797L12.5114 8.17968C12.2144 7.94459 11.8441 7.82173 11.4655 7.83271C11.0869 7.84368 10.7243 7.98778 10.4414 8.23968L22.9014 20.6997L27.1214 16.4797Z" fill="url(#paint3_linear_9294_5473)"/>
<path opacity="0.2" d="M27.0014 24.8281L12.5114 33.0781C12.2234 33.2955 11.8723 33.4131 11.5114 33.4131C11.1505 33.4131 10.7995 33.2955 10.5114 33.0781L10.4414 33.1481L10.5114 33.2281C10.7995 33.4455 11.1505 33.5631 11.5114 33.5631C11.8723 33.5631 12.2234 33.4455 12.5114 33.2281L27.1214 24.9181L27.0014 24.8281Z" fill="#333333"/>
<path opacity="0.12" d="M10.4418 33.0194C10.1206 32.6227 9.96321 32.1183 10.0018 31.6094V31.7594C9.9678 32.2698 10.1367 32.7729 10.4718 33.1594L10.5418 33.0894L10.4418 33.0194Z" fill="#333333"/>
<path opacity="0.12" d="M32.0039 21.9992L27.0039 24.8292L27.0939 24.9192L32.0039 22.1392C32.2937 22.0167 32.5452 21.8182 32.7317 21.5648C32.9182 21.3114 33.033 21.0124 33.0639 20.6992C33.0014 20.9838 32.8729 21.2497 32.6888 21.4755C32.5047 21.7013 32.2701 21.8807 32.0039 21.9992Z" fill="#333333"/>
<path opacity="0.25" d="M12.5088 8.31822L31.9988 19.3982C32.2649 19.5167 32.4995 19.6961 32.6836 19.9219C32.8677 20.1478 32.9962 20.4137 33.0588 20.6982C33.0279 20.3851 32.9131 20.086 32.7265 19.8326C32.54 19.5792 32.2886 19.3808 31.9988 19.2582L12.5088 8.17822C11.1188 7.37822 9.96875 8.03822 9.96875 9.63822V9.78822C9.99875 8.18822 11.1188 7.52822 12.5088 8.31822Z" fill="white"/>
</g>
<defs>
<linearGradient id="paint0_linear_9294_5473" x1="21.7991" y1="9.40992" x2="5.01915" y2="26.1899" gradientUnits="userSpaceOnUse">
<stop stop-color="#00A0FF"/>
<stop offset="0.01" stop-color="#00A1FF"/>
<stop offset="0.26" stop-color="#00BEFF"/>
<stop offset="0.51" stop-color="#00D2FF"/>
<stop offset="0.76" stop-color="#00DFFF"/>
<stop offset="1" stop-color="#00E3FF"/>
</linearGradient>
<linearGradient id="paint1_linear_9294_5473" x1="33.8284" y1="20.6999" x2="9.63844" y2="20.6999" gradientUnits="userSpaceOnUse">
<stop stop-color="#FFE000"/>
<stop offset="0.41" stop-color="#FFBD00"/>
<stop offset="0.78" stop-color="#FFA500"/>
<stop offset="1" stop-color="#FF9C00"/>
</linearGradient>
<linearGradient id="paint2_linear_9294_5473" x1="24.8314" y1="22.9992" x2="2.0714" y2="45.7492" gradientUnits="userSpaceOnUse">
<stop stop-color="#FF3A44"/>
<stop offset="1" stop-color="#C31162"/>
</linearGradient>
<linearGradient id="paint3_linear_9294_5473" x1="7.30141" y1="0.879678" x2="17.4614" y2="11.0397" gradientUnits="userSpaceOnUse">
<stop stop-color="#32A071"/>
<stop offset="0.07" stop-color="#2DA771"/>
<stop offset="0.48" stop-color="#15CF74"/>
<stop offset="0.8" stop-color="#06E775"/>
<stop offset="1" stop-color="#00F076"/>
</linearGradient>
<clipPath id="clip0_9294_5473">
<rect width="135" height="40" fill="white" transform="translate(0 0.699219)"/>
</clipPath>
</defs>
</svg>
