<svg width="169" height="50" viewBox="0 0 169 50" fill="none" xmlns="http://www.w3.org/2000/svg">
<g clip-path="url(#clip0_6401_2748)">
<path d="M162.5 0H6.25C2.79822 0 0 2.79822 0 6.25V43.75C0 47.2018 2.79822 50 6.25 50H162.5C165.952 50 168.75 47.2018 168.75 43.75V6.25C168.75 2.79822 165.952 0 162.5 0Z" fill="#333333"/>
<path d="M162.5 1C163.892 1 165.228 1.55312 166.212 2.53769C167.197 3.52226 167.75 4.85761 167.75 6.25V43.75C167.75 45.1424 167.197 46.4777 166.212 47.4623C165.228 48.4469 163.892 49 162.5 49H6.25C4.85761 49 3.52225 48.4469 2.53769 47.4623C1.55312 46.4777 1 45.1424 1 43.75V6.25C1 4.85761 1.55312 3.52226 2.53769 2.53769C3.52225 1.55312 4.85761 1 6.25 1H162.5ZM162.5 0H6.25C4.5924 0 3.00268 0.65848 1.83058 1.83058C0.65848 3.00269 0 4.5924 0 6.25V43.75C0 45.4076 0.65848 46.9973 1.83058 48.1694C3.00268 49.3415 4.5924 50 6.25 50H162.5C164.158 50 165.747 49.3415 166.919 48.1694C168.092 46.9973 168.75 45.4076 168.75 43.75V6.25C168.75 4.5924 168.092 3.00269 166.919 1.83058C165.747 0.65848 164.158 0 162.5 0Z" fill="#A6A6A6"/>
<path d="M59.2737 12.799C59.2942 13.2574 59.2217 13.7153 59.0606 14.1449C58.8995 14.5746 58.6531 14.9672 58.3362 15.299C57.9811 15.6657 57.5526 15.9532 57.0787 16.1427C56.6048 16.3323 56.0962 16.4196 55.5862 16.399C55.0733 16.4105 54.5634 16.3165 54.0883 16.123C53.6131 15.9295 53.1827 15.6406 52.8237 15.274C52.0953 14.529 51.6875 13.5285 51.6875 12.4865C51.6875 11.4446 52.0953 10.4441 52.8237 9.69904C53.3806 9.1549 54.0858 8.78746 54.8509 8.6429C55.6159 8.49834 56.4067 8.5831 57.1237 8.88654C57.5744 9.07183 57.9765 9.3584 58.2987 9.72404L57.6362 10.3865C57.388 10.0875 57.0734 9.85046 56.7176 9.69423C56.3617 9.538 55.9743 9.46689 55.5862 9.48654C55.0962 9.48993 54.6145 9.61328 54.1832 9.84581C53.7519 10.0783 53.3842 10.413 53.1121 10.8204C52.84 11.2279 52.6718 11.6959 52.6223 12.1833C52.5728 12.6708 52.6434 13.163 52.828 13.6169C53.0127 14.0707 53.3057 14.4725 53.6814 14.787C54.0571 15.1015 54.5042 15.3191 54.9835 15.421C55.4627 15.5228 55.9597 15.5057 56.4308 15.3711C56.902 15.2366 57.333 14.9886 57.6862 14.649C58.068 14.2304 58.2894 13.6902 58.3112 13.124H55.5862V12.224H59.2237C59.2521 12.4145 59.2688 12.6065 59.2737 12.799Z" fill="white" stroke="white" stroke-width="0.411304" stroke-miterlimit="10"/>
<path d="M64.9984 9.675H61.6234V12.05H64.6984V12.95H61.6234V15.325H64.9984V16.25H60.6484V8.75H64.9984V9.675Z" fill="white" stroke="white" stroke-width="0.411304" stroke-miterlimit="10"/>
<path d="M69.0977 16.25H68.1352V9.675H66.0352V8.75H71.2477V9.675H69.0977V16.25Z" fill="white" stroke="white" stroke-width="0.411304" stroke-miterlimit="10"/>
<path d="M74.9258 16.25V8.75H75.8883V16.25H74.9258Z" fill="white" stroke="white" stroke-width="0.411304" stroke-miterlimit="10"/>
<path d="M80.1602 16.25H79.1977V9.675H77.0977V8.75H82.2477V9.675H80.1602V16.25Z" fill="white" stroke="white" stroke-width="0.411304" stroke-miterlimit="10"/>
<path d="M92.0142 15.2747C91.6531 15.636 91.2244 15.9227 90.7526 16.1182C90.2807 16.3138 89.775 16.4144 89.2642 16.4144C88.7534 16.4144 88.2476 16.3138 87.7758 16.1182C87.3039 15.9227 86.8752 15.636 86.5142 15.2747C85.8075 14.5235 85.4141 13.531 85.4141 12.4997C85.4141 11.4684 85.8075 10.4759 86.5142 9.72469C86.8674 9.35319 87.2947 9.05998 87.7684 8.86404C88.2421 8.66809 88.7517 8.57378 89.2642 8.58719C89.7759 8.5791 90.2839 8.67584 90.7568 8.87147C91.2298 9.06709 91.6577 9.35746 92.0142 9.72469C92.3736 10.0903 92.6561 10.5242 92.8451 11.0009C93.034 11.4775 93.1255 11.9871 93.1142 12.4997C93.1306 13.0129 93.0414 13.524 92.8522 14.0014C92.663 14.4787 92.3777 14.9121 92.0142 15.2747ZM87.2267 14.6497C87.4929 14.9195 87.8102 15.1338 88.16 15.28C88.5097 15.4263 88.8851 15.5016 89.2642 15.5016C89.6433 15.5016 90.0186 15.4263 90.3684 15.28C90.7182 15.1338 91.0354 14.9195 91.3017 14.6497C91.841 14.0636 92.1404 13.2962 92.1404 12.4997C92.1404 11.7032 91.841 10.9358 91.3017 10.3497C91.0354 10.0798 90.7182 9.86558 90.3684 9.71934C90.0186 9.57309 89.6433 9.49779 89.2642 9.49779C88.8851 9.49779 88.5097 9.57309 88.16 9.71934C87.8102 9.86558 87.4929 10.0798 87.2267 10.3497C86.6873 10.9358 86.3879 11.7032 86.3879 12.4997C86.3879 13.2962 86.6873 14.0636 87.2267 14.6497Z" fill="white" stroke="white" stroke-width="0.411304" stroke-miterlimit="10"/>
<path d="M94.4766 16.25V8.75H95.6391L99.2891 14.5875V13.1375V8.75H100.252V16.25H99.2516L95.4391 10.1375V11.575V16.25H94.4766Z" fill="white" stroke="white" stroke-width="0.411304" stroke-miterlimit="10"/>
<path d="M85.1776 27.1879C84.1244 27.1904 83.0956 27.5051 82.2213 28.0923C81.347 28.6794 80.6664 29.5127 80.2656 30.4866C79.8649 31.4606 79.762 32.5315 79.9699 33.564C80.1777 34.5965 80.6871 35.5441 81.4336 36.2871C82.18 37.03 83.1301 37.5349 84.1635 37.738C85.1969 37.941 86.2673 37.8331 87.2394 37.4277C88.2115 37.0224 89.0415 36.338 89.6246 35.4609C90.2076 34.5838 90.5175 33.5536 90.5151 32.5004C90.5253 31.7978 90.394 31.1004 90.129 30.4496C89.8641 29.7988 89.4709 29.208 88.9729 28.7123C88.4749 28.2166 87.8822 27.8262 87.2302 27.5643C86.5781 27.3024 85.8801 27.1744 85.1776 27.1879ZM85.1776 35.7254C84.532 35.7705 83.8879 35.6204 83.3288 35.2946C82.7697 34.9688 82.3215 34.4823 82.0426 33.8984C81.7636 33.3145 81.6668 32.6602 81.7647 32.0206C81.8625 31.3809 82.1505 30.7855 82.5913 30.3117C83.032 29.8379 83.6051 29.5076 84.236 29.3639C84.867 29.2201 85.5265 29.2694 86.129 29.5055C86.7316 29.7416 87.2491 30.1534 87.6144 30.6875C87.9798 31.2216 88.176 31.8533 88.1776 32.5004C88.1977 32.9104 88.1355 33.3203 87.9947 33.7059C87.8539 34.0915 87.6373 34.445 87.3577 34.7456C87.0781 35.0462 86.7412 35.2877 86.3667 35.456C85.9923 35.6243 85.588 35.7159 85.1776 35.7254ZM73.5276 27.1879C72.4744 27.1904 71.4456 27.5051 70.5713 28.0923C69.697 28.6794 69.0164 29.5127 68.6156 30.4866C68.2149 31.4606 68.112 32.5315 68.3199 33.564C68.5277 34.5965 69.0371 35.5441 69.7836 36.2871C70.53 37.03 71.4801 37.5349 72.5135 37.738C73.5469 37.941 74.6173 37.8331 75.5894 37.4277C76.5615 37.0224 77.3915 36.338 77.9746 35.4609C78.5576 34.5838 78.8675 33.5536 78.8651 32.5004C78.8753 31.7978 78.744 31.1004 78.479 30.4496C78.2141 29.7988 77.8209 29.208 77.3229 28.7123C76.8249 28.2166 76.2322 27.8262 75.5802 27.5643C74.9282 27.3024 74.2301 27.1744 73.5276 27.1879ZM73.5276 35.7254C72.882 35.7705 72.2379 35.6204 71.6788 35.2946C71.1197 34.9688 70.6715 34.4823 70.3926 33.8984C70.1136 33.3145 70.0168 32.6602 70.1147 32.0206C70.2125 31.3809 70.5005 30.7855 70.9413 30.3117C71.382 29.8379 71.9551 29.5076 72.586 29.3639C73.217 29.2201 73.8765 29.2694 74.479 29.5055C75.0816 29.7416 75.5991 30.1534 75.9645 30.6875C76.3298 31.2216 76.526 31.8533 76.5276 32.5004C76.5477 32.9104 76.4855 33.3203 76.3447 33.7059C76.2039 34.0915 75.9873 34.445 75.7077 34.7456C75.4281 35.0462 75.0912 35.2877 74.7167 35.456C74.3423 35.6243 73.938 35.7159 73.5276 35.7254ZM59.6776 28.8254V31.0754H65.0776C64.9929 32.1351 64.5524 33.1351 63.8276 33.9129C63.2859 34.4648 62.6344 34.8968 61.9152 35.181C61.196 35.4653 60.4252 35.5954 59.6526 35.5629C58.0613 35.5629 56.5351 34.9308 55.4099 33.8055C54.2847 32.6803 53.6526 31.1542 53.6526 29.5629C53.6526 27.9716 54.2847 26.4455 55.4099 25.3203C56.5351 24.195 58.0613 23.5629 59.6526 23.5629C61.1781 23.5402 62.6512 24.1195 63.7526 25.1754L65.3401 23.5879C64.595 22.851 63.7105 22.2703 62.7381 21.8796C61.7658 21.489 60.7253 21.2963 59.6776 21.3129C58.5663 21.2696 57.4578 21.4512 56.4183 21.8466C55.3789 22.242 54.43 22.8432 53.6285 23.6142C52.827 24.3851 52.1894 25.3099 51.7538 26.3331C51.3183 27.3564 51.0938 28.457 51.0938 29.5691C51.0938 30.6812 51.3183 31.7819 51.7538 32.8051C52.1894 33.8284 52.827 34.7532 53.6285 35.5241C54.43 36.2951 55.3789 36.8962 56.4183 37.2917C57.4578 37.6871 58.5663 37.8686 59.6776 37.8254C60.7468 37.8681 61.8131 37.6841 62.8062 37.2856C63.7993 36.887 64.6969 36.2829 65.4401 35.5129C66.7527 34.0709 67.4521 32.1744 67.3901 30.2254C67.3945 29.7563 67.3569 29.2878 67.2776 28.8254H59.6776ZM116.315 30.5754C115.989 29.6163 115.379 28.7789 114.567 28.174C113.754 27.569 112.777 27.2252 111.765 27.1879C111.081 27.1866 110.405 27.3255 109.777 27.5961C109.149 27.8666 108.583 28.2631 108.114 28.7611C107.646 29.259 107.284 29.8477 107.052 30.4909C106.82 31.134 106.722 31.818 106.765 32.5004C106.754 33.6415 107.113 34.7554 107.788 35.6757C108.462 36.5961 109.417 37.2735 110.508 37.6068C111.599 37.9401 112.769 37.9114 113.843 37.525C114.917 37.1386 115.836 36.4152 116.465 35.4629L114.653 34.2129C114.382 34.6632 113.999 35.0351 113.541 35.2917C113.083 35.5482 112.565 35.6805 112.04 35.6754C111.498 35.6978 110.962 35.5557 110.503 35.2679C110.043 34.9801 109.681 34.5601 109.465 34.0629L116.578 31.1254L116.315 30.5754ZM109.065 32.3504C109.04 31.9621 109.092 31.5727 109.219 31.2049C109.346 30.8371 109.545 30.4984 109.805 30.2085C110.065 29.9187 110.379 29.6835 110.731 29.5169C111.083 29.3502 111.464 29.2554 111.853 29.2379C112.255 29.2133 112.656 29.3081 113.005 29.5105C113.355 29.7128 113.636 30.0137 113.815 30.3754L109.065 32.3504ZM103.29 37.5004H105.628V21.8754H103.29V37.5004ZM99.4651 28.3754H99.3776C99.0284 27.9777 98.5974 27.6601 98.1142 27.4444C97.6309 27.2287 97.1068 27.1199 96.5776 27.1254C95.2115 27.1916 93.9234 27.7809 92.98 28.7711C92.0367 29.7613 91.5105 31.0765 91.5105 32.4441C91.5105 33.8118 92.0367 35.127 92.98 36.1172C93.9234 37.1074 95.2115 37.6966 96.5776 37.7629C97.1075 37.7735 97.6333 37.667 98.1173 37.4509C98.6013 37.2348 99.0317 36.9145 99.3776 36.5129H99.4651V37.2754C99.4651 39.3129 98.3776 40.4004 96.6276 40.4004C96.043 40.3875 95.4754 40.2013 94.9969 39.8652C94.5184 39.5291 94.1505 39.0584 93.9401 38.5129L91.9151 39.3504C92.2895 40.2907 92.9404 41.0953 93.7818 41.6577C94.6232 42.2201 95.6156 42.514 96.6276 42.5004C99.3651 42.5004 101.628 40.8879 101.628 36.9629V27.5004H99.4651V28.3754ZM96.7776 35.7254C95.9586 35.6743 95.1898 35.313 94.6279 34.715C94.066 34.117 93.7533 33.3272 93.7533 32.5066C93.7533 31.6861 94.066 30.8963 94.6279 30.2983C95.1898 29.7003 95.9586 29.339 96.7776 29.2879C97.1779 29.3052 97.5706 29.4028 97.9324 29.5749C98.2942 29.7471 98.6177 29.9903 98.8836 30.29C99.1495 30.5897 99.3524 30.9399 99.4802 31.3196C99.608 31.6993 99.6581 32.1009 99.6276 32.5004C99.6617 32.9013 99.6141 33.3049 99.4878 33.6868C99.3614 34.0688 99.1589 34.4212 98.8925 34.7226C98.6261 35.0241 98.3013 35.2684 97.9378 35.4407C97.5743 35.6131 97.1796 35.7099 96.7776 35.7254ZM127.265 21.8754H121.665V37.5004H124.003V31.5754H127.265C127.931 31.6233 128.6 31.5334 129.23 31.3113C129.86 31.0893 130.437 30.7398 130.926 30.2848C131.415 29.8297 131.805 29.2788 132.072 28.6664C132.338 28.054 132.476 27.3933 132.476 26.7254C132.476 26.0575 132.338 25.3967 132.072 24.7844C131.805 24.172 131.415 23.6211 130.926 23.166C130.437 22.711 129.86 22.3615 129.23 22.1395C128.6 21.9174 127.931 21.8275 127.265 21.8754ZM127.265 29.3754H124.003V24.0504H127.315C127.666 24.0504 128.014 24.1196 128.339 24.254C128.663 24.3884 128.958 24.5855 129.207 24.8339C129.455 25.0823 129.652 25.3772 129.786 25.7017C129.921 26.0263 129.99 26.3741 129.99 26.7254C129.99 27.0767 129.921 27.4245 129.786 27.7491C129.652 28.0736 129.455 28.3685 129.207 28.6169C128.958 28.8653 128.663 29.0623 128.339 29.1968C128.014 29.3312 127.666 29.4004 127.315 29.4004L127.265 29.3754ZM141.69 27.1379C140.839 27.0854 139.991 27.2836 139.251 27.7079C138.511 28.1322 137.912 28.7641 137.528 29.5254L139.59 30.3879C139.798 30.0121 140.111 29.7048 140.491 29.5029C140.87 29.3011 141.299 29.2134 141.728 29.2504C142.024 29.2157 142.325 29.2405 142.612 29.3233C142.899 29.4061 143.167 29.5452 143.399 29.7325C143.632 29.9199 143.825 30.1517 143.967 30.4144C144.11 30.6772 144.198 30.9656 144.228 31.2629V31.4129C143.476 31.0178 142.639 30.8118 141.79 30.8129C139.565 30.8129 137.29 32.0629 137.29 34.3379C137.312 34.8214 137.431 35.2956 137.64 35.7323C137.849 36.169 138.143 36.5593 138.506 36.8799C138.868 37.2006 139.292 37.4451 139.751 37.5989C140.21 37.7527 140.695 37.8127 141.178 37.7754C141.764 37.8078 142.349 37.6837 142.872 37.4157C143.394 37.1477 143.836 36.7456 144.153 36.2504H144.228V37.5004H146.478V31.4879C146.478 28.7504 144.403 27.1629 141.74 27.1629L141.69 27.1379ZM141.403 35.7004C140.64 35.7004 139.578 35.3129 139.578 34.3754C139.578 33.1254 140.903 32.7004 142.078 32.7004C142.82 32.6821 143.554 32.8634 144.203 33.2254C144.124 33.9042 143.802 34.5316 143.297 34.9913C142.791 35.451 142.136 35.7118 141.453 35.7254L141.403 35.7004ZM154.678 27.5004L152.003 34.2754H151.928L149.153 27.5004H146.653L150.815 36.9754L148.44 42.2379H150.878L157.278 27.5004H154.678ZM133.678 37.5004H136.003V21.8754H133.678V37.5004Z" fill="white"/>
<path d="M13.0499 9.42539C12.638 9.91242 12.4278 10.5385 12.4624 11.1754V38.8254C12.4199 39.4634 12.631 40.0923 13.0499 40.5754L13.1374 40.6754L28.6249 25.1879V24.8129L13.1374 9.33789L13.0499 9.42539Z" fill="url(#paint0_linear_6401_2748)"/>
<path d="M33.75 30.3504L28.625 25.1879V24.8129L33.75 19.6504L33.8625 19.7254L40 23.2004C41.75 24.1879 41.75 25.8129 40 26.8129L33.8875 30.2879L33.75 30.3504Z" fill="url(#paint1_linear_6401_2748)"/>
<path d="M33.9008 30.275L28.6258 25L13.0508 40.575C13.404 40.8894 13.8561 41.0703 14.3287 41.0863C14.8013 41.1023 15.2646 40.9523 15.6383 40.6625L33.9008 30.275Z" fill="url(#paint2_linear_6401_2748)"/>
<path d="M33.9008 19.7256L15.6383 9.35057C15.2671 9.05671 14.8041 8.90314 14.3309 8.91686C13.8576 8.93058 13.4044 9.11071 13.0508 9.42557L28.6258 25.0006L33.9008 19.7256Z" fill="url(#paint3_linear_6401_2748)"/>
<path opacity="0.2" d="M33.7508 30.1621L15.6383 40.4746C15.2782 40.7464 14.8394 40.8934 14.3883 40.8934C13.9372 40.8934 13.4984 40.7464 13.1383 40.4746L13.0508 40.5621L13.1383 40.6621C13.4984 40.9339 13.9372 41.0809 14.3883 41.0809C14.8394 41.0809 15.2782 40.9339 15.6383 40.6621L33.9008 30.2746L33.7508 30.1621Z" fill="#333333"/>
<path opacity="0.12" d="M13.0533 40.3992C12.6518 39.9034 12.455 39.2729 12.5033 38.6367V38.8242C12.4607 39.4622 12.6719 40.0911 13.0908 40.5742L13.1783 40.4867L13.0533 40.3992Z" fill="#333333"/>
<path opacity="0.12" d="M40.0039 26.625L33.7539 30.1625L33.8664 30.275L40.0039 26.8C40.3662 26.6468 40.6805 26.3988 40.9137 26.082C41.1468 25.7652 41.2903 25.3914 41.3289 25C41.2508 25.3557 41.0901 25.6881 40.86 25.9703C40.6298 26.2526 40.3366 26.4768 40.0039 26.625Z" fill="#333333"/>
<path opacity="0.25" d="M15.6359 9.52424L39.9984 23.3742C40.3311 23.5224 40.6244 23.7466 40.8545 24.0289C41.0847 24.3112 41.2453 24.6435 41.3234 24.9992C41.2848 24.6078 41.1414 24.234 40.9082 23.9172C40.675 23.6005 40.3607 23.3524 39.9984 23.1992L15.6359 9.34924C13.8984 8.34924 12.4609 9.17424 12.4609 11.1742V11.3617C12.4984 9.36174 13.8984 8.53674 15.6359 9.52424Z" fill="white"/>
</g>
<defs>
<linearGradient id="paint0_linear_6401_2748" x1="27.2499" y1="10.8879" x2="6.27491" y2="31.8629" gradientUnits="userSpaceOnUse">
<stop stop-color="#00A0FF"/>
<stop offset="0.01" stop-color="#00A1FF"/>
<stop offset="0.26" stop-color="#00BEFF"/>
<stop offset="0.51" stop-color="#00D2FF"/>
<stop offset="0.76" stop-color="#00DFFF"/>
<stop offset="1" stop-color="#00E3FF"/>
</linearGradient>
<linearGradient id="paint1_linear_6401_2748" x1="42.2875" y1="25.0004" x2="12.05" y2="25.0004" gradientUnits="userSpaceOnUse">
<stop stop-color="#FFE000"/>
<stop offset="0.41" stop-color="#FFBD00"/>
<stop offset="0.78" stop-color="#FFA500"/>
<stop offset="1" stop-color="#FF9C00"/>
</linearGradient>
<linearGradient id="paint2_linear_6401_2748" x1="31.0383" y1="27.875" x2="2.58827" y2="56.3125" gradientUnits="userSpaceOnUse">
<stop stop-color="#FF3A44"/>
<stop offset="1" stop-color="#C31162"/>
</linearGradient>
<linearGradient id="paint3_linear_6401_2748" x1="9.12578" y1="0.225573" x2="21.8258" y2="12.9256" gradientUnits="userSpaceOnUse">
<stop stop-color="#32A071"/>
<stop offset="0.07" stop-color="#2DA771"/>
<stop offset="0.48" stop-color="#15CF74"/>
<stop offset="0.8" stop-color="#06E775"/>
<stop offset="1" stop-color="#00F076"/>
</linearGradient>
<clipPath id="clip0_6401_2748">
<rect width="168.75" height="50" fill="white"/>
</clipPath>
</defs>
</svg>
