<svg width="121" height="120" viewBox="0 0 121 120" fill="none" xmlns="http://www.w3.org/2000/svg">
<circle cx="60.5" cy="60" r="60" fill="#EFFBED"/>
<path d="M69.001 39.8782C66.7645 39.8782 64.9375 38.0617 64.9375 35.8147C64.9375 33.5677 66.7645 31.7617 69.001 31.7617C71.2375 31.7617 73.0645 33.5782 73.0645 35.8252C73.0645 38.0722 71.2375 39.8782 69.001 39.8782ZM69.001 33.3367C67.636 33.3367 66.5125 34.4497 66.5125 35.8252C66.5125 37.2007 67.6255 38.3137 69.001 38.3137C70.3765 38.3137 71.4895 37.2007 71.4895 35.8252C71.4895 34.4497 70.366 33.3367 69.001 33.3367Z" fill="#4747D6" stroke="#4747D6" stroke-width="2"/>
<path d="M69.0017 48.898C67.4477 48.898 65.8832 48.31 64.6652 47.1445C61.5677 44.1625 58.1447 39.406 59.4362 33.7465C60.6017 28.612 65.0852 26.3125 69.0017 26.3125C69.0017 26.3125 69.0017 26.3125 69.0122 26.3125C72.9287 26.3125 77.4122 28.612 78.5777 33.757C79.8587 39.4165 76.4357 44.1625 73.3382 47.1445C72.1202 48.31 70.5557 48.898 69.0017 48.898ZM69.0017 27.8875C65.9462 27.8875 62.0192 29.515 60.9797 34.093C59.8457 39.0385 62.9537 43.3015 65.7677 46C67.5842 47.7535 70.4297 47.7535 72.2462 46C75.0497 43.3015 78.1577 39.0385 77.0447 34.093C75.9947 29.515 72.0572 27.8875 69.0017 27.8875Z" fill="#4747D6" stroke="#4747D6" stroke-width="2"/>
<path d="M68.6912 89.2587C67.7381 89.2587 66.7849 89.0592 66.0091 88.6824L54.3716 82.8525C53.7066 82.52 52.3987 82.5422 51.7559 82.919L46.5246 85.9115C44.2636 87.1972 41.9361 87.3745 40.1849 86.3327C38.4116 85.313 37.4141 83.2294 37.4141 80.6137V59.0677C37.4141 57.0505 38.7441 54.7674 40.4952 53.7699L50.0934 48.2725C51.7116 47.3415 54.1721 47.275 55.8346 48.1174L67.4721 53.9472C68.1371 54.2797 69.4227 54.2354 70.0877 53.8807L75.2969 50.9104C77.5579 49.6247 79.8854 49.4474 81.6366 50.4892C83.4099 51.5089 84.4074 53.5925 84.4074 56.2082V77.7764C84.4074 79.7935 83.0774 82.0767 81.3262 83.0742L71.7281 88.5715C70.8857 89.0149 69.7774 89.2587 68.6912 89.2587ZM53.1524 79.3059C54.1056 79.3059 55.0587 79.5054 55.8346 79.8822L67.4721 85.712C68.1371 86.0445 69.4227 86.0002 70.0877 85.6455L79.6859 80.1482C80.3952 79.7492 81.0824 78.5522 81.0824 77.7542V56.186C81.0824 54.7895 80.6834 53.7477 79.9519 53.3487C79.2426 52.9497 78.1342 53.1049 76.9372 53.792L71.7281 56.7624C70.1099 57.6934 67.6494 57.7599 65.9869 56.9175L54.3494 51.0877C53.6844 50.7552 52.3987 50.7995 51.7337 51.1542L42.1356 56.6515C41.4262 57.0505 40.7391 58.2475 40.7391 59.0677V80.6359C40.7391 82.0324 41.1381 83.0742 41.8474 83.4732C42.5567 83.8944 43.6651 83.717 44.8842 83.0299L50.0934 80.0595C50.9579 79.5497 52.0662 79.3059 53.1524 79.3059Z" fill="#4747D6"/>
<path d="M52.975 81.1456C52.0662 81.1456 51.3125 80.3919 51.3125 79.4831V50.6664C51.3125 49.7576 52.0662 49.0039 52.975 49.0039C53.8838 49.0039 54.6375 49.7576 54.6375 50.6664V79.4831C54.6375 80.3919 53.8838 81.1456 52.975 81.1456Z" fill="#4747D6"/>
<path d="M68.8695 87.7955C67.9607 87.7955 67.207 87.0419 67.207 86.133V56.474C67.207 55.5652 67.9607 54.8115 68.8695 54.8115C69.7784 54.8115 70.532 55.5652 70.532 56.474V86.133C70.532 87.0419 69.7784 87.7955 68.8695 87.7955Z" fill="#4747D6"/>
</svg>
