<svg width="22" height="17" viewBox="0 0 22 17" fill="none" xmlns="http://www.w3.org/2000/svg">
<path d="M1.06919 0.241702L20.3035 0.241702C20.4982 0.242312 20.6891 0.296022 20.8556 0.397049C21.0221 0.498075 21.1579 0.642592 21.2483 0.815046C21.3388 0.987501 21.3805 1.18136 21.369 1.37576C21.3574 1.57016 21.2931 1.75773 21.1829 1.91829L11.5658 15.8097C11.1672 16.3857 10.2076 16.3857 9.80797 15.8097L0.190819 1.91829C0.0795003 1.75807 0.0142204 1.5704 0.00207188 1.37568C-0.0100767 1.18095 0.0313707 0.986627 0.121911 0.813807C0.212451 0.640988 0.348621 0.496285 0.515627 0.395422C0.682632 0.294559 0.874085 0.241394 1.06919 0.241702Z" fill="#999999"/>
</svg>
