<svg width="145" height="24" viewBox="0 0 145 24" fill="none" xmlns="http://www.w3.org/2000/svg">
<path d="M9.65323 5.408C10.9202 3.136 11.5532 2 12.5002 2C13.4472 2 14.0802 3.136 15.3472 5.408L15.6752 5.996C16.0352 6.642 16.2152 6.965 16.4952 7.178C16.7752 7.391 17.1252 7.47 17.8252 7.628L18.4612 7.772C20.9212 8.329 22.1502 8.607 22.4432 9.548C22.7352 10.488 21.8972 11.469 20.2202 13.43L19.7862 13.937C19.3102 14.494 19.0712 14.773 18.9642 15.117C18.8572 15.462 18.8932 15.834 18.9652 16.577L19.0312 17.254C19.2842 19.871 19.4112 21.179 18.6452 21.76C17.8792 22.342 16.7272 21.811 14.4252 20.751L13.8282 20.477C13.1742 20.175 12.8472 20.025 12.5002 20.025C12.1532 20.025 11.8262 20.175 11.1722 20.477L10.5762 20.751C8.27323 21.811 7.12123 22.341 6.35624 21.761C5.58924 21.179 5.71623 19.871 5.96923 17.254L6.03523 16.578C6.10723 15.834 6.14323 15.462 6.03523 15.118C5.92923 14.773 5.69024 14.494 5.21424 13.938L4.78024 13.43C3.10324 11.47 2.26523 10.489 2.55723 9.548C2.85024 8.607 4.08024 8.328 6.54024 7.772L7.17624 7.628C7.87524 7.47 8.22424 7.391 8.50524 7.178C8.78524 6.965 8.96523 6.642 9.32523 5.996L9.65323 5.408Z" fill="#FFB950"/>
<path d="M39.6532 5.408C40.9202 3.136 41.5532 2 42.5002 2C43.4472 2 44.0802 3.136 45.3472 5.408L45.6752 5.996C46.0352 6.642 46.2152 6.965 46.4952 7.178C46.7752 7.391 47.1252 7.47 47.8252 7.628L48.4612 7.772C50.9212 8.329 52.1502 8.607 52.4432 9.548C52.7352 10.488 51.8972 11.469 50.2202 13.43L49.7862 13.937C49.3102 14.494 49.0712 14.773 48.9642 15.117C48.8572 15.462 48.8932 15.834 48.9652 16.577L49.0312 17.254C49.2842 19.871 49.4112 21.179 48.6452 21.76C47.8792 22.342 46.7272 21.811 44.4252 20.751L43.8282 20.477C43.1742 20.175 42.8472 20.025 42.5002 20.025C42.1532 20.025 41.8262 20.175 41.1722 20.477L40.5762 20.751C38.2732 21.811 37.1212 22.341 36.3562 21.761C35.5892 21.179 35.7162 19.871 35.9692 17.254L36.0352 16.578C36.1072 15.834 36.1432 15.462 36.0352 15.118C35.9292 14.773 35.6902 14.494 35.2142 13.938L34.7802 13.43C33.1032 11.47 32.2652 10.489 32.5572 9.548C32.8502 8.607 34.0802 8.328 36.5402 7.772L37.1762 7.628C37.8752 7.47 38.2242 7.391 38.5052 7.178C38.7852 6.965 38.9652 6.642 39.3252 5.996L39.6532 5.408Z" fill="#FFB950"/>
<path d="M69.6532 5.408C70.9202 3.136 71.5532 2 72.5002 2C73.4472 2 74.0802 3.136 75.3472 5.408L75.6752 5.996C76.0352 6.642 76.2152 6.965 76.4952 7.178C76.7752 7.391 77.1252 7.47 77.8252 7.628L78.4612 7.772C80.9212 8.329 82.1502 8.607 82.4432 9.548C82.7352 10.488 81.8972 11.469 80.2202 13.43L79.7862 13.937C79.3102 14.494 79.0712 14.773 78.9642 15.117C78.8572 15.462 78.8932 15.834 78.9652 16.577L79.0312 17.254C79.2842 19.871 79.4112 21.179 78.6452 21.76C77.8792 22.342 76.7272 21.811 74.4252 20.751L73.8282 20.477C73.1742 20.175 72.8472 20.025 72.5002 20.025C72.1532 20.025 71.8262 20.175 71.1722 20.477L70.5762 20.751C68.2732 21.811 67.1212 22.341 66.3562 21.761C65.5892 21.179 65.7162 19.871 65.9692 17.254L66.0352 16.578C66.1072 15.834 66.1432 15.462 66.0352 15.118C65.9292 14.773 65.6902 14.494 65.2142 13.938L64.7802 13.43C63.1032 11.47 62.2652 10.489 62.5572 9.548C62.8502 8.607 64.0802 8.328 66.5402 7.772L67.1762 7.628C67.8752 7.47 68.2242 7.391 68.5052 7.178C68.7852 6.965 68.9652 6.642 69.3252 5.996L69.6532 5.408Z" fill="#FFB950"/>
<path d="M99.6532 5.408C100.92 3.136 101.553 2 102.5 2C103.447 2 104.08 3.136 105.347 5.408L105.675 5.996C106.035 6.642 106.215 6.965 106.495 7.178C106.775 7.391 107.125 7.47 107.825 7.628L108.461 7.772C110.921 8.329 112.15 8.607 112.443 9.548C112.735 10.488 111.897 11.469 110.22 13.43L109.786 13.937C109.31 14.494 109.071 14.773 108.964 15.117C108.857 15.462 108.893 15.834 108.965 16.577L109.031 17.254C109.284 19.871 109.411 21.179 108.645 21.76C107.879 22.342 106.727 21.811 104.425 20.751L103.828 20.477C103.174 20.175 102.847 20.025 102.5 20.025C102.153 20.025 101.826 20.175 101.172 20.477L100.576 20.751C98.2732 21.811 97.1212 22.341 96.3562 21.761C95.5892 21.179 95.7162 19.871 95.9692 17.254L96.0352 16.578C96.1072 15.834 96.1432 15.462 96.0352 15.118C95.9292 14.773 95.6902 14.494 95.2142 13.938L94.7802 13.43C93.1032 11.47 92.2652 10.489 92.5572 9.548C92.8502 8.607 94.0802 8.328 96.5402 7.772L97.1762 7.628C97.8752 7.47 98.2242 7.391 98.5052 7.178C98.7852 6.965 98.9652 6.642 99.3252 5.996L99.6532 5.408Z" fill="#FFB950"/>
<path d="M129.653 5.408C130.92 3.136 131.553 2 132.5 2C133.447 2 134.08 3.136 135.347 5.408L135.675 5.996C136.035 6.642 136.215 6.965 136.495 7.178C136.775 7.391 137.125 7.47 137.825 7.628L138.461 7.772C140.921 8.329 142.15 8.607 142.443 9.548C142.735 10.488 141.897 11.469 140.22 13.43L139.786 13.937C139.31 14.494 139.071 14.773 138.964 15.117C138.857 15.462 138.893 15.834 138.965 16.577L139.031 17.254C139.284 19.871 139.411 21.179 138.645 21.76C137.879 22.342 136.727 21.811 134.425 20.751L133.828 20.477C133.174 20.175 132.847 20.025 132.5 20.025C132.153 20.025 131.826 20.175 131.172 20.477L130.576 20.751C128.273 21.811 127.121 22.341 126.356 21.761C125.589 21.179 125.716 19.871 125.969 17.254L126.035 16.578C126.107 15.834 126.143 15.462 126.035 15.118C125.929 14.773 125.69 14.494 125.214 13.938L124.78 13.43C123.103 11.47 122.265 10.489 122.557 9.548C122.85 8.607 124.08 8.328 126.54 7.772L127.176 7.628C127.875 7.47 128.224 7.391 128.505 7.178C128.785 6.965 128.965 6.642 129.325 5.996L129.653 5.408Z" stroke="#999999" stroke-opacity="0.3" stroke-width="1.5"/>
</svg>
