<svg width="31" height="30" viewBox="0 0 31 30" fill="none" xmlns="http://www.w3.org/2000/svg">
<path d="M16 13C15.337 13 14.7011 13.2634 14.2322 13.7322C13.7634 14.2011 13.5 14.837 13.5 15.5C13.5 16.163 13.7634 16.7989 14.2322 17.2678C14.7011 17.7366 15.337 18 16 18C16.663 18 17.2989 17.7366 17.7678 17.2678C18.2366 16.7989 18.5 16.163 18.5 15.5C18.5 14.837 18.2366 14.2011 17.7678 13.7322C17.2989 13.2634 16.663 13 16 13Z" fill="#E3E3F8"/>
<path fill-rule="evenodd" clip-rule="evenodd" d="M13 8C11.8065 8 10.6619 8.47411 9.81802 9.31802C8.97411 10.1619 8.5 11.3065 8.5 12.5V18.5C8.5 19.6935 8.97411 20.8381 9.81802 21.682C10.6619 22.5259 11.8065 23 13 23H19C20.1935 23 21.3381 22.5259 22.182 21.682C23.0259 20.8381 23.5 19.6935 23.5 18.5V12.5C23.5 11.3065 23.0259 10.1619 22.182 9.31802C21.3381 8.47411 20.1935 8 19 8H13ZM12.5 15.5C12.5 14.5717 12.8687 13.6815 13.5251 13.0251C14.1815 12.3687 15.0717 12 16 12C16.9283 12 17.8185 12.3687 18.4749 13.0251C19.1313 13.6815 19.5 14.5717 19.5 15.5C19.5 16.4283 19.1313 17.3185 18.4749 17.9749C17.8185 18.6313 16.9283 19 16 19C15.0717 19 14.1815 18.6313 13.5251 17.9749C12.8687 17.3185 12.5 16.4283 12.5 15.5ZM19.5 12H20.5V11H19.5V12Z" fill="#E3E3F8"/>
<circle cx="15.5" cy="15" r="14.5" stroke="#E3E3F8"/>
</svg>
