<svg width="125" height="26" viewBox="0 0 125 26" fill="none" xmlns="http://www.w3.org/2000/svg">
<path d="M37.6661 21.8681C37.1166 22.7432 36.2415 23.5674 35.0409 24.3407C33.8402 25.0937 32.3953 25.4701 30.7063 25.4701C29.2003 25.4701 27.959 25.1547 26.9822 24.5238C26.0054 23.8726 25.2931 23.0281 24.8454 21.9902C24.3977 20.9524 24.1738 19.8331 24.1738 18.6324C24.1738 16.5567 24.591 14.6845 25.4254 13.0158C26.2801 11.3471 27.44 10.0446 28.9053 9.10852C30.3908 8.15206 32.029 7.67383 33.8199 7.67383C35.4886 7.67383 36.7198 8.04013 37.5134 8.77274C38.3071 9.50535 38.7039 10.4516 38.7039 11.6116C38.7039 13.0972 38.2155 14.3385 37.2387 15.3357C36.2619 16.3125 35.0612 17.0349 33.6367 17.503C32.2325 17.9711 30.8385 18.2254 29.4547 18.2661C29.4344 19.7721 29.6684 20.9117 30.1568 21.685C30.6656 22.4583 31.3676 22.8449 32.2631 22.8449C33.3009 22.8449 34.1658 22.6109 34.8577 22.1429C35.57 21.6748 36.1907 21.0846 36.7198 20.3724L37.6661 21.8681ZM32.7515 9.74955C31.6932 9.74955 30.8996 10.4313 30.3705 11.7948C29.8617 13.1582 29.5565 14.715 29.4547 16.4651C30.0856 16.4244 30.7571 16.2311 31.4694 15.8852C32.1817 15.5189 32.782 14.9999 33.2704 14.3284C33.7588 13.6568 34.003 12.8733 34.003 11.9779C34.003 10.4923 33.5858 9.74955 32.7515 9.74955Z" fill="#1E1E1E"/>
<path d="M1.86205 11.1835C1.78065 10.8783 1.68907 10.6646 1.58732 10.5425C1.50592 10.4204 1.38382 10.3593 1.22102 10.3593C1.05821 10.3593 0.915762 10.3797 0.79366 10.4204C0.691909 10.4611 0.579983 10.5119 0.457881 10.573L0 9.44356C0.122102 9.28076 0.37648 9.06708 0.763135 8.80253C1.14979 8.51762 1.61785 8.26325 2.1673 8.03939C2.71676 7.81554 3.28657 7.70361 3.87673 7.70361C4.75179 7.70361 5.41317 7.87659 5.86088 8.22255C6.30858 8.5685 6.58331 9.07726 6.68506 9.74881L7.87555 18.5707L8.24186 21.7148L9.55445 17.5328L12.4544 7.82572H16.8195L18.3763 19.0896L18.6205 21.5927L19.3531 20.3717C20.2282 19.0082 20.8692 17.7465 21.2762 16.5865C21.7036 15.4265 21.9172 14.236 21.9172 13.015C21.9172 12.6894 21.8358 12.1807 21.673 11.4888C21.5102 10.7969 21.4288 10.2576 21.4288 9.87092C21.4288 9.26041 21.6425 8.75165 22.0699 8.34465C22.5176 7.91729 23.1077 7.70361 23.8403 7.70361C24.7561 7.70361 25.4175 8.01904 25.8245 8.6499C26.2518 9.26041 26.4655 10.0337 26.4655 10.9698C26.4655 11.9059 26.089 13.1371 25.3361 14.6634C24.6035 16.1897 23.7182 17.7159 22.6804 19.2422C21.6425 20.7685 20.7166 21.9997 19.9026 22.9358L18.0405 25.1641L14.7743 25.3168L13.8891 19.7611L13.4312 15.6707L13.2175 13.4119L12.607 15.6707L11.386 18.9675L8.91342 25.1031L4.97564 25.3473L3.78515 19.7611L1.86205 11.1835Z" fill="#1E1E1E"/>
<path d="M118.859 19.5176C118.716 20.698 118.645 21.4102 118.645 21.6544C118.645 22.1225 118.737 22.4583 118.92 22.6618C119.103 22.8449 119.418 22.9365 119.866 22.9365C120.273 22.9365 120.731 22.8449 121.24 22.6618C121.769 22.4583 122.206 22.2141 122.552 21.9292L122.888 23.0586C122.359 23.6487 121.606 24.188 120.629 24.6764C119.652 25.1648 118.554 25.409 117.333 25.409C116.478 25.409 115.796 25.1954 115.287 24.768C114.799 24.3203 114.555 23.6182 114.555 22.6618C114.555 22.2548 114.657 21.2983 114.86 19.7924L116.142 10.3295H114.311L114.646 8.86428L116.478 8.22325C117.088 7.65344 117.811 6.24927 118.645 4.01074H120.935L120.416 8.1622H124.079L123.773 10.3295H120.11L118.859 19.5176Z" fill="#4747D6"/>
<path d="M111.712 12.3129C111.142 11.6007 110.633 11.0309 110.185 10.6035C109.758 10.1558 109.381 9.93195 109.056 9.93195C108.303 9.93195 107.601 10.2779 106.95 10.9698C106.319 11.6617 105.8 12.6284 105.393 13.8697C105.006 15.1111 104.813 16.5051 104.813 18.0517C104.813 19.7408 105.057 20.9821 105.545 21.7758C106.034 22.5491 106.777 22.9358 107.774 22.9358C108.629 22.9358 109.351 22.773 109.941 22.4474C110.552 22.1218 111.142 21.6639 111.712 21.0737L112.505 22.4168C111.996 23.1698 111.193 23.8617 110.094 24.4926C109.015 25.1031 107.733 25.4083 106.248 25.4083C104.497 25.4083 103.124 24.7978 102.127 23.5768C101.129 22.3354 100.631 20.5853 100.631 18.3264C100.631 16.617 100.987 14.9585 101.699 13.3508C102.412 11.7228 103.47 10.3898 104.874 9.35197C106.278 8.29376 107.967 7.76465 109.941 7.76465C110.572 7.76465 111.223 7.8257 111.895 7.9478C112.587 8.04955 113.146 8.20218 113.574 8.40568L112.536 12.374L111.712 12.3129Z" fill="#4747D6"/>
<path d="M98.7277 22.0503C98.1986 22.8847 97.3337 23.6681 96.133 24.4008C94.9527 25.1334 93.5791 25.4997 92.0121 25.4997C90.5469 25.4997 89.3361 25.1842 88.3796 24.5534C87.4435 23.9225 86.7618 23.0983 86.3344 22.0808C85.907 21.0633 85.6934 19.9542 85.6934 18.7536C85.6934 16.7185 86.1004 14.8667 86.9144 13.1979C87.7487 11.5089 88.8782 10.1759 90.3027 9.19911C91.7272 8.22229 93.3145 7.73389 95.0647 7.73389C96.6316 7.73389 97.7916 8.10019 98.5446 8.8328C99.3179 9.54506 99.7045 10.4812 99.7045 11.6411C99.7045 13.1064 99.1754 14.3274 98.1172 15.3042C97.059 16.281 95.7871 17.0136 94.3015 17.502C92.816 17.9701 91.4118 18.2244 90.089 18.2651C90.0483 19.7304 90.2823 20.9107 90.7911 21.8061C91.3202 22.7015 92.1139 23.1492 93.1721 23.1492C94.9222 23.1492 96.5095 22.3352 97.934 20.7072L98.7277 22.0503ZM94.1489 9.62646C92.9482 9.62646 92.0019 10.3489 91.31 11.7938C90.6181 13.2386 90.2111 14.8463 90.089 16.6168C90.8827 16.5761 91.717 16.3624 92.5921 15.9757C93.4875 15.5891 94.2303 15.0498 94.8205 14.3579C95.431 13.6456 95.7362 12.8316 95.7362 11.9159C95.7362 11.1833 95.5938 10.6236 95.3089 10.237C95.0443 9.82996 94.6576 9.62646 94.1489 9.62646Z" fill="#4747D6"/>
<path d="M81.9796 22.0509C81.9592 22.1323 81.9491 22.2443 81.9491 22.3867C81.9491 22.8955 82.1322 23.1498 82.4985 23.1498C82.6817 23.1498 82.875 23.099 83.0785 22.9972C83.3023 22.8955 83.5974 22.6818 83.9637 22.3562L84.3606 23.3025C84.035 23.7705 83.5567 24.2386 82.9259 24.7066C82.295 25.1747 81.481 25.4087 80.4838 25.4087C79.7105 25.4087 79.0797 25.2561 78.5913 24.9508C78.1029 24.6252 77.8485 24.1267 77.8281 23.4551C77.8281 23.3737 77.8688 23.0074 77.9502 22.3562L80.6059 2.85046L78.6828 2.23995L78.9576 1.11051L84.1469 0.5L84.849 0.89683L81.9796 22.0509Z" fill="#4747D6"/>
<path d="M73.5948 22.0509C73.5745 22.1323 73.5643 22.2443 73.5643 22.3867C73.5643 22.8955 73.7474 23.1498 74.1137 23.1498C74.2969 23.1498 74.4902 23.099 74.6937 22.9972C74.9176 22.8955 75.2127 22.6818 75.579 22.3562L75.9758 23.3025C75.6502 23.7705 75.172 24.2386 74.5411 24.7066C73.9102 25.1747 73.0962 25.4087 72.0991 25.4087C71.3258 25.4087 70.6949 25.2561 70.2065 24.9508C69.7181 24.6252 69.4637 24.1267 69.4434 23.4551C69.4434 23.3737 69.4841 23.0074 69.5655 22.3562L72.2212 2.85046L70.2981 2.23995L70.5728 1.11051L75.7621 0.5L76.4642 0.89683L73.5948 22.0509Z" fill="#4747D6"/>
<path d="M61.1445 7.73389C63.2609 7.73389 64.8787 8.35457 65.998 9.59594C67.1173 10.817 67.6769 12.5773 67.6769 14.8768C67.6769 16.7694 67.2902 18.5297 66.5169 20.1577C65.7436 21.7857 64.6549 23.0882 63.2507 24.065C61.8465 25.0214 60.2389 25.4997 58.4277 25.4997C56.3113 25.4997 54.6934 24.879 53.5742 23.6376C52.4752 22.3759 51.9258 20.5851 51.9258 18.2651C51.9258 16.3522 52.3023 14.5919 53.0552 12.9843C53.8285 11.3766 54.9173 10.1047 56.3214 9.16858C57.7256 8.21212 59.3333 7.73389 61.1445 7.73389ZM60.6255 9.65699C59.6894 9.65699 58.8957 10.0843 58.2445 10.9391C57.5933 11.7734 57.1049 12.8418 56.7793 14.1442C56.4741 15.4466 56.3214 16.7796 56.3214 18.143C56.3214 20.0763 56.5351 21.4907 56.9625 22.3861C57.4102 23.2815 58.1021 23.7292 59.0382 23.7292C59.954 23.7292 60.7273 23.3018 61.3581 22.4471C61.989 21.5924 62.457 20.5037 62.7623 19.1809C63.0676 17.8581 63.2202 16.5049 63.2202 15.121C63.2202 13.1878 63.0065 11.7938 62.5791 10.9391C62.1721 10.0843 61.5209 9.65699 60.6255 9.65699Z" fill="#4747D6"/>
<path d="M49.7877 12.3129C49.2179 11.6007 48.7092 11.0309 48.2615 10.6035C47.8341 10.1558 47.4576 9.93195 47.132 9.93195C46.3791 9.93195 45.677 10.2779 45.0258 10.9698C44.3949 11.6617 43.876 12.6284 43.469 13.8697C43.0823 15.1111 42.889 16.5051 42.889 18.0517C42.889 19.7408 43.1332 20.9821 43.6216 21.7758C44.11 22.5491 44.8528 22.9358 45.85 22.9358C46.7047 22.9358 47.4271 22.773 48.0173 22.4474C48.6278 22.1218 49.2179 21.6639 49.7877 21.0737L50.5814 22.4168C50.0727 23.1698 49.2688 23.8617 48.1699 24.4926C47.0913 25.1031 45.8093 25.4083 44.3237 25.4083C42.5736 25.4083 41.1999 24.7978 40.2028 23.5768C39.2056 22.3354 38.707 20.5853 38.707 18.3264C38.707 16.617 39.0632 14.9585 39.7754 13.3508C40.4877 11.7228 41.5459 10.3898 42.9501 9.35197C44.3542 8.29376 46.0433 7.76465 48.0173 7.76465C48.6481 7.76465 49.2993 7.8257 49.9709 7.9478C50.6628 8.04955 51.2224 8.20218 51.6498 8.40568L50.6119 12.374L49.7877 12.3129Z" fill="#4747D6"/>
</svg>
