<svg width="30" height="30" viewBox="0 0 30 30" fill="none" xmlns="http://www.w3.org/2000/svg">
<path d="M11.148 9.57476C11.1477 9.99221 10.9817 10.3925 10.6864 10.6875C10.3911 10.9825 9.99063 11.1482 9.57319 11.148C9.15575 11.1477 8.75548 10.9817 8.46045 10.6864C8.16542 10.3911 7.99979 9.99063 8 9.57319C8.00021 9.15575 8.16624 8.75548 8.46156 8.46045C8.75689 8.16542 9.15732 7.99979 9.57476 8C9.99221 8.00021 10.3925 8.16624 10.6875 8.46156C10.9825 8.75689 11.1482 9.15732 11.148 9.57476ZM11.1952 12.3135H8.04722V22.1666H11.1952V12.3135ZM16.1689 12.3135H13.0367V22.1666H16.1375V16.9961C16.1375 14.1157 19.8914 13.8481 19.8914 16.9961V22.1666H23V15.9258C23 11.07 17.4439 11.251 16.1375 13.6356L16.1689 12.3135Z" fill="#4747D6"/>
<circle cx="15" cy="15" r="14.5" stroke="#4747D6"/>
</svg>
