<svg width="31" height="30" viewBox="0 0 31 30" fill="none" xmlns="http://www.w3.org/2000/svg">
<path d="M11.648 9.57476C11.6477 9.99221 11.4817 10.3925 11.1864 10.6875C10.8911 10.9825 10.4906 11.1482 10.0732 11.148C9.65575 11.1477 9.25548 10.9817 8.96045 10.6864C8.66542 10.3911 8.49979 9.99063 8.5 9.57319C8.50021 9.15575 8.66624 8.75548 8.96156 8.46045C9.25689 8.16542 9.65732 7.99979 10.0748 8C10.4922 8.00021 10.8925 8.16624 11.1875 8.46156C11.4825 8.75689 11.6482 9.15732 11.648 9.57476ZM11.6952 12.3135H8.54722V22.1666H11.6952V12.3135ZM16.6689 12.3135H13.5367V22.1666H16.6375V16.9961C16.6375 14.1157 20.3914 13.8481 20.3914 16.9961V22.1666H23.5V15.9258C23.5 11.07 17.9439 11.251 16.6375 13.6356L16.6689 12.3135Z" fill="#E3E3F8"/>
<circle cx="15.5" cy="15" r="14.5" stroke="#E3E3F8"/>
</svg>
