<svg width="348" height="201" viewBox="0 0 348 201" fill="none" xmlns="http://www.w3.org/2000/svg">
<g filter="url(#filter0_dddd_1_1249)">
<rect x="40" y="8" width="268" height="52" rx="26" fill="white"/>
<rect x="45" y="13" width="42" height="42" rx="21" fill="#FFF3F3"/>
<path d="M66 22.0002C63.5246 22.0002 61.1507 22.9835 59.4003 24.7338C57.65 26.4842 56.6667 28.8581 56.6667 31.3335C56.6667 35.1495 59.0427 38.8308 61.6507 41.6828C62.9849 43.1349 64.4399 44.4713 66 45.6775C67.5601 44.4722 69.0151 43.1368 70.3493 41.6855C72.9573 38.8308 75.3333 35.1508 75.3333 31.3335C75.3333 28.8581 74.35 26.4842 72.5997 24.7338C70.8493 22.9835 68.4754 22.0002 66 22.0002ZM66 48.9522L65.244 48.4322L65.24 48.4295L65.232 48.4228L65.2053 48.4042L65.1053 48.3335C64.5532 47.9322 64.0134 47.5142 63.4867 47.0802C62.1365 45.971 60.8654 44.769 59.6827 43.4828C56.9573 40.5015 54 36.1828 54 31.3335C54 28.1509 55.2643 25.0987 57.5147 22.8482C59.7652 20.5978 62.8174 19.3335 66 19.3335C69.1826 19.3335 72.2348 20.5978 74.4853 22.8482C76.7357 25.0987 78 28.1509 78 31.3335C78 36.1828 75.0427 40.5028 72.3173 43.4828C70.7732 45.1624 69.079 46.6976 67.256 48.0695C67.1041 48.183 66.9507 48.2946 66.796 48.4042L66.768 48.4228L66.76 48.4295L66.7573 48.4308L66 48.9522ZM66 28.6668C65.2928 28.6668 64.6145 28.9478 64.1144 29.4479C63.6143 29.948 63.3333 30.6263 63.3333 31.3335C63.3333 32.0407 63.6143 32.719 64.1144 33.2191C64.6145 33.7192 65.2928 34.0002 66 34.0002C66.7072 34.0002 67.3855 33.7192 67.8856 33.2191C68.3857 32.719 68.6667 32.0407 68.6667 31.3335C68.6667 30.6263 68.3857 29.948 67.8856 29.4479C67.3855 28.9478 66.7072 28.6668 66 28.6668ZM60.6667 31.3335C60.6667 29.919 61.2286 28.5625 62.2288 27.5623C63.229 26.5621 64.5855 26.0002 66 26.0002C67.4145 26.0002 68.771 26.5621 69.7712 27.5623C70.7714 28.5625 71.3333 29.919 71.3333 31.3335C71.3333 32.748 70.7714 34.1045 69.7712 35.1047C68.771 36.1049 67.4145 36.6668 66 36.6668C64.5855 36.6668 63.229 36.1049 62.2288 35.1047C61.2286 34.1045 60.6667 32.748 60.6667 31.3335Z" fill="#E02D2D"/>
<path d="M98.68 40V28.8H100.28V38.608H106.344V40H98.68ZM111.479 40.096C110.625 40.096 109.868 39.9093 109.207 39.536C108.545 39.1627 108.023 38.6507 107.639 38C107.255 37.3387 107.063 36.592 107.063 35.76C107.063 34.9173 107.255 34.1707 107.639 33.52C108.023 32.8693 108.545 32.3627 109.207 32C109.868 31.6267 110.625 31.44 111.479 31.44C112.321 31.44 113.073 31.6267 113.735 32C114.407 32.3627 114.929 32.8693 115.303 33.52C115.687 34.16 115.879 34.9067 115.879 35.76C115.879 36.6027 115.687 37.3493 115.303 38C114.929 38.6507 114.407 39.1627 113.735 39.536C113.073 39.9093 112.321 40.096 111.479 40.096ZM111.479 38.752C112.023 38.752 112.508 38.6293 112.935 38.384C113.372 38.1387 113.713 37.792 113.959 37.344C114.204 36.8853 114.327 36.3573 114.327 35.76C114.327 35.152 114.204 34.6293 113.959 34.192C113.713 33.744 113.372 33.3973 112.935 33.152C112.508 32.9067 112.023 32.784 111.479 32.784C110.935 32.784 110.449 32.9067 110.023 33.152C109.596 33.3973 109.255 33.744 108.999 34.192C108.743 34.6293 108.615 35.152 108.615 35.76C108.615 36.3573 108.743 36.8853 108.999 37.344C109.255 37.792 109.596 38.1387 110.023 38.384C110.449 38.6293 110.935 38.752 111.479 38.752ZM121.699 40.096C120.835 40.096 120.062 39.9093 119.379 39.536C118.707 39.1627 118.179 38.6507 117.795 38C117.411 37.3493 117.219 36.6027 117.219 35.76C117.219 34.9173 117.411 34.1707 117.795 33.52C118.179 32.8693 118.707 32.3627 119.379 32C120.062 31.6267 120.835 31.44 121.699 31.44C122.467 31.44 123.15 31.5947 123.747 31.904C124.355 32.2027 124.824 32.6507 125.155 33.248L123.987 34C123.71 33.584 123.368 33.28 122.963 33.088C122.568 32.8853 122.142 32.784 121.683 32.784C121.128 32.784 120.632 32.9067 120.195 33.152C119.758 33.3973 119.411 33.744 119.155 34.192C118.899 34.6293 118.771 35.152 118.771 35.76C118.771 36.368 118.899 36.896 119.155 37.344C119.411 37.792 119.758 38.1387 120.195 38.384C120.632 38.6293 121.128 38.752 121.683 38.752C122.142 38.752 122.568 38.656 122.963 38.464C123.368 38.2613 123.71 37.952 123.987 37.536L125.155 38.272C124.824 38.8587 124.355 39.312 123.747 39.632C123.15 39.9413 122.467 40.096 121.699 40.096ZM132.408 40V38.208L132.328 37.872V34.816C132.328 34.1653 132.136 33.664 131.752 33.312C131.378 32.9493 130.813 32.768 130.056 32.768C129.554 32.768 129.064 32.8533 128.584 33.024C128.104 33.184 127.698 33.4027 127.368 33.68L126.728 32.528C127.165 32.176 127.688 31.9093 128.296 31.728C128.914 31.536 129.56 31.44 130.232 31.44C131.394 31.44 132.29 31.7227 132.92 32.288C133.549 32.8533 133.864 33.7173 133.864 34.88V40H132.408ZM129.624 40.096C128.994 40.096 128.44 39.9893 127.96 39.776C127.49 39.5627 127.128 39.2693 126.872 38.896C126.616 38.512 126.488 38.08 126.488 37.6C126.488 37.1413 126.594 36.7253 126.808 36.352C127.032 35.9787 127.389 35.68 127.88 35.456C128.381 35.232 129.053 35.12 129.896 35.12H132.584V36.224H129.96C129.192 36.224 128.674 36.352 128.408 36.608C128.141 36.864 128.008 37.1733 128.008 37.536C128.008 37.952 128.173 38.288 128.504 38.544C128.834 38.7893 129.293 38.912 129.88 38.912C130.456 38.912 130.957 38.784 131.384 38.528C131.821 38.272 132.136 37.8987 132.328 37.408L132.632 38.464C132.429 38.9653 132.072 39.3653 131.56 39.664C131.048 39.952 130.402 40.096 129.624 40.096ZM139.618 40.096C138.765 40.096 138.103 39.8667 137.634 39.408C137.165 38.9493 136.93 38.2933 136.93 37.44V29.664H138.466V37.376C138.466 37.8347 138.578 38.1867 138.802 38.432C139.037 38.6773 139.367 38.8 139.794 38.8C140.274 38.8 140.674 38.6667 140.994 38.4L141.474 39.504C141.239 39.7067 140.957 39.856 140.626 39.952C140.306 40.048 139.97 40.096 139.618 40.096ZM135.49 32.784V31.52H140.898V32.784H135.49ZM143.331 40V31.52H144.867V40H143.331ZM144.099 29.888C143.8 29.888 143.55 29.792 143.347 29.6C143.155 29.408 143.059 29.1733 143.059 28.896C143.059 28.608 143.155 28.368 143.347 28.176C143.55 27.984 143.8 27.888 144.099 27.888C144.398 27.888 144.643 27.984 144.835 28.176C145.038 28.3573 145.139 28.5867 145.139 28.864C145.139 29.152 145.043 29.3973 144.851 29.6C144.659 29.792 144.408 29.888 144.099 29.888ZM151.432 40.096C150.578 40.096 149.821 39.9093 149.16 39.536C148.498 39.1627 147.976 38.6507 147.592 38C147.208 37.3387 147.016 36.592 147.016 35.76C147.016 34.9173 147.208 34.1707 147.592 33.52C147.976 32.8693 148.498 32.3627 149.16 32C149.821 31.6267 150.578 31.44 151.432 31.44C152.274 31.44 153.026 31.6267 153.688 32C154.36 32.3627 154.882 32.8693 155.256 33.52C155.64 34.16 155.832 34.9067 155.832 35.76C155.832 36.6027 155.64 37.3493 155.256 38C154.882 38.6507 154.36 39.1627 153.688 39.536C153.026 39.9093 152.274 40.096 151.432 40.096ZM151.432 38.752C151.976 38.752 152.461 38.6293 152.888 38.384C153.325 38.1387 153.666 37.792 153.912 37.344C154.157 36.8853 154.28 36.3573 154.28 35.76C154.28 35.152 154.157 34.6293 153.912 34.192C153.666 33.744 153.325 33.3973 152.888 33.152C152.461 32.9067 151.976 32.784 151.432 32.784C150.888 32.784 150.402 32.9067 149.976 33.152C149.549 33.3973 149.208 33.744 148.952 34.192C148.696 34.6293 148.568 35.152 148.568 35.76C148.568 36.3573 148.696 36.8853 148.952 37.344C149.208 37.792 149.549 38.1387 149.976 38.384C150.402 38.6293 150.888 38.752 151.432 38.752ZM162.484 31.44C163.177 31.44 163.785 31.5733 164.308 31.84C164.841 32.1067 165.257 32.512 165.556 33.056C165.855 33.6 166.004 34.288 166.004 35.12V40H164.468V35.296C164.468 34.4747 164.265 33.856 163.86 33.44C163.465 33.024 162.905 32.816 162.18 32.816C161.636 32.816 161.161 32.9227 160.756 33.136C160.351 33.3493 160.036 33.664 159.812 34.08C159.599 34.496 159.492 35.0133 159.492 35.632V40H157.956V31.52H159.428V33.808L159.188 33.2C159.465 32.6453 159.892 32.2133 160.468 31.904C161.044 31.5947 161.716 31.44 162.484 31.44ZM173.144 40V31.52H174.68V40H173.144ZM173.912 29.888C173.613 29.888 173.362 29.792 173.16 29.6C172.968 29.408 172.872 29.1733 172.872 28.896C172.872 28.608 172.968 28.368 173.16 28.176C173.362 27.984 173.613 27.888 173.912 27.888C174.21 27.888 174.456 27.984 174.648 28.176C174.85 28.3573 174.952 28.5867 174.952 28.864C174.952 29.152 174.856 29.3973 174.664 29.6C174.472 29.792 174.221 29.888 173.912 29.888ZM182.14 31.44C182.834 31.44 183.442 31.5733 183.964 31.84C184.498 32.1067 184.914 32.512 185.212 33.056C185.511 33.6 185.66 34.288 185.66 35.12V40H184.124V35.296C184.124 34.4747 183.922 33.856 183.516 33.44C183.122 33.024 182.562 32.816 181.836 32.816C181.292 32.816 180.818 32.9227 180.412 33.136C180.007 33.3493 179.692 33.664 179.468 34.08C179.255 34.496 179.148 35.0133 179.148 35.632V40H177.612V31.52H179.084V33.808L178.844 33.2C179.122 32.6453 179.548 32.2133 180.124 31.904C180.7 31.5947 181.372 31.44 182.14 31.44ZM191.415 40.096C190.562 40.096 189.9 39.8667 189.431 39.408C188.962 38.9493 188.727 38.2933 188.727 37.44V29.664H190.263V37.376C190.263 37.8347 190.375 38.1867 190.599 38.432C190.834 38.6773 191.164 38.8 191.591 38.8C192.071 38.8 192.471 38.6667 192.791 38.4L193.271 39.504C193.036 39.7067 192.754 39.856 192.423 39.952C192.103 40.048 191.767 40.096 191.415 40.096ZM187.287 32.784V31.52H192.695V32.784H187.287ZM198.623 40.096C197.716 40.096 196.916 39.9093 196.223 39.536C195.54 39.1627 195.007 38.6507 194.623 38C194.249 37.3493 194.063 36.6027 194.063 35.76C194.063 34.9173 194.244 34.1707 194.607 33.52C194.98 32.8693 195.487 32.3627 196.127 32C196.777 31.6267 197.508 31.44 198.319 31.44C199.14 31.44 199.865 31.6213 200.495 31.984C201.124 32.3467 201.615 32.8587 201.967 33.52C202.329 34.1707 202.511 34.9333 202.511 35.808C202.511 35.872 202.505 35.9467 202.495 36.032C202.495 36.1173 202.489 36.1973 202.479 36.272H195.263V35.168H201.679L201.055 35.552C201.065 35.008 200.953 34.5227 200.719 34.096C200.484 33.6693 200.159 33.3387 199.743 33.104C199.337 32.8587 198.863 32.736 198.319 32.736C197.785 32.736 197.311 32.8587 196.895 33.104C196.479 33.3387 196.153 33.6747 195.919 34.112C195.684 34.5387 195.567 35.0293 195.567 35.584V35.84C195.567 36.4053 195.695 36.912 195.951 37.36C196.217 37.7973 196.585 38.1387 197.055 38.384C197.524 38.6293 198.063 38.752 198.671 38.752C199.172 38.752 199.625 38.6667 200.031 38.496C200.447 38.3253 200.809 38.0693 201.119 37.728L201.967 38.72C201.583 39.168 201.103 39.5093 200.527 39.744C199.961 39.9787 199.327 40.096 198.623 40.096ZM204.644 40V28.128H206.18V40H204.644ZM209.112 40V28.128H210.648V40H209.112ZM213.581 40V31.52H215.117V40H213.581ZM214.349 29.888C214.05 29.888 213.8 29.792 213.597 29.6C213.405 29.408 213.309 29.1733 213.309 28.896C213.309 28.608 213.405 28.368 213.597 28.176C213.8 27.984 214.05 27.888 214.349 27.888C214.648 27.888 214.893 27.984 215.085 28.176C215.288 28.3573 215.389 28.5867 215.389 28.864C215.389 29.152 215.293 29.3973 215.101 29.6C214.909 29.792 214.658 29.888 214.349 29.888ZM221.762 43.2C220.983 43.2 220.226 43.088 219.49 42.864C218.764 42.6507 218.172 42.3413 217.714 41.936L218.45 40.752C218.844 41.0933 219.33 41.36 219.906 41.552C220.482 41.7547 221.084 41.856 221.714 41.856C222.716 41.856 223.452 41.6213 223.922 41.152C224.391 40.6827 224.626 39.968 224.626 39.008V37.216L224.786 35.536L224.706 33.84V31.52H226.162V38.848C226.162 40.3413 225.788 41.44 225.042 42.144C224.295 42.848 223.202 43.2 221.762 43.2ZM221.57 39.648C220.748 39.648 220.012 39.4773 219.362 39.136C218.722 38.784 218.21 38.2987 217.826 37.68C217.452 37.0613 217.266 36.3467 217.266 35.536C217.266 34.7147 217.452 34 217.826 33.392C218.21 32.7733 218.722 32.2933 219.362 31.952C220.012 31.6107 220.748 31.44 221.57 31.44C222.295 31.44 222.956 31.5893 223.554 31.888C224.151 32.176 224.626 32.624 224.978 33.232C225.34 33.84 225.522 34.608 225.522 35.536C225.522 36.4533 225.34 37.216 224.978 37.824C224.626 38.432 224.151 38.8907 223.554 39.2C222.956 39.4987 222.295 39.648 221.57 39.648ZM221.746 38.304C222.311 38.304 222.812 38.1867 223.25 37.952C223.687 37.7173 224.028 37.392 224.274 36.976C224.53 36.56 224.658 36.08 224.658 35.536C224.658 34.992 224.53 34.512 224.274 34.096C224.028 33.68 223.687 33.36 223.25 33.136C222.812 32.9013 222.311 32.784 221.746 32.784C221.18 32.784 220.674 32.9013 220.226 33.136C219.788 33.36 219.442 33.68 219.186 34.096C218.94 34.512 218.818 34.992 218.818 35.536C218.818 36.08 218.94 36.56 219.186 36.976C219.442 37.392 219.788 37.7173 220.226 37.952C220.674 38.1867 221.18 38.304 221.746 38.304ZM232.873 40.096C231.966 40.096 231.166 39.9093 230.473 39.536C229.79 39.1627 229.257 38.6507 228.873 38C228.499 37.3493 228.313 36.6027 228.313 35.76C228.313 34.9173 228.494 34.1707 228.857 33.52C229.23 32.8693 229.737 32.3627 230.377 32C231.027 31.6267 231.758 31.44 232.569 31.44C233.39 31.44 234.115 31.6213 234.745 31.984C235.374 32.3467 235.865 32.8587 236.217 33.52C236.579 34.1707 236.761 34.9333 236.761 35.808C236.761 35.872 236.755 35.9467 236.745 36.032C236.745 36.1173 236.739 36.1973 236.729 36.272H229.513V35.168H235.929L235.305 35.552C235.315 35.008 235.203 34.5227 234.969 34.096C234.734 33.6693 234.409 33.3387 233.993 33.104C233.587 32.8587 233.113 32.736 232.569 32.736C232.035 32.736 231.561 32.8587 231.145 33.104C230.729 33.3387 230.403 33.6747 230.169 34.112C229.934 34.5387 229.817 35.0293 229.817 35.584V35.84C229.817 36.4053 229.945 36.912 230.201 37.36C230.467 37.7973 230.835 38.1387 231.305 38.384C231.774 38.6293 232.313 38.752 232.921 38.752C233.422 38.752 233.875 38.6667 234.281 38.496C234.697 38.3253 235.059 38.0693 235.369 37.728L236.217 38.72C235.833 39.168 235.353 39.5093 234.777 39.744C234.211 39.9787 233.577 40.096 232.873 40.096ZM243.422 31.44C244.115 31.44 244.723 31.5733 245.246 31.84C245.779 32.1067 246.195 32.512 246.494 33.056C246.792 33.6 246.942 34.288 246.942 35.12V40H245.406V35.296C245.406 34.4747 245.203 33.856 244.798 33.44C244.403 33.024 243.843 32.816 243.118 32.816C242.574 32.816 242.099 32.9227 241.694 33.136C241.288 33.3493 240.974 33.664 240.75 34.08C240.536 34.496 240.43 35.0133 240.43 35.632V40H238.894V31.52H240.366V33.808L240.126 33.2C240.403 32.6453 240.83 32.2133 241.406 31.904C241.982 31.5947 242.654 31.44 243.422 31.44ZM252.696 40.096C251.843 40.096 251.181 39.8667 250.712 39.408C250.243 38.9493 250.008 38.2933 250.008 37.44V29.664H251.544V37.376C251.544 37.8347 251.656 38.1867 251.88 38.432C252.115 38.6773 252.445 38.8 252.872 38.8C253.352 38.8 253.752 38.6667 254.072 38.4L254.552 39.504C254.317 39.7067 254.035 39.856 253.704 39.952C253.384 40.048 253.048 40.096 252.696 40.096ZM248.568 32.784V31.52H253.976V32.784H248.568ZM265.97 40V38.208L265.89 37.872V34.816C265.89 34.1653 265.698 33.664 265.314 33.312C264.941 32.9493 264.375 32.768 263.618 32.768C263.117 32.768 262.626 32.8533 262.146 33.024C261.666 33.184 261.261 33.4027 260.93 33.68L260.29 32.528C260.727 32.176 261.25 31.9093 261.858 31.728C262.477 31.536 263.122 31.44 263.794 31.44C264.957 31.44 265.853 31.7227 266.482 32.288C267.111 32.8533 267.426 33.7173 267.426 34.88V40H265.97ZM263.186 40.096C262.557 40.096 262.002 39.9893 261.522 39.776C261.053 39.5627 260.69 39.2693 260.434 38.896C260.178 38.512 260.05 38.08 260.05 37.6C260.05 37.1413 260.157 36.7253 260.37 36.352C260.594 35.9787 260.951 35.68 261.442 35.456C261.943 35.232 262.615 35.12 263.458 35.12H266.146V36.224H263.522C262.754 36.224 262.237 36.352 261.97 36.608C261.703 36.864 261.57 37.1733 261.57 37.536C261.57 37.952 261.735 38.288 262.066 38.544C262.397 38.7893 262.855 38.912 263.442 38.912C264.018 38.912 264.519 38.784 264.946 38.528C265.383 38.272 265.698 37.8987 265.89 37.408L266.194 38.464C265.991 38.9653 265.634 39.3653 265.122 39.664C264.61 39.952 263.965 40.096 263.186 40.096ZM274.765 40.096C274.061 40.096 273.415 39.936 272.829 39.616C272.253 39.2853 271.789 38.8 271.437 38.16C271.095 37.52 270.924 36.72 270.924 35.76C270.924 34.8 271.09 34 271.421 33.36C271.762 32.72 272.221 32.24 272.797 31.92C273.383 31.6 274.039 31.44 274.765 31.44C275.597 31.44 276.333 31.6213 276.973 31.984C277.613 32.3467 278.119 32.8533 278.493 33.504C278.866 34.144 279.053 34.896 279.053 35.76C279.053 36.624 278.866 37.3813 278.493 38.032C278.119 38.6827 277.613 39.1893 276.973 39.552C276.333 39.9147 275.597 40.096 274.765 40.096ZM270.269 43.104V31.52H271.741V33.808L271.645 35.776L271.805 37.744V43.104H270.269ZM274.637 38.752C275.181 38.752 275.666 38.6293 276.093 38.384C276.53 38.1387 276.871 37.792 277.117 37.344C277.373 36.8853 277.501 36.3573 277.501 35.76C277.501 35.152 277.373 34.6293 277.117 34.192C276.871 33.744 276.53 33.3973 276.093 33.152C275.666 32.9067 275.181 32.784 274.637 32.784C274.103 32.784 273.618 32.9067 273.181 33.152C272.754 33.3973 272.413 33.744 272.157 34.192C271.911 34.6293 271.789 35.152 271.789 35.76C271.789 36.3573 271.911 36.8853 272.157 37.344C272.413 37.792 272.754 38.1387 273.181 38.384C273.618 38.6293 274.103 38.752 274.637 38.752ZM285.671 40.096C284.967 40.096 284.321 39.936 283.735 39.616C283.159 39.2853 282.695 38.8 282.343 38.16C282.001 37.52 281.831 36.72 281.831 35.76C281.831 34.8 281.996 34 282.327 33.36C282.668 32.72 283.127 32.24 283.703 31.92C284.289 31.6 284.945 31.44 285.671 31.44C286.503 31.44 287.239 31.6213 287.879 31.984C288.519 32.3467 289.025 32.8533 289.399 33.504C289.772 34.144 289.959 34.896 289.959 35.76C289.959 36.624 289.772 37.3813 289.399 38.032C289.025 38.6827 288.519 39.1893 287.879 39.552C287.239 39.9147 286.503 40.096 285.671 40.096ZM281.175 43.104V31.52H282.647V33.808L282.551 35.776L282.711 37.744V43.104H281.175ZM285.543 38.752C286.087 38.752 286.572 38.6293 286.999 38.384C287.436 38.1387 287.777 37.792 288.023 37.344C288.279 36.8853 288.407 36.3573 288.407 35.76C288.407 35.152 288.279 34.6293 288.023 34.192C287.777 33.744 287.436 33.3973 286.999 33.152C286.572 32.9067 286.087 32.784 285.543 32.784C285.009 32.784 284.524 32.9067 284.087 33.152C283.66 33.3973 283.319 33.744 283.063 34.192C282.817 34.6293 282.695 35.152 282.695 35.76C282.695 36.3573 282.817 36.8853 283.063 37.344C283.319 37.792 283.66 38.1387 284.087 38.384C284.524 38.6293 285.009 38.752 285.543 38.752Z" fill="#555555"/>
</g>
<defs>
<filter id="filter0_dddd_1_1249" x="0" y="0" width="348" height="201" filterUnits="userSpaceOnUse" color-interpolation-filters="sRGB">
<feFlood flood-opacity="0" result="BackgroundImageFix"/>
<feColorMatrix in="SourceAlpha" type="matrix" values="0 0 0 0 0 0 0 0 0 0 0 0 0 0 0 0 0 0 127 0" result="hardAlpha"/>
<feOffset dy="6"/>
<feGaussianBlur stdDeviation="7"/>
<feColorMatrix type="matrix" values="0 0 0 0 0.854902 0 0 0 0 0.839216 0 0 0 0 1 0 0 0 0.1 0"/>
<feBlend mode="normal" in2="BackgroundImageFix" result="effect1_dropShadow_1_1249"/>
<feColorMatrix in="SourceAlpha" type="matrix" values="0 0 0 0 0 0 0 0 0 0 0 0 0 0 0 0 0 0 127 0" result="hardAlpha"/>
<feOffset dy="25"/>
<feGaussianBlur stdDeviation="12.5"/>
<feColorMatrix type="matrix" values="0 0 0 0 0.854902 0 0 0 0 0.839216 0 0 0 0 1 0 0 0 0.09 0"/>
<feBlend mode="normal" in2="effect1_dropShadow_1_1249" result="effect2_dropShadow_1_1249"/>
<feColorMatrix in="SourceAlpha" type="matrix" values="0 0 0 0 0 0 0 0 0 0 0 0 0 0 0 0 0 0 127 0" result="hardAlpha"/>
<feOffset dy="57"/>
<feGaussianBlur stdDeviation="17"/>
<feColorMatrix type="matrix" values="0 0 0 0 0.854902 0 0 0 0 0.839216 0 0 0 0 1 0 0 0 0.05 0"/>
<feBlend mode="normal" in2="effect2_dropShadow_1_1249" result="effect3_dropShadow_1_1249"/>
<feColorMatrix in="SourceAlpha" type="matrix" values="0 0 0 0 0 0 0 0 0 0 0 0 0 0 0 0 0 0 127 0" result="hardAlpha"/>
<feOffset dy="101"/>
<feGaussianBlur stdDeviation="20"/>
<feColorMatrix type="matrix" values="0 0 0 0 0.854902 0 0 0 0 0.839216 0 0 0 0 1 0 0 0 0.01 0"/>
<feBlend mode="normal" in2="effect3_dropShadow_1_1249" result="effect4_dropShadow_1_1249"/>
<feBlend mode="normal" in="SourceGraphic" in2="effect4_dropShadow_1_1249" result="shape"/>
</filter>
</defs>
</svg>
