<svg width="120" height="120" viewBox="0 0 120 120" fill="none" xmlns="http://www.w3.org/2000/svg">
<circle cx="60" cy="60" r="60" fill="#D64747" fill-opacity="0.1"/>
<path d="M76.2154 77.4122H43.782C32.1737 77.4122 28.6445 73.883 28.6445 62.2747V43.783C28.6445 32.1747 32.1737 28.6455 43.782 28.6455H76.1862C87.7945 28.6455 91.3237 32.1747 91.3237 43.783V62.2455C91.3529 73.883 87.8237 77.4122 76.2154 77.4122ZM43.782 33.0205C34.6237 33.0205 33.0195 34.6247 33.0195 43.783V62.2455C33.0195 71.4038 34.6237 73.008 43.782 73.008H76.1862C85.3445 73.008 86.9487 71.4038 86.9487 62.2455V43.783C86.9487 34.6247 85.3445 33.0205 76.1862 33.0205H43.782Z" fill="#4747D6"/>
<path d="M60 91.3538C58.8042 91.3538 57.8125 90.3621 57.8125 89.1663V75.2246C57.8125 74.0288 58.8042 73.0371 60 73.0371C61.1958 73.0371 62.1875 74.0288 62.1875 75.2246V89.1663C62.1875 90.3621 61.1958 91.3538 60 91.3538Z" fill="#4747D6"/>
<path d="M89.1654 65.1045H30.832C29.6362 65.1045 28.6445 64.1128 28.6445 62.917C28.6445 61.7212 29.6362 60.7295 30.832 60.7295H89.1654C90.3612 60.7295 91.3529 61.7212 91.3529 62.917C91.3529 64.1128 90.3612 65.1045 89.1654 65.1045Z" fill="#4747D6"/>
<path d="M73.125 91.3545H46.875C45.6792 91.3545 44.6875 90.3628 44.6875 89.167C44.6875 87.9712 45.6792 86.9795 46.875 86.9795H73.125C74.3208 86.9795 75.3125 87.9712 75.3125 89.167C75.3125 90.3628 74.3208 91.3545 73.125 91.3545Z" fill="#4747D6"/>
</svg>
