<svg width="30" height="30" viewBox="0 0 30 30" fill="none" xmlns="http://www.w3.org/2000/svg">
<path fill-rule="evenodd" clip-rule="evenodd" d="M13.379 16.1255L15.5015 17.5767L17.5475 16.1652L22.1337 20.69C22.0127 20.7295 21.8848 20.7495 21.7498 20.75H9.25025C9.08525 20.75 8.92775 20.7177 8.783 20.66L13.379 16.1255ZM23 12.407V19.4998C23 19.685 22.9595 19.8605 22.8875 20.0187L18.392 15.5833L23 12.407ZM8 12.4467L12.5315 15.5457L8.0795 19.9393C8.02735 19.7986 8.00043 19.6498 8 19.4998V12.4467ZM21.7498 9.5C22.4397 9.5 23 10.0595 23 10.7502V11.1897L15.4985 16.361L8 11.2325V10.7502C8 10.0602 8.5595 9.5 9.25025 9.5H21.7498Z" fill="#5A5A5A"/>
<circle cx="15" cy="15" r="14.5" stroke="#5A5A5A"/>
</svg>
