<svg width="20" height="27" viewBox="0 0 20 27" fill="none" xmlns="http://www.w3.org/2000/svg">
<path d="M1.90735e-06 25.3774V1.33451C0.000764847 1.09109 0.0679016 0.852482 0.194185 0.644379C0.320469 0.436274 0.501116 0.26655 0.716682 0.153477C0.932251 0.0404034 1.17458 -0.0117378 1.41757 0.00266457C1.66057 0.017067 1.89504 0.0974693 2.09574 0.235216L19.46 12.2567C20.18 12.7549 20.18 13.9543 19.46 14.4539L2.09574 26.4753C1.89546 26.6145 1.66087 26.6961 1.41747 26.7113C1.17407 26.7265 0.931158 26.6747 0.715134 26.5615C0.499109 26.4483 0.318232 26.2781 0.192152 26.0693C0.0660744 25.8606 -0.00038147 25.6213 1.90735e-06 25.3774Z" fill="#4747D6"/>
</svg>
