<svg width="52" height="52" viewBox="0 0 52 52" fill="none" xmlns="http://www.w3.org/2000/svg">
<rect width="52" height="52" rx="26" fill="#F6F1FF"/>
<g clip-path="url(#clip0_6192_2698)">
<path d="M32 12C32.5304 12 33.0391 12.2107 33.4142 12.5858C33.7893 12.9609 34 13.4696 34 14V38C34 38.5304 33.7893 39.0391 33.4142 39.4142C33.0391 39.7893 32.5304 40 32 40H20C19.4696 40 18.9609 39.7893 18.5858 39.4142C18.2107 39.0391 18 38.5304 18 38V14C18 13.4696 18.2107 12.9609 18.5858 12.5858C18.9609 12.2107 19.4696 12 20 12H32ZM20 10C18.9391 10 17.9217 10.4214 17.1716 11.1716C16.4214 11.9217 16 12.9391 16 14V38C16 39.0609 16.4214 40.0783 17.1716 40.8284C17.9217 41.5786 18.9391 42 20 42H32C33.0609 42 34.0783 41.5786 34.8284 40.8284C35.5786 40.0783 36 39.0609 36 38V14C36 12.9391 35.5786 11.9217 34.8284 11.1716C34.0783 10.4214 33.0609 10 32 10H20Z" fill="#4747D6"/>
<path d="M26 38C26.5304 38 27.0391 37.7893 27.4142 37.4142C27.7893 37.0391 28 36.5304 28 36C28 35.4696 27.7893 34.9609 27.4142 34.5858C27.0391 34.2107 26.5304 34 26 34C25.4696 34 24.9609 34.2107 24.5858 34.5858C24.2107 34.9609 24 35.4696 24 36C24 36.5304 24.2107 37.0391 24.5858 37.4142C24.9609 37.7893 25.4696 38 26 38Z" fill="#4747D6"/>
</g>
<defs>
<clipPath id="clip0_6192_2698">
<rect width="32" height="32" fill="white" transform="translate(10 10)"/>
</clipPath>
</defs>
</svg>
