<svg width="15" height="20" viewBox="0 0 15 20" fill="none" xmlns="http://www.w3.org/2000/svg">
<path d="M15.0006 18.9994L15.0006 0.999426C15 0.817184 14.9498 0.63855 14.8552 0.48275C14.7607 0.32695 14.6254 0.199884 14.464 0.115231C14.3027 0.0305767 14.1212 -0.00845909 13.9393 0.00232315C13.7574 0.0131054 13.5819 0.0732994 13.4316 0.176426L0.431594 9.17643C-0.107406 9.54943 -0.107406 10.4474 0.431594 10.8214L13.4316 19.8214C13.5815 19.9256 13.7572 19.9867 13.9394 19.9981C14.1216 20.0094 14.3035 19.9706 14.4652 19.8859C14.6269 19.8012 14.7623 19.6738 14.8567 19.5175C14.9511 19.3612 15.0009 19.182 15.0006 18.9994Z" fill="#4747D6"/>
</svg>
