<svg width="80" height="80" viewBox="0 0 80 80" fill="none" xmlns="http://www.w3.org/2000/svg">
<circle cx="40" cy="40" r="40" fill="#EDFBF9"/>
<path d="M58.75 29.5833C58.75 34.1875 50.3542 37.9167 40 37.9167C29.6458 37.9167 21.25 34.1875 21.25 29.5833M58.75 29.5833C58.75 24.9792 50.3542 21.25 40 21.25C29.6458 21.25 21.25 24.9792 21.25 29.5833M58.75 29.5833V40M21.25 29.5833V40M58.75 40C58.75 44.6042 50.3542 48.3333 40 48.3333C29.6458 48.3333 21.25 44.6042 21.25 40M58.75 40V50.4167C58.75 55.0208 50.3542 58.75 40 58.75C29.6458 58.75 21.25 55.0208 21.25 50.4167V40" stroke="#167164" stroke-width="2" stroke-linecap="round" stroke-linejoin="round"/>
</svg>
