<svg width="80" height="80" viewBox="0 0 80 80" fill="none" xmlns="http://www.w3.org/2000/svg">
<circle cx="40" cy="40" r="40" fill="#FBEDED"/>
<path d="M51.5824 52.4375H28.4158C20.1241 52.4375 17.6033 49.9166 17.6033 41.625V28.4166C17.6033 20.125 20.1241 17.6041 28.4158 17.6041H51.5616C59.8533 17.6041 62.3741 20.125 62.3741 28.4166V41.6041C62.3949 49.9166 59.8741 52.4375 51.5824 52.4375ZM28.4158 20.7291C21.8741 20.7291 20.7283 21.875 20.7283 28.4166V41.6041C20.7283 48.1458 21.8741 49.2916 28.4158 49.2916H51.5616C58.1033 49.2916 59.2491 48.1458 59.2491 41.6041V28.4166C59.2491 21.875 58.1033 20.7291 51.5616 20.7291H28.4158Z" fill="#4747D6"/>
<path d="M40 62.3958C39.1458 62.3958 38.4375 61.6875 38.4375 60.8333V50.875C38.4375 50.0208 39.1458 49.3125 40 49.3125C40.8542 49.3125 41.5625 50.0208 41.5625 50.875V60.8333C41.5625 61.6875 40.8542 62.3958 40 62.3958Z" fill="#4747D6"/>
<path d="M60.8324 43.6459H19.1658C18.3116 43.6459 17.6033 42.9375 17.6033 42.0834C17.6033 41.2292 18.3116 40.5209 19.1658 40.5209H60.8324C61.6866 40.5209 62.3949 41.2292 62.3949 42.0834C62.3949 42.9375 61.6866 43.6459 60.8324 43.6459Z" fill="#4747D6"/>
<path d="M49.375 62.3958H30.625C29.7708 62.3958 29.0625 61.6875 29.0625 60.8333C29.0625 59.9791 29.7708 59.2708 30.625 59.2708H49.375C50.2292 59.2708 50.9375 59.9791 50.9375 60.8333C50.9375 61.6875 50.2292 62.3958 49.375 62.3958Z" fill="#4747D6"/>
</svg>
