<svg width="120" height="120" viewBox="0 0 120 120" fill="none" xmlns="http://www.w3.org/2000/svg">
<circle cx="60" cy="60" r="60" fill="#FFFBD6"/>
<path d="M60.0013 91.3835C56.8221 91.3835 53.6721 90.4502 51.193 88.6127L38.6513 79.2502C35.3263 76.771 32.7305 71.5794 32.7305 67.4669V45.7669C32.7305 41.2752 36.0263 36.4919 40.2555 34.9169L54.8096 29.4627C57.6971 28.3835 62.2471 28.3835 65.1346 29.4627L79.6888 34.9169C83.918 36.4919 87.2138 41.2752 87.2138 45.7669V67.4377C87.2138 71.5794 84.618 76.7419 81.293 79.221L68.7513 88.5835C66.3305 90.4502 63.1805 91.3835 60.0013 91.3835ZM56.3555 33.5752L41.8013 39.0294C39.3221 39.9627 37.1346 43.1127 37.1346 45.796V67.4669C37.1346 70.2377 39.0888 74.1169 41.2763 75.7502L53.818 85.1127C57.1721 87.621 62.8305 87.621 66.2138 85.1127L78.7555 75.7502C80.9721 74.0877 82.8971 70.2377 82.8971 67.4669V45.7669C82.8971 43.1127 80.7096 39.9627 78.2305 39.0002L63.6763 33.546C61.693 32.846 58.3096 32.846 56.3555 33.5752Z" fill="#4747D6"/>
<path d="M56.0909 66.5041C55.5367 66.5041 54.9826 66.2999 54.5451 65.8624L49.8492 61.1666C49.0034 60.3208 49.0034 58.9208 49.8492 58.0749C50.6951 57.2291 52.0951 57.2291 52.9409 58.0749L56.0909 61.2249L67.0867 50.2291C67.9326 49.3833 69.3326 49.3833 70.1784 50.2291C71.0242 51.0749 71.0242 52.4749 70.1784 53.3208L57.6367 65.8624C57.1992 66.2999 56.6451 66.5041 56.0909 66.5041Z" fill="#4747D6"/>
</svg>
