<svg width="348" height="201" viewBox="0 0 348 201" fill="none" xmlns="http://www.w3.org/2000/svg">
<g filter="url(#filter0_dddd_1_1254)">
<rect x="40" y="8" width="288" height="52" rx="26" fill="white"/>
<rect x="45" y="13" width="42" height="42" rx="21" fill="#EAFFE0"/>
<g clip-path="url(#clip0_1_1254)">
<path d="M65.9979 48.3466C64.5446 48.3466 63.1046 47.9199 61.9712 47.0799L56.2379 42.7999C54.7179 41.6666 53.5312 39.2933 53.5312 37.4133V27.4933C53.5312 25.4399 55.0379 23.2533 56.9713 22.5333L63.6246 20.0399C64.9446 19.5466 67.0246 19.5466 68.3446 20.0399L74.9979 22.5333C76.9313 23.2533 78.4379 25.4399 78.4379 27.4933V37.3999C78.4379 39.2933 77.2512 41.6533 75.7313 42.7866L69.9979 47.0666C68.8913 47.9199 67.4513 48.3466 65.9979 48.3466ZM64.3313 21.9199L57.6779 24.4133C56.5446 24.8399 55.5446 26.2799 55.5446 27.5066V37.4133C55.5446 38.6799 56.4379 40.4533 57.4379 41.1999L63.1713 45.4799C64.7046 46.6266 67.2913 46.6266 68.8379 45.4799L74.5713 41.1999C75.5846 40.4399 76.4646 38.6799 76.4646 37.4133V27.4933C76.4646 26.2799 75.4646 24.8399 74.3313 24.3999L67.6779 21.9066C66.7713 21.5866 65.2246 21.5866 64.3313 21.9199Z" fill="#3FC500"/>
<path d="M64.2166 36.9732C63.9632 36.9732 63.7099 36.8798 63.5099 36.6798L61.3632 34.5332C60.9766 34.1465 60.9766 33.5065 61.3632 33.1198C61.7499 32.7332 62.3899 32.7332 62.7766 33.1198L64.2166 34.5598L69.2432 29.5332C69.6299 29.1465 70.2699 29.1465 70.6566 29.5332C71.0432 29.9198 71.0432 30.5598 70.6566 30.9465L64.9232 36.6798C64.7232 36.8798 64.4699 36.9732 64.2166 36.9732Z" fill="#3FC500"/>
</g>
<path d="M101.944 40.128C101.091 40.128 100.275 40 99.496 39.744C98.7173 39.4773 98.104 39.136 97.656 38.72L98.248 37.472C98.6747 37.8453 99.2187 38.1547 99.88 38.4C100.541 38.6453 101.229 38.768 101.944 38.768C102.595 38.768 103.123 38.6933 103.528 38.544C103.933 38.3947 104.232 38.192 104.424 37.936C104.616 37.6693 104.712 37.3707 104.712 37.04C104.712 36.656 104.584 36.3467 104.328 36.112C104.083 35.8773 103.757 35.6907 103.352 35.552C102.957 35.4027 102.52 35.2747 102.04 35.168C101.56 35.0613 101.075 34.9387 100.584 34.8C100.104 34.6507 99.6613 34.464 99.256 34.24C98.8613 34.016 98.5413 33.7173 98.296 33.344C98.0507 32.96 97.928 32.4693 97.928 31.872C97.928 31.296 98.0773 30.768 98.376 30.288C98.6853 29.7973 99.1547 29.408 99.784 29.12C100.424 28.8213 101.235 28.672 102.216 28.672C102.867 28.672 103.512 28.7573 104.152 28.928C104.792 29.0987 105.347 29.344 105.816 29.664L105.288 30.944C104.808 30.624 104.301 30.3947 103.768 30.256C103.235 30.1067 102.717 30.032 102.216 30.032C101.587 30.032 101.069 30.112 100.664 30.272C100.259 30.432 99.96 30.6453 99.768 30.912C99.5867 31.1787 99.496 31.4773 99.496 31.808C99.496 32.2027 99.6187 32.5173 99.864 32.752C100.12 32.9867 100.445 33.1733 100.84 33.312C101.245 33.4507 101.688 33.5787 102.168 33.696C102.648 33.8027 103.128 33.9253 103.608 34.064C104.099 34.2027 104.541 34.384 104.936 34.608C105.341 34.832 105.667 35.1307 105.912 35.504C106.157 35.8773 106.28 36.3573 106.28 36.944C106.28 37.5093 106.125 38.0373 105.816 38.528C105.507 39.008 105.027 39.3973 104.376 39.696C103.736 39.984 102.925 40.128 101.944 40.128ZM112.17 40.096C111.263 40.096 110.463 39.9093 109.77 39.536C109.087 39.1627 108.554 38.6507 108.17 38C107.796 37.3493 107.61 36.6027 107.61 35.76C107.61 34.9173 107.791 34.1707 108.154 33.52C108.527 32.8693 109.034 32.3627 109.674 32C110.324 31.6267 111.055 31.44 111.866 31.44C112.687 31.44 113.412 31.6213 114.042 31.984C114.671 32.3467 115.162 32.8587 115.514 33.52C115.876 34.1707 116.058 34.9333 116.058 35.808C116.058 35.872 116.052 35.9467 116.042 36.032C116.042 36.1173 116.036 36.1973 116.026 36.272H108.81V35.168H115.226L114.602 35.552C114.612 35.008 114.5 34.5227 114.266 34.096C114.031 33.6693 113.706 33.3387 113.29 33.104C112.884 32.8587 112.41 32.736 111.866 32.736C111.332 32.736 110.858 32.8587 110.442 33.104C110.026 33.3387 109.7 33.6747 109.466 34.112C109.231 34.5387 109.114 35.0293 109.114 35.584V35.84C109.114 36.4053 109.242 36.912 109.498 37.36C109.764 37.7973 110.132 38.1387 110.602 38.384C111.071 38.6293 111.61 38.752 112.218 38.752C112.719 38.752 113.172 38.6667 113.578 38.496C113.994 38.3253 114.356 38.0693 114.666 37.728L115.514 38.72C115.13 39.168 114.65 39.5093 114.074 39.744C113.508 39.9787 112.874 40.096 112.17 40.096ZM121.886 40.096C121.022 40.096 120.249 39.9093 119.566 39.536C118.894 39.1627 118.366 38.6507 117.982 38C117.598 37.3493 117.406 36.6027 117.406 35.76C117.406 34.9173 117.598 34.1707 117.982 33.52C118.366 32.8693 118.894 32.3627 119.566 32C120.249 31.6267 121.022 31.44 121.886 31.44C122.654 31.44 123.337 31.5947 123.934 31.904C124.542 32.2027 125.012 32.6507 125.342 33.248L124.174 34C123.897 33.584 123.556 33.28 123.15 33.088C122.756 32.8853 122.329 32.784 121.87 32.784C121.316 32.784 120.82 32.9067 120.382 33.152C119.945 33.3973 119.598 33.744 119.342 34.192C119.086 34.6293 118.958 35.152 118.958 35.76C118.958 36.368 119.086 36.896 119.342 37.344C119.598 37.792 119.945 38.1387 120.382 38.384C120.82 38.6293 121.316 38.752 121.87 38.752C122.329 38.752 122.756 38.656 123.15 38.464C123.556 38.2613 123.897 37.952 124.174 37.536L125.342 38.272C125.012 38.8587 124.542 39.312 123.934 39.632C123.337 39.9413 122.654 40.096 121.886 40.096ZM130.899 40.096C130.174 40.096 129.534 39.9627 128.979 39.696C128.435 39.4293 128.008 39.024 127.699 38.48C127.4 37.9253 127.251 37.232 127.251 36.4V31.52H128.787V36.224C128.787 37.056 128.984 37.68 129.379 38.096C129.784 38.512 130.35 38.72 131.075 38.72C131.608 38.72 132.072 38.6133 132.467 38.4C132.862 38.176 133.166 37.856 133.379 37.44C133.592 37.0133 133.699 36.5013 133.699 35.904V31.52H135.235V40H133.779V37.712L134.019 38.32C133.742 38.8853 133.326 39.3227 132.771 39.632C132.216 39.9413 131.592 40.096 130.899 40.096ZM138.159 40V31.52H139.631V33.824L139.487 33.248C139.722 32.6613 140.116 32.2133 140.671 31.904C141.226 31.5947 141.908 31.44 142.719 31.44V32.928C142.655 32.9173 142.591 32.912 142.527 32.912C142.474 32.912 142.42 32.912 142.367 32.912C141.546 32.912 140.895 33.1573 140.415 33.648C139.935 34.1387 139.695 34.848 139.695 35.776V40H138.159ZM148.31 40.096C147.403 40.096 146.603 39.9093 145.91 39.536C145.227 39.1627 144.694 38.6507 144.31 38C143.937 37.3493 143.75 36.6027 143.75 35.76C143.75 34.9173 143.931 34.1707 144.294 33.52C144.667 32.8693 145.174 32.3627 145.814 32C146.465 31.6267 147.195 31.44 148.006 31.44C148.827 31.44 149.553 31.6213 150.182 31.984C150.811 32.3467 151.302 32.8587 151.654 33.52C152.017 34.1707 152.198 34.9333 152.198 35.808C152.198 35.872 152.193 35.9467 152.182 36.032C152.182 36.1173 152.177 36.1973 152.166 36.272H144.95V35.168H151.366L150.742 35.552C150.753 35.008 150.641 34.5227 150.406 34.096C150.171 33.6693 149.846 33.3387 149.43 33.104C149.025 32.8587 148.55 32.736 148.006 32.736C147.473 32.736 146.998 32.8587 146.582 33.104C146.166 33.3387 145.841 33.6747 145.606 34.112C145.371 34.5387 145.254 35.0293 145.254 35.584V35.84C145.254 36.4053 145.382 36.912 145.638 37.36C145.905 37.7973 146.273 38.1387 146.742 38.384C147.211 38.6293 147.75 38.752 148.358 38.752C148.859 38.752 149.313 38.6667 149.718 38.496C150.134 38.3253 150.497 38.0693 150.806 37.728L151.654 38.72C151.27 39.168 150.79 39.5093 150.214 39.744C149.649 39.9787 149.014 40.096 148.31 40.096ZM162.324 40.096C161.46 40.096 160.687 39.9093 160.004 39.536C159.332 39.1627 158.804 38.6507 158.42 38C158.036 37.3493 157.844 36.6027 157.844 35.76C157.844 34.9173 158.036 34.1707 158.42 33.52C158.804 32.8693 159.332 32.3627 160.004 32C160.687 31.6267 161.46 31.44 162.324 31.44C163.092 31.44 163.775 31.5947 164.372 31.904C164.98 32.2027 165.449 32.6507 165.78 33.248L164.612 34C164.335 33.584 163.993 33.28 163.588 33.088C163.193 32.8853 162.767 32.784 162.308 32.784C161.753 32.784 161.257 32.9067 160.82 33.152C160.383 33.3973 160.036 33.744 159.78 34.192C159.524 34.6293 159.396 35.152 159.396 35.76C159.396 36.368 159.524 36.896 159.78 37.344C160.036 37.792 160.383 38.1387 160.82 38.384C161.257 38.6293 161.753 38.752 162.308 38.752C162.767 38.752 163.193 38.656 163.588 38.464C163.993 38.2613 164.335 37.952 164.612 37.536L165.78 38.272C165.449 38.8587 164.98 39.312 164.372 39.632C163.775 39.9413 163.092 40.096 162.324 40.096ZM173.033 40V38.208L172.953 37.872V34.816C172.953 34.1653 172.761 33.664 172.377 33.312C172.003 32.9493 171.438 32.768 170.681 32.768C170.179 32.768 169.689 32.8533 169.209 33.024C168.729 33.184 168.323 33.4027 167.993 33.68L167.353 32.528C167.79 32.176 168.313 31.9093 168.921 31.728C169.539 31.536 170.185 31.44 170.857 31.44C172.019 31.44 172.915 31.7227 173.545 32.288C174.174 32.8533 174.489 33.7173 174.489 34.88V40H173.033ZM170.249 40.096C169.619 40.096 169.065 39.9893 168.585 39.776C168.115 39.5627 167.753 39.2693 167.497 38.896C167.241 38.512 167.113 38.08 167.113 37.6C167.113 37.1413 167.219 36.7253 167.433 36.352C167.657 35.9787 168.014 35.68 168.505 35.456C169.006 35.232 169.678 35.12 170.521 35.12H173.209V36.224H170.585C169.817 36.224 169.299 36.352 169.033 36.608C168.766 36.864 168.633 37.1733 168.633 37.536C168.633 37.952 168.798 38.288 169.129 38.544C169.459 38.7893 169.918 38.912 170.505 38.912C171.081 38.912 171.582 38.784 172.009 38.528C172.446 38.272 172.761 37.8987 172.953 37.408L173.257 38.464C173.054 38.9653 172.697 39.3653 172.185 39.664C171.673 39.952 171.027 40.096 170.249 40.096ZM179.763 40.096C179.059 40.096 178.387 40 177.747 39.808C177.118 39.616 176.622 39.3813 176.259 39.104L176.899 37.888C177.262 38.1333 177.71 38.3413 178.243 38.512C178.776 38.6827 179.32 38.768 179.875 38.768C180.59 38.768 181.102 38.6667 181.411 38.464C181.731 38.2613 181.891 37.9787 181.891 37.616C181.891 37.3493 181.795 37.1413 181.603 36.992C181.411 36.8427 181.155 36.7307 180.835 36.656C180.526 36.5813 180.179 36.5173 179.795 36.464C179.411 36.4 179.027 36.3253 178.643 36.24C178.259 36.144 177.907 36.016 177.587 35.856C177.267 35.6853 177.011 35.456 176.819 35.168C176.627 34.8693 176.531 34.4747 176.531 33.984C176.531 33.472 176.675 33.024 176.963 32.64C177.251 32.256 177.656 31.9627 178.179 31.76C178.712 31.5467 179.342 31.44 180.067 31.44C180.622 31.44 181.182 31.5093 181.747 31.648C182.323 31.776 182.792 31.9627 183.155 32.208L182.499 33.424C182.115 33.168 181.715 32.992 181.299 32.896C180.883 32.8 180.467 32.752 180.051 32.752C179.379 32.752 178.878 32.864 178.547 33.088C178.216 33.3013 178.051 33.5787 178.051 33.92C178.051 34.208 178.147 34.432 178.339 34.592C178.542 34.7413 178.798 34.8587 179.107 34.944C179.427 35.0293 179.779 35.104 180.163 35.168C180.547 35.2213 180.931 35.296 181.315 35.392C181.699 35.4773 182.046 35.6 182.355 35.76C182.675 35.92 182.931 36.144 183.123 36.432C183.326 36.72 183.427 37.104 183.427 37.584C183.427 38.096 183.278 38.5387 182.979 38.912C182.68 39.2853 182.259 39.5787 181.715 39.792C181.171 39.9947 180.52 40.096 179.763 40.096ZM189.123 40.096C188.216 40.096 187.416 39.9093 186.723 39.536C186.04 39.1627 185.507 38.6507 185.123 38C184.749 37.3493 184.563 36.6027 184.563 35.76C184.563 34.9173 184.744 34.1707 185.107 33.52C185.48 32.8693 185.987 32.3627 186.627 32C187.277 31.6267 188.008 31.44 188.819 31.44C189.64 31.44 190.365 31.6213 190.995 31.984C191.624 32.3467 192.115 32.8587 192.467 33.52C192.829 34.1707 193.011 34.9333 193.011 35.808C193.011 35.872 193.005 35.9467 192.995 36.032C192.995 36.1173 192.989 36.1973 192.979 36.272H185.763V35.168H192.179L191.555 35.552C191.565 35.008 191.453 34.5227 191.219 34.096C190.984 33.6693 190.659 33.3387 190.243 33.104C189.837 32.8587 189.363 32.736 188.819 32.736C188.285 32.736 187.811 32.8587 187.395 33.104C186.979 33.3387 186.653 33.6747 186.419 34.112C186.184 34.5387 186.067 35.0293 186.067 35.584V35.84C186.067 36.4053 186.195 36.912 186.451 37.36C186.717 37.7973 187.085 38.1387 187.555 38.384C188.024 38.6293 188.563 38.752 189.171 38.752C189.672 38.752 190.125 38.6667 190.531 38.496C190.947 38.3253 191.309 38.0693 191.619 37.728L192.467 38.72C192.083 39.168 191.603 39.5093 191.027 39.744C190.461 39.9787 189.827 40.096 189.123 40.096ZM210.048 31.44C210.731 31.44 211.334 31.5733 211.856 31.84C212.379 32.1067 212.784 32.512 213.072 33.056C213.371 33.6 213.52 34.288 213.52 35.12V40H211.984V35.296C211.984 34.4747 211.792 33.856 211.408 33.44C211.024 33.024 210.486 32.816 209.792 32.816C209.28 32.816 208.832 32.9227 208.448 33.136C208.064 33.3493 207.766 33.664 207.552 34.08C207.35 34.496 207.248 35.0133 207.248 35.632V40H205.712V35.296C205.712 34.4747 205.52 33.856 205.136 33.44C204.763 33.024 204.224 32.816 203.52 32.816C203.019 32.816 202.576 32.9227 202.192 33.136C201.808 33.3493 201.51 33.664 201.296 34.08C201.083 34.496 200.976 35.0133 200.976 35.632V40H199.44V31.52H200.912V33.776L200.672 33.2C200.939 32.6453 201.35 32.2133 201.904 31.904C202.459 31.5947 203.104 31.44 203.84 31.44C204.651 31.44 205.35 31.6427 205.936 32.048C206.523 32.4427 206.907 33.0453 207.088 33.856L206.464 33.6C206.72 32.9493 207.168 32.4267 207.808 32.032C208.448 31.6373 209.195 31.44 210.048 31.44ZM221.611 40V38.208L221.531 37.872V34.816C221.531 34.1653 221.339 33.664 220.955 33.312C220.581 32.9493 220.016 32.768 219.259 32.768C218.757 32.768 218.267 32.8533 217.787 33.024C217.307 33.184 216.901 33.4027 216.571 33.68L215.931 32.528C216.368 32.176 216.891 31.9093 217.499 31.728C218.117 31.536 218.763 31.44 219.435 31.44C220.597 31.44 221.493 31.7227 222.123 32.288C222.752 32.8533 223.067 33.7173 223.067 34.88V40H221.611ZM218.827 40.096C218.197 40.096 217.643 39.9893 217.163 39.776C216.693 39.5627 216.331 39.2693 216.075 38.896C215.819 38.512 215.691 38.08 215.691 37.6C215.691 37.1413 215.797 36.7253 216.011 36.352C216.235 35.9787 216.592 35.68 217.083 35.456C217.584 35.232 218.256 35.12 219.099 35.12H221.787V36.224H219.163C218.395 36.224 217.877 36.352 217.611 36.608C217.344 36.864 217.211 37.1733 217.211 37.536C217.211 37.952 217.376 38.288 217.707 38.544C218.037 38.7893 218.496 38.912 219.083 38.912C219.659 38.912 220.16 38.784 220.587 38.528C221.024 38.272 221.339 37.8987 221.531 37.408L221.835 38.464C221.632 38.9653 221.275 39.3653 220.763 39.664C220.251 39.952 219.605 40.096 218.827 40.096ZM230.437 31.44C231.13 31.44 231.738 31.5733 232.261 31.84C232.794 32.1067 233.21 32.512 233.509 33.056C233.808 33.6 233.957 34.288 233.957 35.12V40H232.421V35.296C232.421 34.4747 232.218 33.856 231.813 33.44C231.418 33.024 230.858 32.816 230.133 32.816C229.589 32.816 229.114 32.9227 228.709 33.136C228.304 33.3493 227.989 33.664 227.765 34.08C227.552 34.496 227.445 35.0133 227.445 35.632V40H225.909V31.52H227.381V33.808L227.141 33.2C227.418 32.6453 227.845 32.2133 228.421 31.904C228.997 31.5947 229.669 31.44 230.437 31.44ZM242.064 40V38.208L241.984 37.872V34.816C241.984 34.1653 241.792 33.664 241.408 33.312C241.034 32.9493 240.469 32.768 239.712 32.768C239.21 32.768 238.72 32.8533 238.24 33.024C237.76 33.184 237.354 33.4027 237.024 33.68L236.384 32.528C236.821 32.176 237.344 31.9093 237.952 31.728C238.57 31.536 239.216 31.44 239.888 31.44C241.05 31.44 241.946 31.7227 242.576 32.288C243.205 32.8533 243.52 33.7173 243.52 34.88V40H242.064ZM239.28 40.096C238.65 40.096 238.096 39.9893 237.616 39.776C237.146 39.5627 236.784 39.2693 236.528 38.896C236.272 38.512 236.144 38.08 236.144 37.6C236.144 37.1413 236.25 36.7253 236.464 36.352C236.688 35.9787 237.045 35.68 237.536 35.456C238.037 35.232 238.709 35.12 239.552 35.12H242.24V36.224H239.616C238.848 36.224 238.33 36.352 238.064 36.608C237.797 36.864 237.664 37.1733 237.664 37.536C237.664 37.952 237.829 38.288 238.16 38.544C238.49 38.7893 238.949 38.912 239.536 38.912C240.112 38.912 240.613 38.784 241.04 38.528C241.477 38.272 241.792 37.8987 241.984 37.408L242.288 38.464C242.085 38.9653 241.728 39.3653 241.216 39.664C240.704 39.952 240.058 40.096 239.28 40.096ZM250.074 43.2C249.296 43.2 248.538 43.088 247.802 42.864C247.077 42.6507 246.485 42.3413 246.026 41.936L246.762 40.752C247.157 41.0933 247.642 41.36 248.218 41.552C248.794 41.7547 249.397 41.856 250.026 41.856C251.029 41.856 251.765 41.6213 252.234 41.152C252.704 40.6827 252.938 39.968 252.938 39.008V37.216L253.098 35.536L253.018 33.84V31.52H254.474V38.848C254.474 40.3413 254.101 41.44 253.354 42.144C252.608 42.848 251.514 43.2 250.074 43.2ZM249.882 39.648C249.061 39.648 248.325 39.4773 247.674 39.136C247.034 38.784 246.522 38.2987 246.138 37.68C245.765 37.0613 245.578 36.3467 245.578 35.536C245.578 34.7147 245.765 34 246.138 33.392C246.522 32.7733 247.034 32.2933 247.674 31.952C248.325 31.6107 249.061 31.44 249.882 31.44C250.608 31.44 251.269 31.5893 251.866 31.888C252.464 32.176 252.938 32.624 253.29 33.232C253.653 33.84 253.834 34.608 253.834 35.536C253.834 36.4533 253.653 37.216 253.29 37.824C252.938 38.432 252.464 38.8907 251.866 39.2C251.269 39.4987 250.608 39.648 249.882 39.648ZM250.058 38.304C250.624 38.304 251.125 38.1867 251.562 37.952C252 37.7173 252.341 37.392 252.586 36.976C252.842 36.56 252.97 36.08 252.97 35.536C252.97 34.992 252.842 34.512 252.586 34.096C252.341 33.68 252 33.36 251.562 33.136C251.125 32.9013 250.624 32.784 250.058 32.784C249.493 32.784 248.986 32.9013 248.538 33.136C248.101 33.36 247.754 33.68 247.498 34.096C247.253 34.512 247.13 34.992 247.13 35.536C247.13 36.08 247.253 36.56 247.498 36.976C247.754 37.392 248.101 37.7173 248.538 37.952C248.986 38.1867 249.493 38.304 250.058 38.304ZM261.185 40.096C260.278 40.096 259.478 39.9093 258.785 39.536C258.102 39.1627 257.569 38.6507 257.185 38C256.812 37.3493 256.625 36.6027 256.625 35.76C256.625 34.9173 256.806 34.1707 257.169 33.52C257.542 32.8693 258.049 32.3627 258.689 32C259.34 31.6267 260.07 31.44 260.881 31.44C261.702 31.44 262.428 31.6213 263.057 31.984C263.686 32.3467 264.177 32.8587 264.529 33.52C264.892 34.1707 265.073 34.9333 265.073 35.808C265.073 35.872 265.068 35.9467 265.057 36.032C265.057 36.1173 265.052 36.1973 265.041 36.272H257.825V35.168H264.241L263.617 35.552C263.628 35.008 263.516 34.5227 263.281 34.096C263.046 33.6693 262.721 33.3387 262.305 33.104C261.9 32.8587 261.425 32.736 260.881 32.736C260.348 32.736 259.873 32.8587 259.457 33.104C259.041 33.3387 258.716 33.6747 258.481 34.112C258.246 34.5387 258.129 35.0293 258.129 35.584V35.84C258.129 36.4053 258.257 36.912 258.513 37.36C258.78 37.7973 259.148 38.1387 259.617 38.384C260.086 38.6293 260.625 38.752 261.233 38.752C261.734 38.752 262.188 38.6667 262.593 38.496C263.009 38.3253 263.372 38.0693 263.681 37.728L264.529 38.72C264.145 39.168 263.665 39.5093 263.089 39.744C262.524 39.9787 261.889 40.096 261.185 40.096ZM277.814 31.44C278.497 31.44 279.099 31.5733 279.622 31.84C280.145 32.1067 280.55 32.512 280.838 33.056C281.137 33.6 281.286 34.288 281.286 35.12V40H279.75V35.296C279.75 34.4747 279.558 33.856 279.174 33.44C278.79 33.024 278.251 32.816 277.558 32.816C277.046 32.816 276.598 32.9227 276.214 33.136C275.83 33.3493 275.531 33.664 275.318 34.08C275.115 34.496 275.014 35.0133 275.014 35.632V40H273.478V35.296C273.478 34.4747 273.286 33.856 272.902 33.44C272.529 33.024 271.99 32.816 271.286 32.816C270.785 32.816 270.342 32.9227 269.958 33.136C269.574 33.3493 269.275 33.664 269.062 34.08C268.849 34.496 268.742 35.0133 268.742 35.632V40H267.206V31.52H268.678V33.776L268.438 33.2C268.705 32.6453 269.115 32.2133 269.67 31.904C270.225 31.5947 270.87 31.44 271.606 31.44C272.417 31.44 273.115 31.6427 273.702 32.048C274.289 32.4427 274.673 33.0453 274.854 33.856L274.23 33.6C274.486 32.9493 274.934 32.4267 275.574 32.032C276.214 31.6373 276.961 31.44 277.814 31.44ZM287.888 40.096C286.982 40.096 286.182 39.9093 285.488 39.536C284.806 39.1627 284.272 38.6507 283.888 38C283.515 37.3493 283.328 36.6027 283.328 35.76C283.328 34.9173 283.51 34.1707 283.872 33.52C284.246 32.8693 284.752 32.3627 285.392 32C286.043 31.6267 286.774 31.44 287.584 31.44C288.406 31.44 289.131 31.6213 289.76 31.984C290.39 32.3467 290.88 32.8587 291.232 33.52C291.595 34.1707 291.776 34.9333 291.776 35.808C291.776 35.872 291.771 35.9467 291.76 36.032C291.76 36.1173 291.755 36.1973 291.744 36.272H284.528V35.168H290.944L290.32 35.552C290.331 35.008 290.219 34.5227 289.984 34.096C289.75 33.6693 289.424 33.3387 289.008 33.104C288.603 32.8587 288.128 32.736 287.584 32.736C287.051 32.736 286.576 32.8587 286.16 33.104C285.744 33.3387 285.419 33.6747 285.184 34.112C284.95 34.5387 284.832 35.0293 284.832 35.584V35.84C284.832 36.4053 284.96 36.912 285.216 37.36C285.483 37.7973 285.851 38.1387 286.32 38.384C286.79 38.6293 287.328 38.752 287.936 38.752C288.438 38.752 288.891 38.6667 289.296 38.496C289.712 38.3253 290.075 38.0693 290.384 37.728L291.232 38.72C290.848 39.168 290.368 39.5093 289.792 39.744C289.227 39.9787 288.592 40.096 287.888 40.096ZM298.437 31.44C299.13 31.44 299.738 31.5733 300.261 31.84C300.794 32.1067 301.21 32.512 301.509 33.056C301.808 33.6 301.957 34.288 301.957 35.12V40H300.421V35.296C300.421 34.4747 300.218 33.856 299.813 33.44C299.418 33.024 298.858 32.816 298.133 32.816C297.589 32.816 297.114 32.9227 296.709 33.136C296.304 33.3493 295.989 33.664 295.765 34.08C295.552 34.496 295.445 35.0133 295.445 35.632V40H293.909V31.52H295.381V33.808L295.141 33.2C295.418 32.6453 295.845 32.2133 296.421 31.904C296.997 31.5947 297.669 31.44 298.437 31.44ZM307.712 40.096C306.858 40.096 306.197 39.8667 305.728 39.408C305.258 38.9493 305.024 38.2933 305.024 37.44V29.664H306.56V37.376C306.56 37.8347 306.672 38.1867 306.896 38.432C307.13 38.6773 307.461 38.8 307.888 38.8C308.368 38.8 308.768 38.6667 309.088 38.4L309.568 39.504C309.333 39.7067 309.05 39.856 308.72 39.952C308.4 40.048 308.064 40.096 307.712 40.096ZM303.584 32.784V31.52H308.992V32.784H303.584Z" fill="#555555"/>
</g>
<defs>
<filter id="filter0_dddd_1_1254" x="0" y="0" width="368" height="201" filterUnits="userSpaceOnUse" color-interpolation-filters="sRGB">
<feFlood flood-opacity="0" result="BackgroundImageFix"/>
<feColorMatrix in="SourceAlpha" type="matrix" values="0 0 0 0 0 0 0 0 0 0 0 0 0 0 0 0 0 0 127 0" result="hardAlpha"/>
<feOffset dy="6"/>
<feGaussianBlur stdDeviation="7"/>
<feColorMatrix type="matrix" values="0 0 0 0 0.854902 0 0 0 0 0.839216 0 0 0 0 1 0 0 0 0.1 0"/>
<feBlend mode="normal" in2="BackgroundImageFix" result="effect1_dropShadow_1_1254"/>
<feColorMatrix in="SourceAlpha" type="matrix" values="0 0 0 0 0 0 0 0 0 0 0 0 0 0 0 0 0 0 127 0" result="hardAlpha"/>
<feOffset dy="25"/>
<feGaussianBlur stdDeviation="12.5"/>
<feColorMatrix type="matrix" values="0 0 0 0 0.854902 0 0 0 0 0.839216 0 0 0 0 1 0 0 0 0.09 0"/>
<feBlend mode="normal" in2="effect1_dropShadow_1_1254" result="effect2_dropShadow_1_1254"/>
<feColorMatrix in="SourceAlpha" type="matrix" values="0 0 0 0 0 0 0 0 0 0 0 0 0 0 0 0 0 0 127 0" result="hardAlpha"/>
<feOffset dy="57"/>
<feGaussianBlur stdDeviation="17"/>
<feColorMatrix type="matrix" values="0 0 0 0 0.854902 0 0 0 0 0.839216 0 0 0 0 1 0 0 0 0.05 0"/>
<feBlend mode="normal" in2="effect2_dropShadow_1_1254" result="effect3_dropShadow_1_1254"/>
<feColorMatrix in="SourceAlpha" type="matrix" values="0 0 0 0 0 0 0 0 0 0 0 0 0 0 0 0 0 0 127 0" result="hardAlpha"/>
<feOffset dy="101"/>
<feGaussianBlur stdDeviation="20"/>
<feColorMatrix type="matrix" values="0 0 0 0 0.854902 0 0 0 0 0.839216 0 0 0 0 1 0 0 0 0.01 0"/>
<feBlend mode="normal" in2="effect3_dropShadow_1_1254" result="effect4_dropShadow_1_1254"/>
<feBlend mode="normal" in="SourceGraphic" in2="effect4_dropShadow_1_1254" result="shape"/>
</filter>
<clipPath id="clip0_1_1254">
<rect width="32" height="32" fill="white" transform="translate(50 18)"/>
</clipPath>
</defs>
</svg>
