<svg width="31" height="30" viewBox="0 0 31 30" fill="none" xmlns="http://www.w3.org/2000/svg">
<path d="M12.7275 21.3219C13.959 21.3631 15.1862 21.1571 16.3366 20.7159C17.487 20.2747 18.5374 19.6075 19.4255 18.7535C20.3137 17.8995 21.0216 16.8761 21.5075 15.7438C21.9934 14.6116 22.2475 13.3934 22.2546 12.1613C22.8189 11.4629 23.2379 10.6588 23.4871 9.7962C23.5057 9.72805 23.5042 9.65597 23.4828 9.58865C23.4613 9.52133 23.4209 9.46164 23.3664 9.41676C23.3118 9.37188 23.2454 9.34373 23.1752 9.3357C23.1051 9.32767 23.034 9.34009 22.9708 9.37149C22.6755 9.5136 22.3431 9.55951 22.0204 9.50274C21.6977 9.44596 21.4009 9.28937 21.1719 9.05503C20.8796 8.73489 20.526 8.47669 20.132 8.29572C19.738 8.11475 19.3118 8.0147 18.8784 8.0015C18.4451 7.9883 18.0135 8.06221 17.6092 8.21886C17.205 8.37551 16.8363 8.61171 16.525 8.91345C16.0988 9.32623 15.7866 9.84225 15.6188 10.4114C15.451 10.9805 15.4332 11.5833 15.5673 12.1613C12.7775 12.3279 10.8621 11.0037 9.32977 9.18827C9.28373 9.13614 9.22352 9.09854 9.15647 9.08007C9.08942 9.06159 9.01844 9.06304 8.9522 9.08424C8.88597 9.10544 8.82733 9.14546 8.78347 9.19943C8.7396 9.2534 8.7124 9.31897 8.70518 9.38814C8.41326 11.0074 8.62384 12.6773 9.30863 14.1734C9.99342 15.6695 11.1196 16.9202 12.536 17.7576C11.5863 18.8467 10.2527 19.527 8.81344 19.6564C8.73634 19.6691 8.66516 19.7057 8.60987 19.761C8.55458 19.8162 8.51795 19.8874 8.5051 19.9644C8.49225 20.0415 8.50383 20.1207 8.53821 20.1909C8.57259 20.2611 8.62806 20.3188 8.69685 20.3559C9.94896 20.9816 11.3278 21.3121 12.7275 21.3219Z" fill="#E3E3F8"/>
<circle cx="15.5" cy="15" r="14.5" stroke="#E3E3F8"/>
</svg>
