<svg width="30" height="30" viewBox="0 0 30 30" fill="none" xmlns="http://www.w3.org/2000/svg">
<path d="M12.2275 21.3219C13.459 21.3631 14.6862 21.1571 15.8366 20.7159C16.987 20.2747 18.0374 19.6075 18.9255 18.7535C19.8137 17.8995 20.5216 16.8761 21.0075 15.7438C21.4934 14.6116 21.7475 13.3934 21.7546 12.1613C22.3189 11.4629 22.7379 10.6588 22.9871 9.7962C23.0057 9.72805 23.0042 9.65597 22.9828 9.58865C22.9613 9.52133 22.9209 9.46164 22.8664 9.41676C22.8118 9.37188 22.7454 9.34373 22.6752 9.3357C22.6051 9.32767 22.534 9.34009 22.4708 9.37149C22.1755 9.5136 21.8431 9.55951 21.5204 9.50274C21.1977 9.44596 20.9009 9.28937 20.6719 9.05503C20.3796 8.73489 20.026 8.47669 19.632 8.29572C19.238 8.11475 18.8118 8.0147 18.3784 8.0015C17.9451 7.9883 17.5135 8.06221 17.1092 8.21886C16.705 8.37551 16.3363 8.61171 16.025 8.91345C15.5988 9.32623 15.2866 9.84225 15.1188 10.4114C14.951 10.9805 14.9332 11.5833 15.0673 12.1613C12.2775 12.3279 10.3621 11.0037 8.82977 9.18827C8.78373 9.13614 8.72352 9.09854 8.65647 9.08007C8.58942 9.06159 8.51844 9.06304 8.4522 9.08424C8.38597 9.10544 8.32733 9.14546 8.28347 9.19943C8.2396 9.2534 8.2124 9.31897 8.20518 9.38814C7.91326 11.0074 8.12384 12.6773 8.80863 14.1734C9.49342 15.6695 10.6196 16.9202 12.036 17.7576C11.0863 18.8467 9.75266 19.527 8.31344 19.6564C8.23634 19.6691 8.16516 19.7057 8.10987 19.761C8.05458 19.8162 8.01795 19.8874 8.0051 19.9644C7.99225 20.0415 8.00383 20.1207 8.03821 20.1909C8.07259 20.2611 8.12806 20.3188 8.19685 20.3559C9.44896 20.9816 10.8278 21.3121 12.2275 21.3219Z" fill="#4747D6"/>
<circle cx="15" cy="15" r="14.5" stroke="#4747D6"/>
</svg>
