<svg width="173" height="54" viewBox="0 0 173 54" fill="none" xmlns="http://www.w3.org/2000/svg">
<ellipse cx="27.3295" cy="15.4091" rx="3.57954" ry="3.40909" fill="#0E0E0E"/>
<circle cx="16.0795" cy="26.4877" r="3.57954" fill="#0E0E0E"/>
<circle cx="38.9194" cy="26.4877" r="3.57954" fill="#481ACA"/>
<ellipse cx="27.3295" cy="37.9091" rx="3.57954" ry="3.40909" fill="#56509B"/>
<path fill-rule="evenodd" clip-rule="evenodd" d="M27.5 25.1879C28.5151 25.1879 29.3381 24.3837 29.3381 23.3917C29.3381 23.3913 29.3381 23.391 29.3381 23.3906H30.8441V29.9265H24.1562V23.3906H25.6619C25.6619 23.391 25.6619 23.3913 25.6619 23.3917C25.6619 24.3837 26.4849 25.1879 27.5 25.1879Z" fill="#C02727"/>
<path d="M57.52 33.6582L52.94 19.6582H56.3L60.28 32.0582H58.6L62.76 19.6582H65.76L69.76 32.0582H68.14L72.22 19.6582H75.32L70.74 33.6582H67.26L63.72 22.7782H64.64L61 33.6582H57.52ZM81.448 33.8182C80.2213 33.8182 79.1413 33.5782 78.208 33.0982C77.288 32.6182 76.5746 31.9649 76.068 31.1382C75.5613 30.2982 75.308 29.3449 75.308 28.2782C75.308 27.1982 75.5546 26.2449 76.048 25.4182C76.5546 24.5782 77.2413 23.9249 78.108 23.4582C78.9746 22.9782 79.9546 22.7382 81.048 22.7382C82.1013 22.7382 83.048 22.9649 83.888 23.4182C84.7413 23.8582 85.4146 24.4982 85.908 25.3382C86.4013 26.1649 86.648 27.1582 86.648 28.3182C86.648 28.4382 86.6413 28.5782 86.628 28.7382C86.6146 28.8849 86.6013 29.0249 86.588 29.1582H77.848V27.3382H84.948L83.748 27.8782C83.748 27.3182 83.6346 26.8315 83.408 26.4182C83.1813 26.0049 82.868 25.6849 82.468 25.4582C82.068 25.2182 81.6013 25.0982 81.068 25.0982C80.5346 25.0982 80.0613 25.2182 79.648 25.4582C79.248 25.6849 78.9346 26.0115 78.708 26.4382C78.4813 26.8515 78.368 27.3449 78.368 27.9182V28.3982C78.368 28.9849 78.4946 29.5049 78.748 29.9582C79.0146 30.3982 79.3813 30.7382 79.848 30.9782C80.328 31.2049 80.888 31.3182 81.528 31.3182C82.1013 31.3182 82.6013 31.2315 83.028 31.0582C83.468 30.8849 83.868 30.6249 84.228 30.2782L85.888 32.0782C85.3946 32.6382 84.7746 33.0715 84.028 33.3782C83.2813 33.6715 82.4213 33.8182 81.448 33.8182ZM95.6452 33.8982C94.5652 33.8982 93.5585 33.7249 92.6252 33.3782C91.7052 33.0182 90.9052 32.5115 90.2252 31.8582C89.5452 31.2049 89.0118 30.4382 88.6252 29.5582C88.2518 28.6782 88.0652 27.7115 88.0652 26.6582C88.0652 25.6049 88.2518 24.6382 88.6252 23.7582C89.0118 22.8782 89.5452 22.1115 90.2252 21.4582C90.9185 20.8049 91.7252 20.3049 92.6452 19.9582C93.5652 19.5982 94.5718 19.4182 95.6652 19.4182C96.8785 19.4182 97.9718 19.6315 98.9452 20.0582C99.9318 20.4715 100.758 21.0849 101.425 21.8982L99.3452 23.8182C98.8652 23.2715 98.3318 22.8649 97.7452 22.5982C97.1585 22.3182 96.5185 22.1782 95.8252 22.1782C95.1718 22.1782 94.5718 22.2849 94.0252 22.4982C93.4785 22.7115 93.0052 23.0182 92.6052 23.4182C92.2052 23.8182 91.8918 24.2915 91.6652 24.8382C91.4518 25.3849 91.3452 25.9915 91.3452 26.6582C91.3452 27.3249 91.4518 27.9315 91.6652 28.4782C91.8918 29.0249 92.2052 29.4982 92.6052 29.8982C93.0052 30.2982 93.4785 30.6049 94.0252 30.8182C94.5718 31.0315 95.1718 31.1382 95.8252 31.1382C96.5185 31.1382 97.1585 31.0049 97.7452 30.7382C98.3318 30.4582 98.8652 30.0382 99.3452 29.4782L101.425 31.3982C100.758 32.2115 99.9318 32.8315 98.9452 33.2582C97.9718 33.6849 96.8718 33.8982 95.6452 33.8982ZM108.142 33.8182C106.995 33.8182 105.975 33.5782 105.082 33.0982C104.202 32.6182 103.502 31.9649 102.982 31.1382C102.475 30.2982 102.222 29.3449 102.222 28.2782C102.222 27.1982 102.475 26.2449 102.982 25.4182C103.502 24.5782 104.202 23.9249 105.082 23.4582C105.975 22.9782 106.995 22.7382 108.142 22.7382C109.275 22.7382 110.289 22.9782 111.182 23.4582C112.075 23.9249 112.775 24.5715 113.282 25.3982C113.789 26.2249 114.042 27.1849 114.042 28.2782C114.042 29.3449 113.789 30.2982 113.282 31.1382C112.775 31.9649 112.075 32.6182 111.182 33.0982C110.289 33.5782 109.275 33.8182 108.142 33.8182ZM108.142 31.2582C108.662 31.2582 109.129 31.1382 109.542 30.8982C109.955 30.6582 110.282 30.3182 110.522 29.8782C110.762 29.4249 110.882 28.8915 110.882 28.2782C110.882 27.6515 110.762 27.1182 110.522 26.6782C110.282 26.2382 109.955 25.8982 109.542 25.6582C109.129 25.4182 108.662 25.2982 108.142 25.2982C107.622 25.2982 107.155 25.4182 106.742 25.6582C106.329 25.8982 105.995 26.2382 105.742 26.6782C105.502 27.1182 105.382 27.6515 105.382 28.2782C105.382 28.8915 105.502 29.4249 105.742 29.8782C105.995 30.3182 106.329 30.6582 106.742 30.8982C107.155 31.1382 107.622 31.2582 108.142 31.2582ZM116.128 33.6582V18.8182H119.248V33.6582H116.128ZM122.143 33.6582V18.8182H125.263V33.6582H122.143ZM133.499 33.8182C132.272 33.8182 131.192 33.5782 130.259 33.0982C129.339 32.6182 128.625 31.9649 128.119 31.1382C127.612 30.2982 127.359 29.3449 127.359 28.2782C127.359 27.1982 127.605 26.2449 128.099 25.4182C128.605 24.5782 129.292 23.9249 130.159 23.4582C131.025 22.9782 132.005 22.7382 133.099 22.7382C134.152 22.7382 135.099 22.9649 135.939 23.4182C136.792 23.8582 137.465 24.4982 137.959 25.3382C138.452 26.1649 138.699 27.1582 138.699 28.3182C138.699 28.4382 138.692 28.5782 138.679 28.7382C138.665 28.8849 138.652 29.0249 138.639 29.1582H129.899V27.3382H136.999L135.799 27.8782C135.799 27.3182 135.685 26.8315 135.459 26.4182C135.232 26.0049 134.919 25.6849 134.519 25.4582C134.119 25.2182 133.652 25.0982 133.119 25.0982C132.585 25.0982 132.112 25.2182 131.699 25.4582C131.299 25.6849 130.985 26.0115 130.759 26.4382C130.532 26.8515 130.419 27.3449 130.419 27.9182V28.3982C130.419 28.9849 130.545 29.5049 130.799 29.9582C131.065 30.3982 131.432 30.7382 131.899 30.9782C132.379 31.2049 132.939 31.3182 133.579 31.3182C134.152 31.3182 134.652 31.2315 135.079 31.0582C135.519 30.8849 135.919 30.6249 136.279 30.2782L137.939 32.0782C137.445 32.6382 136.825 33.0715 136.079 33.3782C135.332 33.6715 134.472 33.8182 133.499 33.8182ZM145.976 33.8182C144.816 33.8182 143.783 33.5849 142.876 33.1182C141.969 32.6382 141.256 31.9782 140.736 31.1382C140.229 30.2982 139.976 29.3449 139.976 28.2782C139.976 27.1982 140.229 26.2449 140.736 25.4182C141.256 24.5782 141.969 23.9249 142.876 23.4582C143.783 22.9782 144.816 22.7382 145.976 22.7382C147.109 22.7382 148.096 22.9782 148.936 23.4582C149.776 23.9249 150.396 24.5982 150.796 25.4782L148.376 26.7782C148.096 26.2715 147.743 25.8982 147.316 25.6582C146.903 25.4182 146.449 25.2982 145.956 25.2982C145.423 25.2982 144.943 25.4182 144.516 25.6582C144.089 25.8982 143.749 26.2382 143.496 26.6782C143.256 27.1182 143.136 27.6515 143.136 28.2782C143.136 28.9049 143.256 29.4382 143.496 29.8782C143.749 30.3182 144.089 30.6582 144.516 30.8982C144.943 31.1382 145.423 31.2582 145.956 31.2582C146.449 31.2582 146.903 31.1449 147.316 30.9182C147.743 30.6782 148.096 30.2982 148.376 29.7782L150.796 31.0982C150.396 31.9649 149.776 32.6382 148.936 33.1182C148.096 33.5849 147.109 33.8182 145.976 33.8182ZM157.149 33.8182C155.882 33.8182 154.895 33.4982 154.189 32.8582C153.482 32.2049 153.129 31.2382 153.129 29.9582V20.5182H156.249V29.9182C156.249 30.3715 156.369 30.7249 156.609 30.9782C156.849 31.2182 157.175 31.3382 157.589 31.3382C158.082 31.3382 158.502 31.2049 158.849 30.9382L159.689 33.1382C159.369 33.3649 158.982 33.5382 158.529 33.6582C158.089 33.7649 157.629 33.8182 157.149 33.8182ZM151.469 25.5382V23.1382H158.929V25.5382H151.469Z" fill="#4747D6"/>
</svg>
