<svg width="80" height="80" viewBox="0 0 80 80" fill="none" xmlns="http://www.w3.org/2000/svg">
<circle cx="40" cy="40" r="40" fill="#EDFBF0"/>
<path d="M40 30.625C41.5625 24.457 47.4639 21.3076 60.3125 21.25C60.5179 21.2492 60.7214 21.2891 60.9114 21.3674C61.1013 21.4456 61.2738 21.5607 61.4191 21.7059C61.5643 21.8512 61.6794 22.0237 61.7576 22.2137C61.8359 22.4036 61.8758 22.6071 61.875 22.8125V50.9375C61.875 51.3519 61.7104 51.7493 61.4174 52.0424C61.1243 52.3354 60.7269 52.5 60.3125 52.5C47.8125 52.5 42.9834 55.0205 40 58.75M40 30.625C38.4375 24.457 32.5361 21.3076 19.6875 21.25C19.4821 21.2492 19.2786 21.2891 19.0887 21.3674C18.8987 21.4456 18.7262 21.5607 18.5809 21.7059C18.4357 21.8512 18.3206 22.0237 18.2424 22.2137C18.1641 22.4036 18.1242 22.6071 18.125 22.8125V50.749C18.125 51.7139 18.7227 52.5 19.6875 52.5C32.1875 52.5 37.0342 55.0391 40 58.75M40 30.625V58.75" stroke="#4747D6" stroke-width="3" stroke-linecap="round" stroke-linejoin="round"/>
</svg>
