<svg width="120" height="120" viewBox="0 0 120 120" fill="none" xmlns="http://www.w3.org/2000/svg">
<circle cx="60" cy="60" r="60" fill="#FBEDF4"/>
<g clip-path="url(#clip0_1_1195)">
<path d="M60.0004 72.4834C58.4621 72.4834 56.9584 72.9396 55.6793 73.7942C54.4003 74.6488 53.4034 75.8635 52.8147 77.2848C52.226 78.706 52.072 80.2698 52.3721 81.7785C52.6722 83.2873 53.413 84.6732 54.5007 85.7609C55.5885 86.8486 56.9743 87.5894 58.4831 87.8895C59.9918 88.1896 61.5557 88.0356 62.9769 87.4469C64.3981 86.8582 65.6128 85.8613 66.4674 84.5823C67.3221 83.3032 67.7782 81.7995 67.7782 80.2612C67.7782 78.1984 66.9588 76.2201 65.5002 74.7615C64.0415 73.3028 62.0632 72.4834 60.0004 72.4834ZM60.0004 84.1501C59.2313 84.1501 58.4794 83.922 57.8399 83.4947C57.2004 83.0674 56.7019 82.46 56.4076 81.7494C56.1132 81.0388 56.0362 80.2569 56.1863 79.5025C56.3363 78.7481 56.7067 78.0552 57.2506 77.5113C57.7945 76.9674 58.4874 76.5971 59.2418 76.447C59.9961 76.297 60.7781 76.374 61.4887 76.6683C62.1993 76.9627 62.8066 77.4611 63.2339 78.1006C63.6612 78.7401 63.8893 79.492 63.8893 80.2612C63.8893 81.2926 63.4796 82.2817 62.7503 83.011C62.021 83.7403 61.0318 84.1501 60.0004 84.1501Z" fill="#4747D6"/>
<path d="M75.9663 67.4861C76.1165 67.2783 76.2241 67.0428 76.2829 66.7932C76.3418 66.5437 76.3506 66.2849 76.3091 66.0319C76.2675 65.7789 76.1763 65.5366 76.0407 65.319C75.9052 65.1014 75.7279 64.9127 75.5191 64.7638C72.6069 62.6725 69.2987 61.1971 65.7969 60.4277L73.3219 67.9527C73.7381 68.2299 74.2451 68.3361 74.7376 68.2492C75.2301 68.1623 75.6701 67.889 75.9663 67.4861Z" fill="#4747D6"/>
<path d="M60.0967 45.8447C57.3792 45.852 54.6693 46.1321 52.0078 46.6808L55.3911 50.0642C56.951 49.8539 58.5227 49.7434 60.0967 49.7336C67.4464 49.7366 74.6237 51.9596 80.6884 56.1114C81.1136 56.355 81.6152 56.4291 82.0928 56.3188C82.5703 56.2084 82.9886 55.9218 83.2638 55.5163C83.5391 55.1108 83.651 54.6162 83.5773 54.1317C83.5036 53.6472 83.2496 53.2083 82.8661 52.9031C76.1605 48.3107 68.2242 45.8505 60.0967 45.8447Z" fill="#4747D6"/>
<path d="M90.2362 40.9447C83.0167 36.1743 74.7677 33.1862 66.1679 32.2261C57.5681 31.2661 48.8633 32.3616 40.7695 35.4225L43.8418 38.4752C51.1641 35.9785 58.9618 35.1955 66.6344 36.1866C74.307 37.1777 81.6498 39.9164 88.0973 44.1919C88.5279 44.4654 89.0487 44.5587 89.5475 44.4518C90.0463 44.3448 90.4831 44.0462 90.7637 43.6202C91.0443 43.1942 91.1462 42.6749 91.0475 42.1745C90.9489 41.674 90.6575 41.2323 90.2362 40.9447Z" fill="#4747D6"/>
<path d="M28.5781 34.2362L33.3031 38.9612C32.0976 39.6224 30.9115 40.3224 29.7448 41.1001C29.5329 41.2431 29.3512 41.4265 29.2101 41.6397C29.069 41.8529 28.9713 42.0918 28.9225 42.3428C28.8241 42.8497 28.931 43.3749 29.2198 43.8029C29.5086 44.2309 29.9556 44.5267 30.4624 44.6252C30.9693 44.7236 31.4945 44.6167 31.9226 44.3279C33.2837 43.414 34.7226 42.5001 36.1615 41.8196L43.6865 49.3446C41.3859 50.3542 39.1854 51.5781 37.1142 53.0001C36.8083 53.3268 36.6245 53.749 36.5937 54.1955C36.5629 54.6419 36.6871 55.0853 36.9453 55.4509C37.2035 55.8165 37.5798 56.0818 38.0109 56.2021C38.4419 56.3224 38.9013 56.2903 39.3115 56.1112C41.5996 54.5412 44.0589 53.2365 46.642 52.2224L54.7309 60.3112C51.006 61.0967 47.4963 62.6824 44.4448 64.9585C44.0647 65.2752 43.8197 65.7249 43.7596 66.216C43.6995 66.7071 43.8289 67.2026 44.1213 67.6016C44.4138 68.0007 44.8474 68.2732 45.3338 68.3638C45.8201 68.4543 46.3228 68.3561 46.7392 68.089C50.0561 65.6799 53.9704 64.2271 58.0559 63.889L79.0559 84.889L81.7976 82.1474L31.242 31.5918L28.5781 34.2362Z" fill="#4747D6"/>
</g>
<defs>
<clipPath id="clip0_1_1195">
<rect width="70" height="70" fill="white" transform="translate(25 25)"/>
</clipPath>
</defs>
</svg>
